<?xml version="1.0" encoding="utf-8"?>
<!-- Generator: Adobe Illustrator 27.0.0, SVG Export Plug-In . SVG Version: 6.00 Build 0)  -->
<svg version="1.1" id="Warstwa_1" xmlns="http://www.w3.org/2000/svg" xmlns:xlink="http://www.w3.org/1999/xlink" x="0px" y="0px"
	 viewBox="0 0 841.89 595.28" style="enable-background:new 0 0 841.89 595.28;" xml:space="preserve">
<style type="text/css">
	.st0{fill:#BE1823;}
	.st1{fill:#FFFFFF;}
</style>
<g id="Obiekt_generatywny">
	<path class="st0" d="M467.81,193.06c1.68,1.03,5.72,8.63,6.92,8.9c0.9,0.2,7.37-1.29,8.9-1.48c3.57,0.47-4.5,7.88-4.7,9.15
		c-0.31,2.04,4.28,7.66,3.96,10.38c-1.03,1.36-7.84-3-9.64-2.72c-1.63,0.25-5.83,6.24-7.91,6.92c-0.65-0.53-0.3-9.3-0.74-10.63
		c-0.48-1.45-7.66-3.71-8.9-5.44c1.73-2.42,8.16-1.96,9.39-4.45C465.71,202.44,465.75,193.11,467.81,193.06z"/>
	<path class="st0" d="M511.81,181.69c14.01,9.64,25.38,22.55,35.85,35.85c0.21,1.05-3.58,2.35-4.2,2.23
		c-0.41-0.08-5.23-6.25-5.19-6.68c0.12-1.37,2.58-1.23-0.74-5.19l-1.48,2.47c-1.56-4.88-23.98-21.86-24.48-23.49
		C511.48,186.61,512.84,183.6,511.81,181.69z"/>
	<g>
		<path class="st0" d="M593.89,317.66c3.67,0.28,0.26,2.03,0.25,2.23c-0.05,0.79,1.18,3.67,0.99,4.45c-0.35,1.44-3.91,2.1-3.96,2.97
			c-0.02,0.5,5.66,4.74,4.94,8.41c-0.46,2.38-7.49,5.4-9.15,7.17c-6.12,6.56,2.34,12.15,0.74,17.55
			c-1.03,3.48-12.97,4.19-13.84,9.89c-0.58,3.78,3.05,10.78,0.99,14.34c-1.6,2.77-12.29,2.88-14.34,6.43
			c-2.18,3.77,0.59,10.19-0.49,13.84c-1.29,4.35-12.98,1.25-15.82,5.93c-2.2,3.62-0.62,10.46-2.47,13.35
			c-2.64,4.12-11.16,0.97-15.08,2.72c-4.21,1.88-3.36,13.72-7.42,14.83c-3.8,1.04-10.09-2.39-14.34-0.49
			c-3.76,1.67-4.82,13.01-8.9,13.84c-3.29,0.67-9.34-3.61-13.84-2.47c-3.28,0.83-6.89,11.21-9.39,11.87
			c-3.74,0.98-10.66-5.17-14.83-4.45c-3.54,0.61-7.57,9.27-10.38,9.89c-6.21,1.36-10.12-8.77-17.31-5.44
			c-2.09,0.97-7.08,7.09-8.9,7.42c-4.5,0.82-9.04-7.79-12.86-8.41c-5.03-0.81-10.15,7.39-14.83,6.43c-2.38-0.49-7.15-9.3-10.38-9.89
			c-4.73-0.86-10.49,5.18-14.34,4.45c-3.41-0.65-6.38-10.99-9.89-11.87c-4.63-1.16-10.95,3.4-14.34,2.47
			c-3.36-0.92-5.26-11.98-7.91-13.35c-4.86-2.51-13.15,3.11-16.56-1.73c-1.73-2.45-1.73-11.01-5.19-12.61
			c-3.44-1.59-9.8,0.59-13.35-0.99c-5.08-2.25-0.87-14.44-7.42-16.81c-2.37-0.86-7.74-0.23-9.89-0.99
			c-6.2-2.18-1.22-11.94-4.2-16.56c-2.44-3.79-13.58-2.33-14.83-6.92c-2.25-8.28,11.44-6.11,16.56-8.16l17.06,23.98
			c3.83-0.12,5.47,5.45,7.17,7.17c0.4,0.41,7.82,2.27,3.96,4.94c4.24-0.93,8.07,4.96,10.88,6.92
			c19.95,13.92,40.96,24.11,65.27,29.67c0.99,0.23,1.66,1.95,1.98,1.98c0.34,0.03,0.16-1.06,0.49-0.99
			c3.32,0.73,7.95,0.73,11.37,1.48c0.23,0.05,0.37,1.34,0.99,1.48c1.45,0.35,2.51-2.65,3.96,0.99l0.49-1.48
			c41.73,3.85,81.69-8.45,114.22-34.12c29.7-23.44,52.86-59.07,60.57-97.65C580.66,320.77,593.19,317.61,593.89,317.66z"/>
		<g>
			<path class="st0" d="M568.67,372.54c2.12-0.15,2.61,5.93,0.99,6.92C568.79,379.62,565.63,372.77,568.67,372.54z"/>
			<path class="st0" d="M399.57,461.54c2.11,0.04-1.66,4.93-2.97,4.45L399.57,461.54z"/>
			<path class="st0" d="M592.9,323.1c3.5,0.04-2.77,4.17-3.21,1.24C589.66,324.17,592.73,323.1,592.9,323.1z"/>
			<path class="st0" d="M495.99,440.78c1.61-1.1,0.56,3.95-0.49,3.96C494.84,444.1,495.65,441.01,495.99,440.78z"/>
			<path class="st0" d="M394.13,464.02c0.8-0.2,2.55,1.22,1.48,1.98C394.31,466.93,392.33,464.46,394.13,464.02z"/>
			<path class="st0" d="M269.04,380.46c1.63,0.19-0.15,2.96-0.99,2.47C267.06,382.35,268.77,380.42,269.04,380.46z"/>
			<path class="st0" d="M345.18,444.73c0.34-0.09,1.04-0.1,1.24,0.25l-2.72,1.73C343.37,446.24,345.06,444.76,345.18,444.73z"/>
			<path class="st0" d="M290.79,399.24c1.84-0.67,0.67,2.55-0.49,1.98C289.72,400.93,290.69,399.28,290.79,399.24z"/>
			<path class="st0" d="M427.26,456.11c1.11-0.24,1.53,0.56,2.23,1.24C429.32,457.94,426.82,456.91,427.26,456.11z"/>
			<path class="st0" d="M562.24,370.07c1.63-0.43,2.03,1.43,0.99,1.48C563.14,371.56,561.82,370.43,562.24,370.07z"/>
			<path class="st0" d="M419.35,466.98c0.76,0.31,0.01,2.24-0.99,1.98C418.02,468.51,419.2,466.92,419.35,466.98z"/>
			<path class="st0" d="M397.59,459.07c1.4-0.23-0.13,2.14-0.49,1.98C396.44,460.75,397.02,459.16,397.59,459.07z"/>
			<path class="st0" d="M270.03,385.4c0.73-0.17,0.57,1.84,0,1.98C269.3,387.55,269.46,385.53,270.03,385.4z"/>
			<path class="st0" d="M304.64,423.47c1.01,0.32-1.24,3.14-1.24,1.24C303.4,424.55,304.42,423.8,304.64,423.47z"/>
			<path class="st0" d="M484.62,443.74c0.38,0.37,0.42,1.73,0,1.98C484.35,445.87,483.27,444.33,484.62,443.74z"/>
			<path class="st0" d="M487.09,449.68c0.5-0.17,1.76,1.13,1.73,1.24C488.59,451.71,486.69,450.36,487.09,449.68z"/>
			<path class="st0" d="M423.31,464.02c1.93-1.39,0.57,1.78,0,1.48C422.91,465.29,422.9,464.31,423.31,464.02z"/>
			<path class="st0" d="M551.86,401.72c0.19-0.09,1.24,1.33,0.49,1.48C551.36,403.4,551.38,401.95,551.86,401.72z"/>
			<path class="st0" d="M536.53,417.04c0.78-0.25,1.73,1.27,0.99,1.48C537.44,418.55,536.11,417.39,536.53,417.04z"/>
			<path class="st0" d="M512.31,433.36c0.65-0.05,2.27,1.45-0.49,0.99C511.3,434.09,512.24,433.37,512.31,433.36z"/>
			<path class="st0" d="M440.12,455.12c0.78-0.25,1.73,1.27,0.99,1.48C441.02,456.63,439.7,455.46,440.12,455.12z"/>
			<path class="st0" d="M391.17,455.61c1.26-0.38,0.26,0.98-0.49,1.48C390.03,456.66,390.8,455.72,391.17,455.61z"/>
			<path class="st0" d="M577.08,363.64c0.05-0.01,1,0.72,0.49,0.99C576.3,365.31,576.15,363.75,577.08,363.64z"/>
			<path class="st0" d="M560.76,373.53c1.01-0.02,1.73,1.19,0.49,0.99C561.16,374.51,560.26,373.79,560.76,373.53z"/>
			<path class="st0" d="M451.98,453.63c1.24-0.17,0.53,0.98-0.49,0.99C450.99,454.37,451.9,453.64,451.98,453.63z"/>
			<path class="st0" d="M527.63,421.49c0.24-0.01,0.33,0.43,0.25,0.74C527.6,424.08,527,421.53,527.63,421.49z"/>
			<polygon class="st0" points="516.26,432.87 517,433.11 516.26,433.86 516.01,433.61 			"/>
			<polygon class="st0" points="492.53,451.16 492.78,451.9 492.03,452.15 491.79,451.9 			"/>
			<polygon class="st0" points="351.61,451.66 352.35,451.9 351.61,452.64 351.36,452.4 			"/>
			<polygon class="st0" points="444.07,454.13 444.81,454.37 444.07,455.12 443.82,454.87 			"/>
			<polygon class="st0" points="576.58,349.3 577.33,349.55 576.58,350.29 576.34,350.05 			"/>
		</g>
	</g>
	<g>
		<path class="st0" d="M420.34,124.33c5.94-1.26,9,9.27,15.33,8.41c2.32-0.32,8.37-6.15,10.38-6.43c5.72-0.79,8.3,8.52,11.87,9.39
			c5.47,1.34,11.06-4.85,15.33-3.96c3.62,0.76,5.62,11,9.89,11.87c4.36,0.89,10.94-3.46,14.34-1.98c3.77,1.64,4.3,12.87,8.9,13.84
			c3.32,0.7,10.34-2.47,13.35-0.99c4.33,2.13,2.27,13.92,8.9,15.33c3.1,0.66,8.39-0.9,11.37,0.49c4.15,1.93,1.59,11.07,4.2,14.59
			c2.82,3.79,14.36,0.58,15.82,5.93c1.11,4.07-2.81,11.25,2.23,14.59c1.59,1.05,17.59,2.75,12.86,8.41
			c-0.56,0.67-16.49,3.3-17.31,2.97c-0.84-0.34-8.94-12.53-10.63-14.59c-2.12-2.57-10.46-10.03-11.37-11.87
			c-0.42-0.85,0.16-8.24-1.73-1.24c-2.42-2.12-4.46-4.87-6.92-6.92c-3.83-3.19-11.91-7.83-14.83-10.88
			c-1.52-1.58,1.21-3.6-2.47-1.48l-38.07-21.26c-0.51,0.11-0.83,1.48-0.99,1.48c-2.61,0.11-11.28-3.19-14.83-3.96
			c-0.6-0.13-0.77-1.44-0.99-1.48c-0.89-0.19-0.41,1.4-2.47,0.99c-44.81-8.87-88.97,0.14-126.08,26.7
			c-2.46,1.76-13.85,12.83-14.83,12.86c-0.86,0.02-1.17-2.6-2.97-0.49c-1.43,1.67,2.8-0.31,1.73,1.73
			c-3.11,2.02-5.23,4.98-7.66,7.66c-0.16,0.17-1.25-0.3-1.73,0.25c-0.35,0.39,0.53,0.95,0.49,0.99
			c-19.84,22.55-35.37,49.07-40.54,79.11c-0.6,1.08-14.4,3.89-16.32,1.98c11.5-1.73,0.78-7.05,0-12.36
			c-1.05-7.09,11.38-7.96,11.87-13.84c0.26-3.12-4.08-10.01-3.46-12.86c0.79-3.67,12.5-5.39,13.84-7.91
			c2.1-3.94-2.49-12.77-0.99-16.32c1.49-3.53,12.27-3.21,14.34-6.43c2.84-4.41-1.46-13.97,3.21-16.56c3.09-1.72,11.23-0.2,13.6-3.71
			c2.3-3.41,0.32-14.15,4.2-16.07c2.31-1.14,15.27,0.21,15.08-0.74c-0.09-0.47-1.46-0.03-1.48-0.49c3.77-2.21,4-13.39,7.17-15.08
			c2.82-1.51,10.42,1.84,13.84,0.99c4.06-1.01,5.76-12.33,8.9-13.84c4.16-2.01,10.27,3.07,14.83,1.98
			c3.45-0.83,7.66-11.2,9.89-11.87c4.8-1.44,10.46,5.31,15.82,3.96c2.25-0.57,6.75-7.97,8.9-8.9c4.72-2.05,7.1,2.7,10.38,4.45
			c3.48,1.86,5.7,0.63,7.91,3.96C411.99,131.58,417.68,124.9,420.34,124.33z"/>
		<g>
			<path class="st0" d="M327.38,162.9l1.48,4.45C328.63,167.44,325.87,163.65,327.38,162.9z"/>
			<path class="st0" d="M276.95,217.29c0.62-0.37,2.2,0.02,2.23,1.24C279.21,220.2,276.02,217.84,276.95,217.29z"/>
			<path class="st0" d="M537.03,179.22c1.06-0.47,1.44,1.57,0.49,1.48C537.22,180.67,536.34,179.52,537.03,179.22z"/>
			<path class="st0" d="M371.88,133.73c0.33-0.07,1.26,1.52,0.49,1.98C372.06,135.89,371.1,133.89,371.88,133.73z"/>
			<path class="st0" d="M458.41,143.62c0.33-0.11,1.67-0.08,1.73,0.25C459.1,144.89,457.14,144.03,458.41,143.62z"/>
			<path class="st0" d="M323.43,169.33c1.33-0.29,1.92,0.86,0.49,0.99C323.87,170.32,322.92,169.58,323.43,169.33z"/>
			<path class="st0" d="M258.65,253.38c0.61,0.91,0.19,2.04-0.49,0.99C257.81,253.83,258.35,253.77,258.65,253.38z"/>
			<polygon class="st0" points="307.6,177.24 308.35,177.48 307.6,178.23 307.36,177.98 			"/>
			<polygon class="st0" points="448.52,138.18 449.26,138.42 449.02,139.17 448.77,138.92 			"/>
			<polygon class="st0" points="419.35,132.24 420.09,132.49 419.35,133.23 419.1,132.98 			"/>
		</g>
	</g>
	<g>
		<path class="st0" d="M659.9,204.93l-3.21-0.99c-58.19,11.22-116.77,23.22-174.54,34.61c-1.98,0.39-2.62-1.18-2.97-0.99
			c-0.51,0.28-0.01,1.39-0.49,1.48c-18.13,3.57-36.36,6.77-54.39,10.88c-2.59,0.03-1.44-3.49-3.46,0.49l-95.92,18.79
			c-4.22-2.15-2.45,0.08-5.93,0.99c-14.13,3.7-31.1,5.73-45.49,7.91c-21.29,6.49-43.4,8.28-64.77,13.84l-0.99-1.98
			c-1.48,2.4-15.1,5.22-17.31,4.94c-0.67-0.08-0.55-1.69-1.48-1.48c-0.36,0.08,0.85,1.52-0.49,1.98c-1.88,0.64-2.82-1.03-2.97-0.99
			c-0.15,0.04-0.64,1.59-2.47,1.98c-4.91,1.04-16.04,0.28-17.8,5.44c-2.41-5.75,5.93-7.85,10.38-7.91c0.12,0,1.56,1.49,1.98,1.48
			c0.82-0.01,0.12-1.67,0.99-1.98c5.03-1.79,14.13-2.84,19.78-3.96c48.75-9.6,99.46-18.94,148.83-29.17
			c2.24,0.12,0.83,3.45,2.97-0.49c67.21-11.55,133.72-27.22,200.75-39.56c4.39-0.81,34.51-6.85,36.09-5.93
			c0.57,0.33-0.08,1.64,0.49,1.98c0.54,0.32,0.65-2.91,1.98-2.97l66.26-11.87C658.03,202.69,658.42,202.66,659.9,204.93z"/>
		<path class="st0" d="M180.04,293.93c0.75-0.27,1.09,0.73,0.49,0.99C179.81,295.23,179.44,294.14,180.04,293.93z"/>
		<path class="st0" d="M182.51,293.43c1.27-0.67,1.43,0.88,0.49,0.99C182.95,294.43,182.01,293.7,182.51,293.43z"/>
		<polygon class="st0" points="215.64,287.99 215.89,288.74 215.14,288.98 214.9,288.74 		"/>
		<polygon class="st0" points="584.49,215.31 584.99,215.8 584.99,216.3 584.49,216.3 		"/>
	</g>
	<g>
		<path class="st0" d="M337.52,420.01c0.23,0.25,2.2-1.71,1.24-1.98C338.64,418,337.08,419.55,337.52,420.01
			c-1.52-1.01-12.2-7.25-12.36-8.16c-0.05-0.28,5.39-5.16,0.25-3.71c-1.16,0.33,0.07,4.68-5.44-0.49c-3.76-3.54-1.84-2.06-1.48-3.96
			c1.23-6.42-2.81,3.4-3.46-1.48l1.73-1.24c-2.36-2.86-1.14,1-3.21,0.74c-2.86-0.35-19.52-21.71-22-25.46
			c0.09-1.1,4.2-1.55,4.94-0.99l17.06,22.5c0.37-0.29,0.92-1.25,1.48-0.99c1.26,0.58,9.55,9.08,11.87,10.88
			c28.21,21.85,68.71,36.44,104.82,34.12c0.18-0.01,0.47-1.44,0.99-1.48c4.94-0.38,11.05-0.54,15.82-1.48
			c6.08-1.2,15.55-6,21.26-4.94c0.17,0.03,2.24,3.21,2.23,0.25c0-0.85-3.04-1.25-1.24-2.23c7.32-2.51,14.44-5.78,21.26-9.39
			c3.31-1.75,8.48-6.19,11.37-7.42c0.71-0.3,1.11,1.51,2.47,0.49c1.17-0.87-0.7-1.3,3.21-3.96c-1.14,0.95,2.48,2.29,2.47,0.74
			c0-0.66-2.16-1-2.47-0.74c1.95-1.33,0.49-3.02,3.71-0.49c0.53-1.45-1.44-0.59-0.25-2.72c0.92-1.64,14.23-12.98,17.06-16.07
			c0.04-0.05,0.57,0.99,1.24,0.25c0.36-0.4-0.85-1.08-0.49-1.48c3.95-4.5,7.86-8.99,11.37-13.84c1.85-2.56,5.34-9.76,6.92-11.37
			c1.31-1.33,2.28,0.24,2.47-0.49c0.26-0.96-1.41-0.42-0.99-1.98c1.07-3.96,7.82-14.17,9.89-19.28c1.34-3.31,5.14-18.66,5.93-19.78
			c1.19-1.67,3.82,0.99,4.7-1.73c-0.68,4.76-1.03,14.09-6.67,14.09c0.21,2.15,2.48,0.39,2.97,1.98c0.19,0.62-4.75,13.94-5.69,6.18
			c-3.92,4.83,1,3.41,1.24,5.19c0.16,1.25-10.71,20.96-11.87,22.25c-1.29,1.43-2.17-0.31-2.47,0.49c-0.25,0.68,1.03,1.33,0.99,1.48
			c-0.2,0.78-3.41,5.11-4.2,5.69c-0.6,0.43-1.47-0.71-1.73-0.25c-0.36,0.64,1.19,1.15,0.99,1.98c-0.51,2.11-3.63,3-5.44,1.48
			c0.5,0.55,2.05,2.38,1.98,2.97c-0.07,0.54-6.01,7.35-6.92,8.41c-8.23,9.57-22.18,21.2-32.88,27.94
			c-2.16,1.36-18.19,10.39-19.28,10.38c-2.1-0.01-0.62-2.28-2.97-1.98c-1.62,0.98,0.79,1.84,0.74,2.23
			c-0.36,2.57-3.93-0.29-5.19-0.25c-0.06,0.54,1.86,0.9,1.73,1.73c-0.26,1.65-25.19,8.07-28.43,8.65c-1.62,0.29-3.79,0.26-5.44,0.49
			c-0.34,0.05-0.16-1.03-0.49-0.99c-0.19,0.03-0.45,1.42-0.99,1.48c-11.08,1.3-23.02,1.4-34.12,0.49c-0.48-0.04,0.01-1.24-0.49-1.48
			c-0.78-0.39-0.92,1.49-1.48,1.48C384.35,444.61,354.19,431.02,337.52,420.01z"/>
		<path class="st0" d="M509.09,411.61c0.31-0.26,2.47,0.08,2.47,0.74C511.57,413.9,507.95,412.56,509.09,411.61z"/>
		<path class="st0" d="M535.54,386.39c0.71-0.44,1.85,1.52,0.99,1.98C536.41,388.43,534.37,387.11,535.54,386.39z"/>
		<path class="st0" d="M337.52,420.01c-0.43-0.46,1.12-2.01,1.24-1.98C339.72,418.3,337.75,420.26,337.52,420.01z"/>
		<polygon class="st0" points="320.96,404.68 321.45,405.18 321.45,405.67 320.96,405.67 		"/>
	</g>
	<g>
		<path class="st0" d="M413.42,150.04c2.46-0.07,6.65-0.34,8.9,0c1.39,0.21,2.32,2.03,2.47,1.98c0.4-0.15,0.01-1.6,0.99-1.98
			c0.58-0.22,10.86,0.83,12.36,0.99c16.9,1.79,38.9,9.27,53.89,17.31c1.85,0.99,3.71,3.81,3.96,3.96c0.06,0.04,0.93-1.02,0.99-0.99
			c1.64,0.98,13.6,8.33,13.6,9.15c0,0.38-3.77,1.41-0.25,5.19c-4.46-4.13-14.99-8.42-18.54-12.61c-0.04-0.05,1.09-1.04,0.25-1.24
			c-0.13-0.03-0.77,1.33-1.98,0.99c-3.22-0.91-9.97-5.4-13.84-6.92c-14.45-5.68-29.51-9.38-44.99-10.88
			c-4.15-0.4-14.37,1.92-14.83-2.47c-2.5-0.29-0.07,1.99-1.48,2.47c-0.42,0.14-7.92,0.52-8.9,0.49c-0.12,0-0.62-1.58-0.99-1.48
			c-0.27,0.07-0.02,1.59-1.48,1.98c-1.45,0.38-5.04,0.14-6.92,0.49c-1.96,0.37-12.92,3.39-13.6,3.21c-1.03-0.27-0.12-1.2-0.74-1.73
			c-0.52,4.02-5.32,2.65-7.42,3.46c-5.5,2.12-11.37,4.59-16.81,6.92c-1.65,0.71-9.52,5.94-10.38,5.93
			c-1.72-0.01-1.44-1.51-1.98-1.48c-0.35,0.02-2.32,3.97-3.46,4.94c-1.04,0.89-12.57,9.15-13.35,9.39
			c-0.49,0.15,0.19-1.57-0.74-1.24c-0.61,0.21,0.06,1.9,0,1.98c-1.52,1.82-7,5.53-9.15,7.66c-9.8,9.72-18.75,20.75-25.46,32.88
			c-1.38,0.94-0.79-1.16-1.24-1.24c-6.56-1.16-0.89,2.05-0.74,2.72c0.25,1.19-9.05,18.42-10.38,21.76
			c-1.24,3.11-5.31,18.95-5.93,19.78c-0.61,0.81-4.41,1.7-4.94,0.99c-0.79-1.07,3.92-13.08,3.96-15.33
			c3.65-0.44,0.45-0.62,0.99-2.97c1.61-6.97,11.23-24.05,15.33-30.66c0.9-1.46,1.95,0.31,2.47-0.99c0.04-0.11-1.4-0.62-0.49-1.98
			c9.08-13.64,32.03-39.9,46.73-46.73c2.36-1.09,1.32,0.59,2.47,0.49c0.95-0.08,0.18-1.67,0.25-1.73c2.8-2.69,9.88-5.87,13.6-7.66
			c1.01-0.49,1.89,0.54,1.98,0.49c0.42-0.19-0.01-1.53,0.99-1.98C374.36,156.38,396.06,150.53,413.42,150.04z"/>
		<g>
			<path class="st0" d="M432.7,152.02c1.84-0.4,1.05,0.67,0,1.48C431.93,153.17,431.9,152.19,432.7,152.02z"/>
			<path class="st0" d="M446.54,154.99c1.06-0.47,1.44,1.57,0.49,1.48C446.73,156.44,445.86,155.29,446.54,154.99z"/>
			<path class="st0" d="M430.72,151.53c1.17,0.14,0.31,2.22-0.49,0.99C429.9,152.02,430.67,151.52,430.72,151.53z"/>
			<path class="st0" d="M441.11,153.5c1.27-0.67,1.43,0.88,0.49,0.99C441.54,154.5,440.6,153.77,441.11,153.5z"/>
			<polygon class="st0" points="407.98,153.01 408.72,153.26 408.47,154 408.22,153.75 			"/>
		</g>
	</g>
	<g>
		<path class="st0" d="M399.08,173.28l11.87,16.81c2.57-0.11,20.89-2.99,21.51-1.24c-1.92,2.5-3.91,5-5.93,7.42
			c-1.01,1.21-1.62-0.46-2.47,0.99c-0.3,0.51,0.84,1.04,0.49,1.48c-0.77,0.97-4.82,4.46-4.94,4.94c-0.99,3.69,7.77,16.12,8.41,20.77
			l-1.24,0.74c-3.84-1.03-16.06-8-19.28-7.42c-1.98,0.36-15.24,14.49-16.32,14.34c-1.17-1.16-0.83-3.69-0.74-5.19
			c0.07-1.24,1.47-4.22,1.48-4.45c0.07-1.21,0.17-11.3,0-11.87c-0.74-2.56-18.03-10.33-17.31-12.36c3.12-2.28,17.4-2.98,19.28-4.94
			C395.37,191.75,397.57,173.87,399.08,173.28z"/>
		<g>
			<path class="st0" d="M383.26,198c1,0.33,1.28,4.27-0.99,3.46C380.3,200.76,383.05,197.94,383.26,198z"/>
			<path class="st0" d="M421.82,216.79c1.55-0.07,0.94,0.37,1.73,1.24C419.38,221.14,419.5,216.91,421.82,216.79z"/>
			<path class="st0" d="M418.36,199.49c2.16-0.57,2.49,1.86,1.48,2.47c-0.56,0.34-0.2-2.39-2.23-1.73
				C417.88,200.06,418.16,199.54,418.36,199.49z"/>
			<path class="st0" d="M388.2,197.51c0.1-0.05,2.4,0.07,2.23,0.74C390.4,199.3,385.82,198.69,388.2,197.51z"/>
			<polygon class="st0" points="394.63,211.85 395.12,214.82 393.89,212.59 			"/>
			<path class="st0" d="M394.63,205.92c1.94-0.39,0.62,1.97-0.49,1.48C393.45,207.1,394.28,205.99,394.63,205.92z"/>
			<path class="st0" d="M392.16,227.18c0.67-0.29,1.76,1.14,0.99,1.48C392.48,228.96,391.39,227.51,392.16,227.18z"/>
			<path class="st0" d="M406,194.54c1.68,0.13,0.05,2.11-0.49,0.99C405.24,194.99,405.93,194.54,406,194.54z"/>
			<path class="st0" d="M408.97,208.39c0.11-0.05,1.49,0.79,2.23,0.74C411.15,209.93,407.26,209.12,408.97,208.39z"/>
			<path class="st0" d="M391.17,202.95c1.12-0.33,0.44,1.48-0.49,1.48C390.03,203.99,390.8,203.06,391.17,202.95z"/>
			<path class="st0" d="M415.39,198.5c0.19-0.09,1.24,1.33,0.49,1.48C414.89,200.18,414.91,198.73,415.39,198.5z"/>
			<path class="st0" d="M405.01,204.43c1.06-0.76,0.6,1.75,0,1.48C404.63,205.75,404.59,204.73,405.01,204.43z"/>
			<path class="st0" d="M413.42,213.33c0.51,0.16,0.42,1.84-0.49,1.48C412.17,214.52,413.25,213.28,413.42,213.33z"/>
			<path class="st0" d="M402.04,181.69c0.51,0.16,0.42,1.84-0.49,1.48C400.8,182.88,401.87,181.63,402.04,181.69z"/>
			<path class="st0" d="M421.33,197.51c1.17,0.14,0.31,2.22-0.49,0.99C420.51,198,421.27,197.5,421.33,197.51z"/>
			<path class="st0" d="M400.07,189.1c0.61,0.91,0.19,2.04-0.49,0.99C399.22,189.56,399.76,189.5,400.07,189.1z"/>
			<path class="st0" d="M403.53,184.16c0.61-0.42,0.65,1.89,0,1.48C403.15,185.41,403.1,184.45,403.53,184.16z"/>
			<path class="st0" d="M395.62,221.24c0.61,0.91,0.19,2.04-0.49,0.99C394.77,221.7,395.31,221.64,395.62,221.24z"/>
			<path class="st0" d="M415.89,217.29c0.13,0.41,0.82,1.14,0.49,1.48C415.47,218.95,415.37,217.95,415.89,217.29z"/>
			<path class="st0" d="M401.06,216.3c0.61,0.91,0.19,2.04-0.49,0.99C400.21,216.75,400.75,216.69,401.06,216.3z"/>
			<path class="st0" d="M419.35,209.87c0.38,0,0.38,1.98,0,1.98C418.97,211.85,418.97,209.87,419.35,209.87z"/>
			<path class="st0" d="M417.87,206.41c0.61,0.91,0.19,2.04-0.49,0.99C417.02,206.86,417.56,206.8,417.87,206.41z"/>
			<path class="st0" d="M408.97,204.93c0.38,0,0.38,1.98,0,1.98C408.58,206.9,408.59,204.92,408.97,204.93z"/>
			<path class="st0" d="M403.53,198.5c0.75-0.27,1.09,0.73,0.49,0.99C403.3,199.81,402.93,198.71,403.53,198.5z"/>
			<path class="st0" d="M402.04,187.62c0.24-0.01,0.33,0.43,0.25,0.74C402.01,190.2,401.41,187.66,402.04,187.62z"/>
			<polygon class="st0" points="419.35,215.8 419.6,216.55 418.86,216.79 418.61,216.55 			"/>
			<polygon class="st0" points="409.46,213.83 410.2,214.07 409.46,214.82 409.21,214.57 			"/>
			<polygon class="st0" points="388.69,202.45 389.44,202.7 389.19,203.44 388.94,203.2 			"/>
			<polygon class="st0" points="421.82,194.54 422.56,194.79 422.32,195.53 422.07,195.28 			"/>
			<polygon class="st0" points="406.99,189.1 407.48,189.6 407.48,190.09 406.99,190.09 			"/>
		</g>
	</g>
	<g>
		<path class="st0" d="M450.01,367.11c0.99,0.31,2,0.47,2.23,1.73c0.47,2.65-4.05,14.25-2.47,17.8
			c0.92,2.07,17.32,10.92,17.31,12.36c-6.64,0.77-13.34,4.25-20.03,3.21c-0.96,0.2-1.92,9.74-2.72,11.13
			c-0.89,1.56-1.75-0.77-1.98,0c-0.35,1.18,1.02,1.87,0.99,1.98c-0.23,0.69-3.2,1.85-1.73,2.72c0.08,0.04,1.4-1.48,1.73,0.25
			c0.07,0.35-1.49,6.61-2.23,6.68l-11.87-19.28l-21.01,0.74c-0.4-1.2,13.47-12.96,13.84-14.34c1.08-3.94-6.59-16.12-7.42-20.77
			c-0.16-0.9-0.66-1.66,0.25-2.23c4.28,1.11,16.18,9.4,19.78,8.9C437.09,377.64,446.77,368.35,450.01,367.11z"/>
		<g>
			<path class="st0" d="M457.92,393.81c-0.53,1.46,7.27,3.2,6.68,4.2c-1.67,2.83-2.29-0.9-2.47-0.99c-1.83-0.89-3.02,0.25-5.19,0.25
				l-0.49-0.99L457.92,393.81z"/>
			<path class="st0" d="M453.96,396.28c3.27,4.39-5.86,3.18-2.97,0.99C451.93,396.56,453.46,399.94,453.96,396.28z"/>
			<path class="st0" d="M420.34,376.99c0.7-0.05,1.36-0.2,1.24,0.74l-2.23,1.24l-0.74-0.74C418.61,378.05,420.23,377,420.34,376.99z
				"/>
			<path class="st0" d="M438.63,377.98c1.21-0.27,1.65,1.72,0.49,1.98C437.91,380.23,437.48,378.24,438.63,377.98z"/>
			<path class="st0" d="M440.12,404.68l0.49,2.97C439.41,407.98,439.5,404.16,440.12,404.68z"/>
			<path class="st0" d="M432.21,380.95c0.86-0.53,1.05,1.73,0.49,1.98C431.79,383.34,431.66,381.28,432.21,380.95z"/>
			<path class="st0" d="M417.87,372.05c0.1,0.01,1.08,1.7,0.49,1.98C417.19,374.58,416.8,371.96,417.87,372.05z"/>
			<path class="st0" d="M444.57,378.97c0.36-0.26,1.59,0.04,1.24,0.74C445.41,380.48,443.51,379.74,444.57,378.97z"/>
			<path class="st0" d="M432.21,393.31c1.06-0.47,1.44,1.57,0.49,1.48C432.39,394.77,431.52,393.61,432.21,393.31z"/>
			<path class="st0" d="M459.4,398.26c1.77-0.27,2.25,1.55,0.49,0.99C459.75,399.2,458.91,398.5,459.4,398.26z"/>
			<path class="st0" d="M418.86,400.73c0.11-0.04,1.9,1.68,0.99,1.98C419.73,402.74,417.95,401.03,418.86,400.73z"/>
			<path class="st0" d="M439.62,414.08c1.25-0.48,1.72,1.07,0.99,1.48C440.53,415.6,439.21,414.43,439.62,414.08z"/>
			<path class="st0" d="M422.32,395.29c0.78-0.25,1.73,1.27,0.99,1.48C423.22,396.8,421.9,395.64,422.32,395.29z"/>
			<path class="st0" d="M434.68,408.64c1.33-0.29,1.92,0.86,0.49,0.99C435.12,409.63,434.17,408.89,434.68,408.64z"/>
			<path class="st0" d="M439.13,408.64c0.07-0.03,1.22,0.67,1.24,0.74C440.69,410.92,437.77,409.15,439.13,408.64z"/>
			<path class="st0" d="M443.08,408.64c1.06-0.76,0.6,1.75,0,1.48C442.7,409.96,442.67,408.94,443.08,408.64z"/>
			<path class="st0" d="M436.66,390.34c0.51,0.16,0.42,1.84-0.49,1.48C435.41,391.54,436.48,390.29,436.66,390.34z"/>
			<path class="st0" d="M416.88,400.73c1.86-0.26-0.16,2.05-0.74,0.74C416.11,401.42,416.83,400.73,416.88,400.73z"/>
			<path class="st0" d="M423.31,375.02c0.61,0.91,0.19,2.04-0.49,0.99C422.46,375.47,423,375.41,423.31,375.02z"/>
			<path class="st0" d="M422.32,383.92c0.61-0.42,0.65,1.89,0,1.48C421.94,385.16,421.89,384.21,422.32,383.92z"/>
			<path class="st0" d="M441.11,378.48c0.13,0.41,0.82,1.14,0.49,1.48C440.69,380.14,440.59,379.14,441.11,378.48z"/>
			<path class="st0" d="M438.63,381.44c0.91-0.18,1.01,0.82,0.49,1.48C439,382.52,438.3,381.79,438.63,381.44z"/>
			<path class="st0" d="M437.64,396.77c0.75-0.27,1.09,0.73,0.49,0.99C437.41,398.08,437.05,396.99,437.64,396.77z"/>
			<path class="st0" d="M415.89,404.19c0.61-0.42,0.65,1.89,0,1.48C415.51,405.43,415.46,404.48,415.89,404.19z"/>
			<path class="st0" d="M441.11,412.1c0.05-0.01,1,0.72,0.49,0.99C440.33,413.76,440.17,412.21,441.11,412.1z"/>
			<path class="st0" d="M437.15,416.06c0.75-0.27,1.09,0.73,0.49,0.99C436.92,417.36,436.55,416.27,437.15,416.06z"/>
			<polygon class="st0" points="436.16,384.41 436.9,384.66 436.16,385.4 435.91,385.15 			"/>
			<polygon class="st0" points="424.29,389.36 425.04,389.6 424.29,390.34 424.05,390.1 			"/>
			<polygon class="st0" points="449.51,393.81 450.25,394.05 450.01,394.79 449.76,394.55 			"/>
			<polygon class="st0" points="445.06,395.78 445.8,396.03 445.06,396.77 444.81,396.52 			"/>
			<polygon class="st0" points="446.05,397.27 446.79,397.51 446.05,398.26 445.8,398.01 			"/>
			<polygon class="st0" points="431.22,405.18 431.71,405.67 431.71,406.17 431.22,406.17 			"/>
		</g>
	</g>
	<g>
		<path class="st0" d="M412.92,143.12c0.9-0.05,1.28,1,1.48,0.99c15.95-0.66,38.7-0.41,55.38,6.92c3.99,1.75,4,3.66,4.45,3.96
			c2.4,1.57,1.82-1.41,1.98-1.48c0.37-0.16,6.87,2.56,7.42,2.97c0.15,0.11-0.17,2.63,1.48,2.97c0.38,0.08,2.15-0.89,3.46-0.49
			c1.06,0.32-0.08,1.62,0.99,1.98c0.09,0.03,0.9-1.02,0.99-0.99c1.93,0.67,8.31,2.94,6.43,4.94c3.57-0.88,13.19,4.45,11.37,8.41
			c1.59,0.58,1.88-1.81,2.97-1.48c1.08,0.33,11.74,8.86,12.61,10.14c0.12,0.18,0.2,3.71,1.24,4.2c1.03,0.49,3.22-0.57,3.46-0.49
			c2.97,0.91,28.6,29.39,27.94,31.4c-0.45,0.63-4.46,1.3-4.7,1.24c-0.89-0.24-9.31-12.55-11.13-14.59
			c-32.54-36.6-77.97-58.79-127.81-56.61c-7.76,0.34-15.9,1.78-23.24,1.98c-1.43,0.04-2.66,2.58-4.94-0.49
			c-0.95,1.63-1.27,2.18,0.99,1.98c0.88,0.59-18.25,5.85-19.78,6.43c-13.25,4.98-27.28,12.75-38.57,21.26
			c-2.52,1.9-13.84,13.36-14.83,13.35c-0.54,0-1.37-1.94-1.48-1.98c-1.71-0.55-2.07,2.62-3.96,1.48
			c1.99-2.31,18.49-17.57,19.78-17.31c0.92,0.19,0.53,2.49,1.48,1.98c1.22-0.66-1.08-1.9-0.49-2.97c0.74-1.36,23.72-14.5,26.7-15.82
			c4.63-2.05,8.17-2.48,12.36-3.46c0.3-0.07-0.55-1.32,0.49-1.48c0.95-0.15,5.14,4.81,4.7,0.74c-0.15-1.39-3.51-0.65,1.24-2.72
			c1.27-0.55,18.27-4.72,19.28-4.45c0.24,0.06,1.85,2.85,3.96,2.47l-2.47-1.98c0.54-2.69,3.73,0.05,3.96,0
			c0.48-0.1,0.02-1.4,0.49-1.48c5.05-0.9,8.64-0.21,13.35-0.49C412.14,144.1,412.72,143.13,412.92,143.12z"/>
		<path class="st0" d="M446.05,146.09c1.46-0.07,0.52,1.98,0,1.98C445.23,148.06,445.15,146.13,446.05,146.09z"/>
		<path class="st0" d="M451.98,147.08c0.92-0.15,0.45,2.45-0.49,1.98C450.83,148.72,451.42,147.17,451.98,147.08z"/>
		<path class="st0" d="M378.81,150.04c1.23-0.46,1.73,1,0.99,1.48C379.35,151.81,378.06,150.74,378.81,150.04z"/>
		<path class="st0" d="M513.79,174.77c0.61,0.91,0.19,2.04-0.49,0.99C512.94,175.22,513.49,175.16,513.79,174.77z"/>
	</g>
	<g>
		<path class="st0" d="M467.06,445.23c0.73-0.78-0.76-2.18-0.99-0.74C466.07,444.55,466.9,445.4,467.06,445.23
			c-0.1,0.02-1.64,1.02-1.73,0.99c-0.63-0.19-1.04-2.43-1.98-1.98c1.33,3.15-6.16,4.37-8.9,4.94c-1.4,0.29-1.68-1.21-2.47-0.99
			c-0.49,0.14-0.01,1.39-0.49,1.48c-2.88,0.56-4.55,1.38-5.44-0.99c0.06,3.94-1.67,1.19-2.97,1.48c-9.76,2.25-19.52,3.14-29.67,2.47
			c-0.29-0.02-0.87-1.37-1.98-1.48c-0.2-0.02-1.83,1.18-3.96,0.99c-4.18-0.37-1.54-1.95-2.47-2.47c-0.63-0.35-1.75,1.51-1.98,1.48
			c-0.54-0.06-0.84-1.75-1.48-1.98c-2.13-0.74-1.69,1.71-3.96,1.98c-3.42,0.4-3.71-2.39-3.96-2.47c-0.41-0.14-0.51,1.45-1.48,1.48
			c-1.22,0.04-2.33-1.45-2.47-1.48c-1.21-0.29-1.97,0.59-2.47,0.49c-0.66-0.13-1.36-1.96-1.48-1.98c-0.42-0.07-7.44,2.74-5.44-1.98
			c1.43,0.55,2.86-0.64,2.72,1.73c2.23-0.11,0.19-2.49-0.74-2.72c-2.51-0.61-3.37,2.1-5.93,1.98c-0.31-0.01-5.66-1.82-5.93-1.98
			c-1.08-0.63-1.8-3-1.98-2.97c-0.45,0.09,0.26,1.74-1.48,1.98c-0.5,0.07-8.26-2.98-9.39-3.46c-1.15-0.49-3.35-1.96-4.45-2.47
			c-6.58-3.07-12.95-6.76-19.04-10.63c4.19,0.89,1.9-2.13,4.2-2.23c33.49,21.23,75.82,29.02,114.71,20.77
			c5.92-1.26,12.94-3.6,18.79-5.44c5.01-1.58,10.34-5.79,15.33-3.96l-1.48-1.98l23.73-13.35c3.55,5.69-1.03,3.17-1.24,3.71
			c-0.3,0.78,2.07,1.33-0.25,2.72c-0.07,0.04-0.72-0.92-1.48-0.49c-1.56,0.87-4.51,4.03-6.43,4.94c-4.23-2.27-4.26-2.26-1.48,1.48
			c-0.52,0.12-1.7-0.17-1.98,0C489.29,437.37,475.25,443.96,467.06,445.23z"/>
		<path class="st0" d="M373.86,442.76c0.05-0.01,1,0.72,0.49,0.99C373.08,444.42,372.93,442.86,373.86,442.76z"/>
		<path class="st0" d="M467.06,445.23c-0.16,0.18-1-0.68-0.99-0.74C466.31,443.05,467.79,444.45,467.06,445.23z"/>
	</g>
	<g>
		<path class="st0" d="M577.08,321.12c0.66-0.01,1.32,0.01,1.98,0c-3.24,18.47-11.21,36.59-21.01,52.66
			c-0.74,1.22-2.13,0.44-2.47,0.99c-0.11,0.17,0.48,2.48-0.49,3.96c-6.04,9.19-18.42,25.33-26.95,31.89
			c-0.74,0.57-1.9-0.56-1.98-0.49c-0.78,0.59,0.3,1.2,0.25,1.24c-1.2,0.97-2.14,0.66-2.22,0.74c-0.53,0.55-0.08,1.56-0.25,1.73
			c-1.4,1.4-10.31,9.39-11.62,9.15c-7.18-1.32,6.78-9.5,7.91-11.37l2.23,2.23c0.32-1.03-1.1-2.19-0.99-2.97
			c0.14-0.99,13.21-13.62,14.09-14.09c0.68-0.37,1.12,1.23,1.73,0.74c-1.79-1.4,6.04-10.43,6.68-10.63c0.96-0.3,0.57,1.67,1.73,0.74
			c-0.75-4.91,2-5.9,5.44-7.42c0.53-2.2-1.54-0.02-1.98-0.99c-0.16-0.35,4.35-6,4.7-6.18c0.08-0.04,1.21,1.68,1.73,0.74
			c0.58-1.06-1.47-2.18-1.48-2.47c-0.05-0.98,9.47-14.22,9.39-17.31c2.56-4.71,5.35-11.54,7.42-17.31
			c1.12-3.12,2.3-11.52,3.46-13.84C574.85,321.87,576.29,321.13,577.08,321.12z"/>
		<path class="st0" d="M565.21,357.22c1.93-1.39,0.57,1.78,0,1.48C564.81,358.49,564.81,357.5,565.21,357.22z"/>
	</g>
	<g>
		<path class="st0" d="M376.83,371.06c1.59,0.53-0.11,8.91-1.73,9.15l9.89,7.42c-1.27,2.7-8.2,2.6-9.39,4.45
			c-0.65,1.02-1.75,10-3.21,10.14c-1.82-0.94-5.35-8.57-6.43-8.9c-1.25-0.38-10.17,1.81-10.63-0.25c6.77-7.32,7.51-8.84,3.46-18.29
			c0.26-1.72,8.06,3.09,10.14,2.72C370.44,377.21,376.28,370.88,376.83,371.06z"/>
		<polygon class="st0" points="364.96,381.94 365.7,382.19 365.46,382.93 365.21,382.68 		"/>
	</g>
	<g>
		<path class="st0" d="M343.21,216.79c1.98,0.95,5.77,8.51,6.92,8.9c1.79,0.61,9.6-2.19,10.14-0.25c-0.77,1.46-5.86,7.47-5.93,8.41
			c-0.13,1.64,3.8,7.2,3.96,9.39c-0.76,2.19-7.74-2.48-9.15-2.23c-0.93,0.17-6.04,6.97-7.91,7.42c-1.38-0.58-0.33-9.11-0.74-10.14
			c-0.79-1.98-9.79-4.95-9.89-5.93c1.66-2.52,8.76-2.58,9.89-4.94C341.02,226.31,341.4,216.98,343.21,216.79z"/>
		<path class="st0" d="M342.22,238.05c1.06-0.47,1.44,1.57,0.49,1.48C342.4,239.51,341.53,238.36,342.22,238.05z"/>
		<polygon class="st0" points="347.16,226.19 347.41,226.93 346.67,227.18 346.42,226.93 		"/>
	</g>
	<g>
		<path class="st0" d="M499.94,346.83l0.74,10.14c2.1,0.71,4.82,3.84,6.18,4.7c0.19,0.12,3.35-1.06,3.71,1.73
			c-0.34,1.56-8.69,2.04-9.89,4.45c-0.72,1.44-0.43,10.31-2.23,10.14c-1.31-1.14-5.38-8.13-6.43-8.41
			c-1.98-0.52-7.37,1.72-9.89,0.99c-1.38-0.83,4.6-8.22,4.7-9.15c0.2-1.87-4.39-8.67-3.46-9.89
			C492.99,353.67,493.41,355.12,499.94,346.83z"/>
		<polygon class="st0" points="490.55,358.21 491.29,358.45 491.04,359.19 490.8,358.95 		"/>
		<polygon class="st0" points="485.61,365.13 485.85,365.87 485.11,366.12 484.86,365.87 		"/>
	</g>
	<g>
		<path class="st0" d="M286.84,376.01c1.29,0.29,8.15,10.8,9.64,12.61c3.98,4.82,6.14,6.81,9.39,11.87
			c1.64,2.55,3.05,1.11,3.21,1.24c2.87,2.19,5.92,5.97,8.9,8.41c2.34,1.91,17.56,12.01,17.55,13.1c0,0.19-2.53,2.7-2.72,2.72
			c-0.37,0.04-6.12-3.83-6.18-4.2c-0.03-0.16,2.19-2.57,0.74-3.21c-0.13-0.06-1.31,2.43-1.48,2.47c-0.44,0.12-7.07-4.69-7.17-5.19
			c-0.16-0.82,1.87-1.53,0.25-3.21c-0.78-0.28-2.14,1.98-2.47,1.98c-0.38,0-5.54-4.84-5.69-5.19c-0.13-0.31,1.16-2.11,0.25-2.72
			c-0.13-0.09-1.2,1.69-1.98,1.48c-2.74-0.72-23.38-26.38-25.46-30.9C284.19,377.12,286.67,375.97,286.84,376.01z"/>
		<polygon class="st0" points="287.83,380.95 288.57,381.2 287.83,381.94 287.58,381.69 		"/>
		<polygon class="st0" points="287.33,378.48 287.58,379.22 286.84,379.47 286.59,379.22 		"/>
	</g>
	<g>
		<path class="st0" d="M280.41,230.14c2.2,2.23-4.31,2.5,0.74,4.2c-2.35,1.94-8,18.71-9.15,19.04c-1.38,0.39-1.6-1.46-2.72-0.74
			c4.1,5.9-2.36,13.43-2.47,20.27c-7.74,5.83-3.58-5.72-2.47-9.89c1.09-4.07,11.25-31.52,13.6-32.39
			C278.11,230.58,278.63,233.25,280.41,230.14z"/>
		<polygon class="st0" points="277.94,236.08 278.68,236.32 277.94,237.07 277.69,236.82 		"/>
	</g>
	<g>
		<path class="st0" d="M306.12,192.07l3.21,2.72c-10.96,11.03-19.54,24.02-27.44,37.33c0.66-1.63-1.71-4.45-1.73-4.7
			c-0.2-2.24,16.47-26.46,18.54-27.44c0.78-0.37,1.26,1.82,2.23,0.25C298.23,199.57,305.58,192.14,306.12,192.07z"/>
		<path class="st0" d="M296.73,205.92c0.69,0.09-0.17,1.53-0.49,1.48C295.54,207.31,296.41,205.87,296.73,205.92z"/>
	</g>
	<g>
		<path class="st0" d="M186.71,379.96c0.09,0.06-0.23,1.6,0.74,1.98C188.5,380.69,186.77,380.1,186.71,379.96
			c-0.66-1.47-1.42-2.71-1.98-4.2l14.34-33.13c3.66-0.77,0.92-0.27,0.74-1.24c-0.02-0.11,0.53-1.67,0.25-2.23l-35.11-36.09
			c3.08-0.35,0.79-2.17,2.23-2.72c0.68-0.26,13.61-2.49,14.34-2.47c2.63,0.07,0.92,4.34,3.46-0.49
			c21.28-3.62,42.59-7.28,63.78-11.37c32.04-6.19,71.85-17.63,103.34-20.77c6.77-0.68,2.41,2.08,4.45,2.47
			c0.26,0.05,4.04-1.61,1.73-3.21c0.3-0.69,13.33-3.18,14.59-3.21c1.71-0.05,1.6-0.21,1.98,1.48l0.49-1.98
			c14.61-2.26,29.02-5.57,43.51-8.41c46.71-9.14,95.1-18.47,142.4-27.69c0.28-0.05,0.09,1.31,0.99,0.99
			c0.21-0.08-0.03-1.59,1.98-1.98c17.8-3.46,35.61-6.97,53.4-10.38c1.76-0.34,2.34,1.01,2.47,0.99c0.15-0.03,0.02-1.6,1.98-1.98
			c4.91-0.95,14.36-3.19,18.79-3.46c0.8-0.05,0.4,3.15,2.47-0.49l16.56-3.46c3.66,5.6-1.01,7.39-2.47,11.13
			c-0.78,2-1.85,6.97-2.97,9.39c-1.68,3.64-4.04,11.17-8.41,10.38c5.37,4.11-5.34,15.18-4.94,19.28
			c0.25,2.52,31.63,31.67,35.11,36.59c1.75,3.98-0.82,8.1-4.7,9.64c-12.46,4.95-42.78,7.11-57.36,9.89
			c-38.89,7.43-84.34,19.41-122.62,22.74c-0.51,0.04-2.65,3.55-4.94,0v1.98l-62.79,11.87c-2.96-4.6,1.77-4.71,4.94-5.44
			c47.24-10.9,97.52-15.83,144.87-27.19c3.94,2.46,2.1-0.16,2.97-0.49c3.55-1.35,10.45-1.22,14.34-2.47
			c-0.35,3.56,1.3-0.42,1.48-0.49c7.41-2.89,30.66-5.68,40.05-7.42c2.56-0.47,3.75,1.02,3.96,0.99c0.55-0.07,0.91-1.87,1.48-1.98
			c9.24-1.71,18.46-3.16,27.69-4.94c0.85-0.16,1.03,1.07,1.98,0.99c0.37-0.03-0.62-1.22,0.49-1.48c1.83-0.44,8.93-0.28,6.92-3.46
			c-1.97,0.98-8.55,2.58-10.38,2.47c-0.61-0.04-0.52-1.6-1.48-1.48c-0.23,0.03,1.25,1.34-2.97,2.47
			c-39.47,10.61-92.08,16.36-133.99,24.23c-58.21,10.93-116.37,22.47-174.54,33.62c-3.03-3.82-1.38-0.22-2.97,0.49
			c-0.81,0.36-7.66,1.58-9.39,1.98c-18.5,4.21-66.43,15.54-83.07,15.82c-4.53,0.08-3.75-3.26-5.44,0.99l-66.75,13.84
			c-3.72-2.9-3.25,1.78,2.47,1.48c18.85-0.98,54.15-11.82,74.66-15.82c2.75-0.54,5.22-0.96,7.91-1.48
			c50.58-9.85,101.36-18.65,151.79-29.17c0.65,0.22,1.51,3.14,1.24,3.71c-0.42,0.86-17.62,4.46-18.54,4.2
			c-0.85-0.24,1.18-1.99-0.49-1.98l-2.47,2.47l-51.92,9.89c-2.19-3.27-0.83-0.05-2.47,0.49c-44.27,7.49-88.97,17.49-132.51,25.71
			c-6.36,1.2-19.29,4.68-24.72,4.94c-1.71,0.08-3.95-0.13-5.44-0.99C176.44,388.24,184.55,378.44,186.71,379.96z"/>
		<g>
			<path class="st0" d="M543.95,234.59c3.16,1.62,7.49,1.54,3.46,5.44C546.9,239.03,542.16,235.84,543.95,234.59z"/>
			<path class="st0" d="M457.42,247.94c1.34-0.29,3.68,4.96,1.98,5.44C455.85,251.22,453.91,251.7,457.42,247.94z"/>
			<path class="st0" d="M664.1,285.52c2.97,3.85,3.56,1.37,6.68,2.23c-2.15,0.24-1.57,2.17-1.73,2.23
				c-0.35,0.11-5.76-3.76-6.43-1.48C661.63,286.63,663.09,286.62,664.1,285.52z"/>
			<path class="st0" d="M638.88,218.77l4.2,3.71l-4.7,0.74C636.31,221.24,639.57,221.11,638.88,218.77z"/>
			<path class="st0" d="M176.08,312.72l6.68,5.19C181.77,319.59,176.2,314.07,176.08,312.72z"/>
			<path class="st0" d="M665.09,288.98c0.25-0.05,2.81,1.37,2.97,1.98C669.01,294.72,661.11,289.74,665.09,288.98z"/>
			<path class="st0" d="M204.76,368.59l5.69,3.21C208.72,373.7,204.89,370.53,204.76,368.59z"/>
			<path class="st0" d="M278.93,360.18c2.32-0.95,2.22,3.61,0,4.45C277.97,364.51,277.71,360.68,278.93,360.18z"/>
			<path class="st0" d="M203.77,346.83c0.41-0.17,4.3-0.47,4.2,1.24c-2.68,0.44-3.81-0.95-4.2,2.72
				C202.93,350.2,203.1,347.12,203.77,346.83z"/>
			<path class="st0" d="M413.91,337.93c1.74-0.03,1.45,3.6,0.99,3.96C414.67,342.06,410.77,337.98,413.91,337.93z"/>
			<path class="st0" d="M234.43,295.41c0.81,1.72-1.8,4.8-2.97,5.93L234.43,295.41z"/>
			<path class="st0" d="M604.27,229.15c0.4-0.13,2.77,1.21,3.21,1.73C605.91,232.45,601.42,230.11,604.27,229.15z"/>
			<path class="st0" d="M531.09,234.59c1.48-0.97,2.34,2.37,1.48,3.46C531.9,237.65,530.14,235.22,531.09,234.59z"/>
			<path class="st0" d="M652.73,212.34c2.68-0.57,0.82,2.39,0.49,2.47C651.97,215.15,650.96,212.72,652.73,212.34z"/>
			<path class="st0" d="M646.8,228.66c1.08-0.08,0.11,3.99,0,4.45C645.62,232.63,645.81,228.74,646.8,228.66z"/>
			<path class="st0" d="M183.99,313.21c1.55,0.21,0.37,3.04-0.99,2.97C181.51,316.1,183.54,313.15,183.99,313.21z"/>
			<path class="st0" d="M654.71,290.47c0.93-0.51,2.12,2.77,1.48,3.46C655.52,294.25,653.91,290.91,654.71,290.47z"/>
			<polygon class="st0" points="240.36,367.11 241.6,367.85 239.37,370.07 			"/>
			<path class="st0" d="M367.93,266.24c0.31-0.16,2.73-0.36,2.72,0.74C370.64,268.66,366.18,267.13,367.93,266.24z"/>
			<path class="st0" d="M666.57,284.53c1.11-0.77,2.51,1.69,1.48,2.47C667.53,287.4,665.52,285.27,666.57,284.53z"/>
			<path class="st0" d="M202.78,356.23c2.06-0.69,1.67,2.4,1.48,2.47C203.71,358.92,201.17,356.76,202.78,356.23z"/>
			<path class="st0" d="M648.28,210.37l3.71,1.24C650.65,212.16,648.39,212.11,648.28,210.37z"/>
			<path class="st0" d="M633.94,257.83c1.3,0.09,0.66,3.86-0.49,3.46C633.48,260.85,633.09,257.77,633.94,257.83z"/>
			<path class="st0" d="M655.7,287.99l2.72,0.74C658.41,289.83,654.96,289.63,655.7,287.99z"/>
			<path class="st0" d="M625.04,215.31l0.99,2.47C624.41,215.97,621.39,218.34,625.04,215.31z"/>
			<path class="st0" d="M247.28,368.09c1.15,0.86,0.88,2.76,0.49,3.96C246.64,371.21,246.89,369.32,247.28,368.09z"/>
			<path class="st0" d="M488.57,316.67c0.44-0.1,2.98,1.32,0.99,1.98C487.96,319.18,487.26,316.99,488.57,316.67z"/>
			<path class="st0" d="M591.91,306.29c1.43,0.76-0.89,3.75-2.72,2.23C590.4,308.45,591.76,306.21,591.91,306.29z"/>
			<path class="st0" d="M638.88,224.7c2.98,0.96-1.49,3.02-1.73,1.24C637.07,225.32,638.78,224.67,638.88,224.7z"/>
			<path class="st0" d="M306.62,360.18l2.72,1.73C308.9,362.69,306.06,361.35,306.62,360.18z"/>
			<path class="st0" d="M344.19,354.74c0.52-0.17,2.14-0.07,2.72,0.25l-2.72,1.24C343.39,355.79,343.38,355.01,344.19,354.74z"/>
			<path class="st0" d="M546.92,229.15c1.35-0.56,1.06,2.19,0.49,2.47C546.19,232.23,545.98,229.54,546.92,229.15z"/>
			<path class="st0" d="M189.43,304.31c2.47-0.47,0.61,2-0.99,1.98C187.68,305.72,189.26,304.34,189.43,304.31z"/>
			<path class="st0" d="M583.51,301.34c4.09-1.21-1.28,3.46-1.24,1.24C582.27,302.49,583.42,301.37,583.51,301.34z"/>
			<path class="st0" d="M185.48,306.78c1.52-0.12,2.04,1.74,1.48,1.98l-2.72-1.24C184.56,307.5,185.4,306.79,185.48,306.78z"/>
			<path class="st0" d="M195.86,361.67c1.04-0.09,2.42,1.95,1.48,2.47L195.86,361.67z"/>
			<path class="st0" d="M174.1,305.3c0.97-0.57,2.22,2.26,0.99,2.47C174.86,307.81,173.1,305.89,174.1,305.3z"/>
			<path class="st0" d="M643.33,215.31c0.89-0.4,2.2,2.28,0.99,2.97L643.33,215.31z"/>
			<path class="st0" d="M189.43,378.97c0.69-0.44,2.48,1.94,0.99,1.98C189.25,380.98,188.73,379.42,189.43,378.97z"/>
			<path class="st0" d="M637.4,239.54c2.22,0.26-0.96,2.48-1.73,1.24L637.4,239.54z"/>
			<polygon class="st0" points="244.81,369.08 245.8,372.05 244.07,369.82 			"/>
			<path class="st0" d="M428.74,260.8c2.57,0.33-0.7,3.21-1.24,1.24C427.49,261.95,428.66,260.79,428.74,260.8z"/>
			<path class="st0" d="M294.75,362.66c0.93,0.1,1.01,2.1-0.49,1.98C292.9,364.52,294.38,362.61,294.75,362.66z"/>
			<path class="st0" d="M650.75,223.22c0.21-0.13,2.11,0.66,1.73,1.24C651.74,225.56,649.41,224.05,650.75,223.22z"/>
			<path class="st0" d="M492.53,247.94c0.75,0.07,1.09,3.15-0.99,1.98C491.14,249.7,492.28,247.92,492.53,247.94z"/>
			<path class="st0" d="M196.35,381.44c0.15-0.09,2.48-0.34,2.23,0.74C197.71,382.94,195.07,382.24,196.35,381.44z"/>
			<path class="st0" d="M375.84,340.9c0.3-0.05,0.61-0.07,0.74,0.25l-1.73,2.23C373.93,342.93,375.34,340.98,375.84,340.9z"/>
			<path class="st0" d="M202.29,366.61c0.07,0,1.2,0.68,1.24,0.74C204.84,370.08,199.79,366.6,202.29,366.61z"/>
			<path class="st0" d="M562.74,238.05c1.15-0.05,0.57,2.57-0.49,1.98C561.55,239.65,562.26,238.08,562.74,238.05z"/>
			<path class="st0" d="M198.83,311.73c1.11-0.61,1.76,1.06,0.99,1.48C198.7,313.82,198.05,312.15,198.83,311.73z"/>
			<path class="st0" d="M610.21,296.4c0.69,1.04,0.01,2.04-0.49,2.97C609.15,299.11,609.33,296.7,610.21,296.4z"/>
			<path class="st0" d="M382.76,275.63c1.32,0.6-1.54,4.07-1.24,1.24C381.53,276.78,382.68,275.6,382.76,275.63z"/>
			<path class="st0" d="M659.16,279.59c2.19-0.12-1.24,3.16-1.24,1.24C657.92,280.74,659.07,279.59,659.16,279.59z"/>
			<path class="st0" d="M196.85,298.87c0.16,0.02,0.48,0.58,0.74,0.74l-2.23,1.24C194.46,300.01,196.73,298.86,196.85,298.87z"/>
			<path class="st0" d="M472.75,247.94c0.77,1.29,3.04,1.49,1.48,2.47L472.75,247.94z"/>
			<path class="st0" d="M317,358.21c1.82-0.35,1.33,1.26,0.49,1.48C316.48,359.97,315.94,358.41,317,358.21z"/>
			<path class="st0" d="M190.42,300.35c0.8-0.21,1.26,0.15,1.73,0.74l-2.23,0.25C189.44,301.1,190.3,300.39,190.42,300.35z"/>
			<path class="st0" d="M656.68,207.4c0.61,0.35,0.22,2.35-0.49,2.47C655.3,210.02,655.71,207.88,656.68,207.4z"/>
			<path class="st0" d="M452.48,332c1.06,0.38-1.09,2.68-2.23,0.74L452.48,332z"/>
			<path class="st0" d="M569.66,224.21c1.17-0.01,0.32,2.02-0.99,1.98C567.89,225.6,569.55,224.21,569.66,224.21z"/>
			<polygon class="st0" points="422.81,327.55 423.55,328.29 421.33,329.53 			"/>
			<path class="st0" d="M199.82,361.67c0.09-0.01,1.87,0.86,0.99,1.48C199.23,363.56,198.72,361.8,199.82,361.67z"/>
			<path class="st0" d="M185.48,303.32c0.86-0.53,1.05,1.73,0.49,1.98C185.06,305.71,184.93,303.66,185.48,303.32z"/>
			<path class="st0" d="M650.75,302.33c1.53-0.78,1.42,1.44,0.49,1.48C650.16,303.86,650.31,302.56,650.75,302.33z"/>
			<path class="st0" d="M637.9,227.18c0.85,0,0.85,1.98,0,1.98C637.04,229.15,637.04,227.18,637.9,227.18z"/>
			<path class="st0" d="M470.28,254.87c0.95-0.5,0.98,1.96,0.49,2.47C470.48,256.83,469.52,255.26,470.28,254.87z"/>
			<path class="st0" d="M620.59,298.87l0.99,1.98C620.5,300.85,619.92,299.71,620.59,298.87z"/>
			<path class="st0" d="M644.32,288.98l0.99,1.98C644.23,290.96,643.65,289.82,644.32,288.98z"/>
			<path class="st0" d="M211.19,342.88c0.09-0.01,1.87,0.86,0.99,1.48C210.61,344.77,210.09,343.01,211.19,342.88z"/>
			<path class="st0" d="M193.88,313.21c1.23,1.93-1.24,3.08-1.24,1.73C192.65,314.83,193.85,313.88,193.88,313.21z"/>
			<path class="st0" d="M501.92,311.73c1.05,0.77,1.05,1.7,0,2.47C501.52,313.59,501.51,312.36,501.92,311.73z"/>
			<path class="st0" d="M639.38,213.33c0.56,0.09,1.15,1.65,0.49,1.98C638.93,215.78,638.45,213.18,639.38,213.33z"/>
			<path class="st0" d="M638.39,297.39c0.84,0.54,0.52,2.85-0.49,2.47L638.39,297.39z"/>
			<path class="st0" d="M519.23,235.09c0.81,0.47-0.14,2.68-0.49,2.47C517.93,237.09,518.87,234.88,519.23,235.09z"/>
			<path class="st0" d="M221.08,294.42c0.63-0.3,2.06,0.5,1.73,1.24C222.46,296.43,220.72,295.09,221.08,294.42z"/>
			<path class="st0" d="M198.33,364.63c1.37-0.38,0.23,1.93,0,1.98C197.61,366.77,197.75,364.79,198.33,364.63z"/>
			<path class="st0" d="M651.25,290.47c0.54,0.29,0.4,2.44-0.49,1.98C649.93,292.02,651,290.33,651.25,290.47z"/>
			<path class="st0" d="M648.77,219.27c0.88-0.46,1.04,1.65,0.49,1.98C649.04,221.38,647.95,219.7,648.77,219.27z"/>
			<path class="st0" d="M390.67,339.91c0.39-0.21,2.18-0.07,1.73,0.74C391.92,341.52,389.93,340.31,390.67,339.91z"/>
			<path class="st0" d="M661.13,278.1c0.67-0.29,1.76,1.14,0.99,1.48C661.46,279.89,660.36,278.44,661.13,278.1z"/>
			<path class="st0" d="M344.69,274.64c0.76,0.31,0.01,2.24-0.99,1.98C343.36,276.17,344.54,274.58,344.69,274.64z"/>
			<path class="st0" d="M495.99,243.49c0.09,0,1.41,1.13,0.99,1.48C495.34,245.41,494.95,243.55,495.99,243.49z"/>
			<path class="st0" d="M637.9,244.98c0.76,0.31,0.01,2.24-0.99,1.98C636.57,246.5,637.75,244.92,637.9,244.98z"/>
			<path class="st0" d="M426.27,327.55c0.25-0.14,1.31,1.61,0.49,1.98C425.84,329.95,425.74,327.85,426.27,327.55z"/>
			<path class="st0" d="M643.83,273.65l-0.99,1.98C642.02,274.29,642.94,274.33,643.83,273.65z"/>
			<path class="st0" d="M182.02,307.28c0.18-0.12,1.45-0.09,1.73,0.25C182.92,308.99,180.89,308,182.02,307.28z"/>
			<path class="st0" d="M654.71,275.14c0.25-0.01,1.2,1.17,0.49,1.48C653.56,277.34,653.86,275.16,654.71,275.14z"/>
			<path class="st0" d="M633.94,215.31c0.67-0.29,1.76,1.14,0.99,1.48C634.27,217.09,633.17,215.65,633.94,215.31z"/>
			<path class="st0" d="M394.13,339.42c0.08-0.04,1.24,1.15,1.24,1.24C395.38,342.41,392.75,340.05,394.13,339.42z"/>
			<path class="st0" d="M224.54,343.87c0.76,0.31,0.01,2.24-0.99,1.98C223.21,345.39,224.39,343.81,224.54,343.87z"/>
			<path class="st0" d="M624.05,233.11c0.25-0.01,1.2,1.17,0.49,1.48C622.91,235.32,623.21,233.14,624.05,233.11z"/>
			<path class="st0" d="M249.75,288.98c1.04,0.06,0.64,1.91-0.99,1.48C248.34,290.11,249.67,288.98,249.75,288.98z"/>
			<path class="st0" d="M204.27,295.41c0.18-0.12,1.45-0.09,1.73,0.25C205.17,297.12,203.14,296.13,204.27,295.41z"/>
			<path class="st0" d="M466.32,323.1c0.54,0.29,0.4,2.44-0.49,1.98C465.01,324.66,466.08,322.97,466.32,323.1z"/>
			<path class="st0" d="M664.6,300.35c0.31,0.03,1.18,1.18,0.49,1.48C664.03,302.31,663.65,300.27,664.6,300.35z"/>
			<path class="st0" d="M186.71,379.96c0.06,0.13,1.79,0.73,0.74,1.98C186.48,381.56,186.8,380.02,186.71,379.96z"/>
			<path class="st0" d="M657.67,290.96c0.99-0.3,0.96,1.43,0.49,1.98C658.04,292.66,657,291.16,657.67,290.96z"/>
			<path class="st0" d="M653.72,278.6c0.87-0.3,0.66,0.63,0.74,0.74C655.76,281.19,652.35,279.07,653.72,278.6z"/>
			<path class="st0" d="M183.5,320.13c0.31,0.03,1.18,1.18,0.49,1.48C182.94,322.08,182.56,320.05,183.5,320.13z"/>
			<path class="st0" d="M660.64,282.06c1.72-0.22,1.19,1.87-0.49,0.99C659.66,282.79,660.53,282.07,660.64,282.06z"/>
			<path class="st0" d="M366.44,276.13c0.99-0.3,0.96,1.43,0.49,1.98C366.82,277.82,365.77,276.33,366.44,276.13z"/>
			<path class="st0" d="M658.17,274.64c0.85-0.38,1.05,1.24,0.49,1.48C657.81,276.51,657.62,274.89,658.17,274.64z"/>
			<path class="st0" d="M661.63,289.48c0.57,0.13,0.73,2.15,0,1.98C661.06,291.32,660.9,289.3,661.63,289.48z"/>
			<path class="st0" d="M631.47,291.95c1.69-0.88,2.21,1.2,0.49,0.99C631.85,292.92,630.98,292.2,631.47,291.95z"/>
			<path class="st0" d="M194.87,374.03c1.72-0.22,1.19,1.87-0.49,0.99C193.89,374.76,194.76,374.04,194.87,374.03z"/>
			<path class="st0" d="M190.42,374.52c0.66-0.27,1.77,1.15,0.99,1.48C190.98,375.39,189.6,375.6,190.42,374.52z"/>
			<path class="st0" d="M450.01,327.55c0.85-0.38,1.05,1.24,0.49,1.48C449.65,329.41,449.45,327.79,450.01,327.55z"/>
			<path class="st0" d="M611.69,293.93c0.07-0.01,1.22,0.67,1.24,0.74C613.29,296.24,609.48,294.15,611.69,293.93z"/>
			<path class="st0" d="M187.95,373.04c1.17,0.14,0.31,2.22-0.49,0.99C187.13,373.53,187.89,373.03,187.95,373.04z"/>
			<path class="st0" d="M206.74,373.53c0.73,0.23-0.19,1.74-0.99,1.48C205.21,374.84,206.65,373.5,206.74,373.53z"/>
			<path class="st0" d="M594.88,227.18c1.27-0.38,0.26,0.98-0.49,1.48C593.74,228.22,594.52,227.29,594.88,227.18z"/>
			<path class="st0" d="M634.43,231.63c1.17,0.14,0.31,2.22-0.49,0.99C633.61,232.12,634.38,231.62,634.43,231.63z"/>
			<path class="st0" d="M649.27,231.63c1.17,0.14,0.31,2.22-0.49,0.99C648.45,232.12,649.21,231.62,649.27,231.63z"/>
			<path class="st0" d="M623.56,238.55c1-0.2,0.97,1.25,0.49,1.48C623.86,240.13,622.81,238.7,623.56,238.55z"/>
			<path class="st0" d="M629.98,261.79c1-0.2,0.97,1.25,0.49,1.48C630.29,263.36,629.23,261.94,629.98,261.79z"/>
			<path class="st0" d="M654.21,286.02c0.78-0.25,1.73,1.27,0.99,1.48C655.11,287.52,653.79,286.36,654.21,286.02z"/>
			<path class="st0" d="M203.77,371.56c1.13-0.29,0.85,1.96,0.49,1.98C204.06,373.02,203.69,372.1,203.77,371.56z"/>
			<path class="st0" d="M213.66,321.62c1.06-0.76,0.6,1.75,0,1.48C213.28,322.93,213.24,321.92,213.66,321.62z"/>
			<path class="st0" d="M210.2,331.5c0.41-0.25,1.27,0.68,1.24,0.74C211.06,333.07,209.09,332.18,210.2,331.5z"/>
			<path class="st0" d="M203.77,342.88c1-0.2,0.97,1.25,0.49,1.48C204.07,344.45,203.02,343.03,203.77,342.88z"/>
			<path class="st0" d="M288.32,360.18c0.32,0.04,1.19,1.22,0.49,1.48C288.42,361.82,286.81,360.02,288.32,360.18z"/>
			<path class="st0" d="M636.41,272.67c0.61-0.42,0.65,1.89,0,1.48C636.04,273.91,635.99,272.96,636.41,272.67z"/>
			<path class="st0" d="M646.3,271.68c0.61-0.42,0.65,1.89,0,1.48C645.92,272.92,645.88,271.97,646.3,271.68z"/>
			<path class="st0" d="M194.38,308.27c0.61-0.42,0.65,1.89,0,1.48C194,309.51,193.95,308.56,194.38,308.27z"/>
			<path class="st0" d="M517.25,315.19c0.75-0.27,1.09,0.73,0.49,0.99C517.02,316.5,516.65,315.4,517.25,315.19z"/>
			<path class="st0" d="M209.7,363.15c0.75-0.27,1.09,0.73,0.49,0.99C209.48,364.46,209.11,363.37,209.7,363.15z"/>
			<path class="st0" d="M351.61,270.69c0.69,0.09-0.17,1.53-0.49,1.48C350.43,272.08,351.29,270.65,351.61,270.69z"/>
			<path class="st0" d="M639.38,275.63c0.75-0.27,1.09,0.73,0.49,0.99C639.15,276.94,638.78,275.85,639.38,275.63z"/>
			<path class="st0" d="M190.42,312.22c0.61-0.42,0.65,1.89,0,1.48C190.04,313.47,190,312.52,190.42,312.22z"/>
			<path class="st0" d="M659.65,287c1.01-0.02,1.73,1.19,0.49,0.99C660.05,287.98,659.15,287.26,659.65,287z"/>
			<path class="st0" d="M471.76,244.48c1.22-0.11,0.28,0.79,0,1.48C471.37,245.66,471.34,244.87,471.76,244.48z"/>
			<path class="st0" d="M628.01,250.42c0.61-0.42,0.65,1.89,0,1.48C627.63,251.66,627.58,250.71,628.01,250.42z"/>
			<path class="st0" d="M646.3,281.07c0.61-0.42,0.65,1.89,0,1.48C645.92,282.32,645.88,281.36,646.3,281.07z"/>
			<path class="st0" d="M489.07,326.56c1.24-0.17,0.53,0.98-0.49,0.99C488.07,327.3,488.98,326.57,489.07,326.56z"/>
			<path class="st0" d="M187.45,297.88c1.24-0.17,0.53,0.98-0.49,0.99C186.46,298.62,187.37,297.89,187.45,297.88z"/>
			<path class="st0" d="M650.26,227.67c0.61-0.42,0.65,1.89,0,1.48C649.88,228.92,649.83,227.96,650.26,227.67z"/>
			<path class="st0" d="M616.14,226.68c0.91-0.18,1.01,0.82,0.49,1.48C616.5,227.76,615.81,227.03,616.14,226.68z"/>
			<path class="st0" d="M210.2,297.39c0.61-0.42,0.65,1.89,0,1.48C209.82,298.63,209.77,297.68,210.2,297.39z"/>
			<path class="st0" d="M470.28,336.94c1.27-0.67,1.43,0.88,0.49,0.99C470.72,337.94,469.77,337.21,470.28,336.94z"/>
			<polygon class="st0" points="191.41,382.43 192.15,382.68 191.41,383.42 191.16,383.17 			"/>
			<polygon class="st0" points="202.29,319.64 202.54,320.38 201.79,320.63 201.55,320.38 			"/>
			<polygon class="st0" points="642.35,234.1 643.09,234.35 642.35,235.09 642.1,234.84 			"/>
			<polygon class="st0" points="630.97,296.89 631.71,297.14 630.97,297.88 630.73,297.64 			"/>
			<polygon class="st0" points="633.45,297.88 633.69,298.62 632.95,298.87 632.7,298.62 			"/>
			<polygon class="st0" points="484.12,325.57 484.86,325.82 484.62,326.56 484.37,326.31 			"/>
			<polygon class="st0" points="617.13,224.7 617.87,224.95 617.13,225.69 616.88,225.45 			"/>
			<polygon class="st0" points="419.35,328.54 419.6,329.28 418.86,329.53 418.61,329.28 			"/>
			<polygon class="st0" points="637.4,292.94 638.14,293.19 637.9,293.93 637.65,293.68 			"/>
			<polygon class="st0" points="414.9,332 415.64,332.25 415.39,332.99 415.15,332.74 			"/>
			<polygon class="st0" points="197.34,369.08 198.09,369.33 197.34,370.07 197.1,369.82 			"/>
			<polygon class="st0" points="649.27,284.53 650.01,284.78 649.76,285.52 649.51,285.27 			"/>
			<polygon class="st0" points="598.83,303.32 599.33,303.82 599.33,304.31 598.83,304.31 			"/>
			<polygon class="st0" points="294.75,281.07 295.49,281.32 294.75,282.06 294.5,281.81 			"/>
			<polygon class="st0" points="211.19,299.86 211.93,300.11 211.68,300.85 211.44,300.6 			"/>
			<polygon class="st0" points="642.84,270.69 643.33,271.18 643.33,271.68 642.84,271.68 			"/>
			<polygon class="st0" points="365.46,268.22 365.95,268.71 365.95,269.2 365.46,269.2 			"/>
			<polygon class="st0" points="426.27,255.85 427.01,256.1 426.77,256.84 426.52,256.6 			"/>
			<path class="st0" d="M209.7,346.34h0.49c0.98-0.08,0.98,0.57,0,0.49L209.7,346.34z"/>
			<polygon class="st0" points="466.82,253.38 467.06,254.12 466.32,254.37 466.07,254.12 			"/>
			<polygon class="st0" points="210.69,353.26 210.94,354 210.2,354.25 209.95,354 			"/>
			<polygon class="st0" points="228.99,353.76 229.73,354 228.99,354.74 228.74,354.5 			"/>
			<polygon class="st0" points="495.99,315.68 496.24,316.42 495.49,316.67 495.25,316.42 			"/>
			<polygon class="st0" points="214.65,356.23 215.14,356.72 215.14,357.22 214.65,357.22 			"/>
			<polygon class="st0" points="212.18,357.22 212.92,357.46 212.18,358.21 211.93,357.96 			"/>
		</g>
	</g>
</g>
<g id="NAPIS_copy_2">
	<g>
		<path class="st1" d="M207.05,307.58l14.4-2.63c7.2-1.32,12.77-1.68,18.25,0.99c4.76,2.32,8.01,6.71,8.94,11.77
			c2.03,11.07-5.01,19.96-19.09,22.54c-0.87,0.16-1.74,0.32-2.62,0.4l3.75,20.49l-13.37,2.45L207.05,307.58z M222.3,315.42
			l2.73,14.95l2.45-0.45c6.8-1.24,9.86-4.66,8.97-9.49c-0.97-5.3-4.98-6.69-12.34-5.34L222.3,315.42z"/>
		<path class="st1" d="M253.79,299.03l14.4-2.63c7.12-1.3,12.74-1.84,18.2,0.76c4.74,2.24,7.97,6.47,8.85,11.3
			c1.29,7.04-1.35,13.16-7.61,17.41l21.48,20.92l-15.27,2.79l-18.97-19.25l-1.9,0.35l4.02,21.99l-12.97,2.37L253.79,299.03z
			 M268.63,306.86l2.84,15.5l2.85-0.52c6.8-1.24,9.84-4.74,8.92-9.81c-1.03-5.62-5.03-6.93-12.38-5.58L268.63,306.86z"/>
		<path class="st1" d="M310.38,295.54c4.3-6.43,10.95-10.75,18.54-12.14s15.34,0.3,21.81,4.84c6.47,4.54,10.68,11.45,12.2,19.76
			c1.27,6.96,0.44,13.57-2.5,19.42c-4.13,8.27-11.74,14-20.6,15.62c-7.51,1.37-15.26-0.31-21.65-4.87
			c-6.58-4.68-10.84-11.42-12.36-19.73C304.3,310.14,305.88,302.25,310.38,295.54z M337.51,330.39c8.23-1.5,13.47-9.9,11.65-19.87
			c-1.84-10.05-9.72-16.04-17.95-14.54s-13.46,9.98-11.64,19.95C321.39,325.82,329.29,331.89,337.51,330.39z"/>
		<path class="st1" d="M373.84,275.19l0.95-0.17l27.79,32.6l13.26-40.11l1.03-0.19l22.28,55.68l-12.74,2.33L417,300.64L407.02,331
			l-0.87,0.16l-21.26-25.05l-0.16,26.84l-11.94,2.18L373.84,275.19z"/>
		<path class="st1" d="M443.26,271.23c4.3-6.43,10.95-10.75,18.54-12.14s15.34,0.3,21.81,4.84s10.68,11.45,12.2,19.76
			c1.27,6.96,0.44,13.57-2.5,19.42c-4.13,8.27-11.74,14-20.6,15.62c-7.52,1.37-15.26-0.31-21.65-4.87
			c-6.58-4.68-10.84-11.42-12.36-19.73C437.18,285.83,438.76,277.94,443.26,271.23z M470.4,306.08c8.23-1.5,13.47-9.9,11.65-19.87
			c-1.84-10.05-9.72-16.04-17.95-14.54c-8.23,1.5-13.46,9.98-11.64,19.95C454.27,301.51,462.17,307.59,470.4,306.08z"/>
		<path class="st1" d="M528.1,259.56c-9.41,1.72-14.82,10.15-12.94,20.43c1.88,10.28,9.72,16.04,19.29,14.29
			c5.69-1.04,10.88-4.44,15.62-10.22l1.85,15.03c-4.15,4.11-9.69,6.92-15.78,8.04c-6.64,1.22-13.2,0.21-18.99-2.82
			c-8.15-4.31-13.71-11.96-15.49-21.69c-1.52-8.31,0.05-16.28,4.41-22.8c4.45-6.54,11.24-10.97,19.23-12.43
			c6.25-1.14,12.26-0.45,18.13,2.16l1.2,14.58C538.99,260.1,533.63,258.54,528.1,259.56z"/>
		<path class="st1" d="M560.99,290.57c5.62-1.03,6.69-4.98,5.26-12.82l-6.35-34.73l13.45-2.46l6.93,37.89
			c2.39,13.05-3.32,21.21-15.73,23.48c-2.45,0.45-4.8,0.55-7.37,0.37l-3.57-12.34C556.68,290.71,559.17,290.91,560.99,290.57z"/>
		<path class="st1" d="M604.58,233.06l0.87-0.16l38.49,52.63l-14,2.56l-5.05-7.5l-22.7,4.15l-2.15,8.81l-13.45,2.46L604.58,233.06z
			 M619.01,271.7l-10.49-16.23l-4.22,18.92L619.01,271.7z"/>
	</g>
</g>
</svg>
