<?xml version="1.0" encoding="utf-8"?>
<!-- Generator: Adobe Illustrator 27.0.0, SVG Export Plug-In . SVG Version: 6.00 Build 0)  -->
<svg version="1.1" id="Warstwa_4" xmlns="http://www.w3.org/2000/svg" xmlns:xlink="http://www.w3.org/1999/xlink" x="0px" y="0px"
	 viewBox="0 0 841.89 595.28" style="enable-background:new 0 0 841.89 595.28;" xml:space="preserve">
<style type="text/css">
	.st0{fill:url(#SVGID_1_);}
	.st1{fill:url(#SVGID_00000064328860204178694980000018388299991938775954_);}
	.st2{fill:url(#SVGID_00000072239234264379012900000018254128387489719688_);}
	.st3{fill:url(#SVGID_00000142173152683080651610000012253268174625957276_);}
	.st4{fill:url(#SVGID_00000178911109271331287510000017661590335392144041_);}
	.st5{fill:url(#SVGID_00000001636539805098679730000018436591037296678333_);}
	.st6{fill:url(#SVGID_00000012440096557480718320000017654277032384764074_);}
	.st7{fill:url(#SVGID_00000018941514365810893480000012098474579264471428_);}
	.st8{fill:url(#SVGID_00000025400883064709074780000011952339761055098783_);}
	.st9{fill:url(#SVGID_00000155836811401689626380000014101916191346861476_);}
	.st10{fill:#BE1823;}
</style>
<g>
	<linearGradient id="SVGID_1_" gradientUnits="userSpaceOnUse" x1="576.3195" y1="169.4242" x2="264.3496" y2="427.0027">
		<stop  offset="0" style="stop-color:#BE1825"/>
		<stop  offset="1" style="stop-color:#BE1825"/>
	</linearGradient>
	<path class="st0" d="M404.82,86.46c-151.42,9.66-243.39,179.51-170.02,313.19c71.25,129.82,250.43,148.76,347.04,35.79
		C704.61,291.88,590.79,74.59,404.82,86.46z M568.05,427.22c-88.08,100.13-246.93,85.28-315.55-28.5
		c-76.64-127.09,14.32-292.33,161.6-296.44C583.7,97.54,681.43,298.33,568.05,427.22z"/>
	
		<linearGradient id="SVGID_00000034809848329836879110000015181960739636171661_" gradientUnits="userSpaceOnUse" x1="609.1896" y1="142.4737" x2="232.9735" y2="453.097">
		<stop  offset="0" style="stop-color:#BE1825"/>
		<stop  offset="1" style="stop-color:#BE1825"/>
	</linearGradient>
	<path style="fill:url(#SVGID_00000034809848329836879110000015181960739636171661_);" d="M676.78,299.27
		c0-1.18-9.53-17.12-10.89-21.01c-6.99-20.01-5.09-38.12,0-58.36c-21.76-16.91-32.99-40.14-34.24-67.7
		c-30.74-12.23-48.89-36.88-64.19-64.97c-23.27-2.17-48.77-4.28-69.25-16.34c-5.41-3.19-23.45-19.03-28.01-19.45
		c-4.86-0.45-26.67,6.25-34.24,7c-7.33,0.73-16.01,1.24-23.34,0.78c-9.34-0.59-36.06-8.59-42.02-7.78
		c-4.31,0.59-21.99,16.32-27.23,19.45c-20.77,12.39-45.65,14.1-69.25,16.34c-15.93,28.47-33.79,52.96-64.97,65.75
		c-0.29,27.05-12.34,50.5-33.46,66.92c8.45,28.7,5.22,55.04-10.89,80.15c10.19,16.2,17.14,33.35,15.56,52.91
		c-0.28,3.52-4.88,19.2-4.67,20.23c0.22,1.11,13.29,13.29,15.56,16.34c11.18,15.03,17.02,33.45,17.9,52.13
		c30.64,13.41,49.02,37.66,64.19,66.53c23.99,2.94,48.79,4.62,70.03,17.12c5.17,3.04,23.27,18.79,27.23,19.45
		c4.36,0.73,27.95-6.26,35.02-7c7.75-0.81,17.16-1.32,24.9-0.78c8.72,0.61,35.06,8.58,40.46,7.78c3.75-0.55,22.73-17.18,28.01-20.23
		c21.03-12.14,45.66-13.24,69.25-16.34c10.34-18.86,22.82-40.05,40.46-52.91c3.57-2.6,22.31-11.69,22.95-12.84
		c1.46-2.62,1.92-16.49,3.11-21.01c3.13-11.81,8.8-23.77,16.34-33.46c2.14-2.75,14.58-13.76,14.78-14.78
		c0.25-1.22-4.37-16.05-4.67-19.45c-1.16-13.16,1.47-25.2,6.22-37.35C668.6,313.41,676.78,300.44,676.78,299.27z M585.74,442.45
		c-98.61,112.1-276.44,95.48-353.26-31.9C146.67,268.27,248.5,83.28,413.38,78.68C603.26,73.37,712.67,298.15,585.74,442.45z"/>
</g>
<g id="NAPIS">
	<g>
		
			<linearGradient id="SVGID_00000101791806388654294200000016039437302272635809_" gradientUnits="userSpaceOnUse" x1="249.5" y1="297.3027" x2="281.0913" y2="297.3027">
			<stop  offset="0" style="stop-color:#BE1825"/>
			<stop  offset="1" style="stop-color:#BE1825"/>
		</linearGradient>
		<path style="fill:url(#SVGID_00000101791806388654294200000016039437302272635809_);" d="M249.5,274.29h11.83
			c5.92,0,10.4,0.52,14.37,3.45c3.45,2.54,5.4,6.5,5.4,10.66c0,9.1-6.89,15.15-18.46,15.15c-0.71,0-1.43,0-2.15-0.06v16.83H249.5
			V274.29z M260.49,282.74v12.29h2.02c5.59,0,8.52-2.27,8.52-6.24c0-4.35-2.99-6.04-9.04-6.04H260.49z"/>
		
			<linearGradient id="SVGID_00000140728058576428865680000017180755158791857033_" gradientUnits="userSpaceOnUse" x1="287.9141" y1="297.3027" x2="324.9653" y2="297.3027">
			<stop  offset="0" style="stop-color:#BE1825"/>
			<stop  offset="1" style="stop-color:#BE1825"/>
		</linearGradient>
		<path style="fill:url(#SVGID_00000140728058576428865680000017180755158791857033_);" d="M287.91,274.29h11.83
			c5.85,0,10.4,0.39,14.37,3.25c3.45,2.47,5.4,6.31,5.4,10.27c0,5.79-2.99,10.27-8.58,12.74l14.04,19.76h-12.55l-12.29-18.07h-1.56
			v18.07h-10.66V274.29z M298.57,282.68v12.74h2.34c5.59,0,8.52-2.34,8.52-6.5c0-4.62-2.99-6.24-9.04-6.24H298.57z"/>
		
			<linearGradient id="SVGID_00000101086095566833184260000010127084461960375438_" gradientUnits="userSpaceOnUse" x1="326.459" y1="297.303" x2="373.3906" y2="297.303">
			<stop  offset="0" style="stop-color:#BE1825"/>
			<stop  offset="1" style="stop-color:#BE1825"/>
		</linearGradient>
		<path style="fill:url(#SVGID_00000101086095566833184260000010127084461960375438_);" d="M333.41,279.75
			c4.35-4.49,10.27-6.96,16.51-6.96s12.16,2.47,16.64,7.02c4.48,4.55,6.83,10.66,6.83,17.49c0,5.72-1.62,10.85-4.81,15.08
			c-4.49,5.98-11.38,9.42-18.66,9.42c-6.18,0-12.09-2.47-16.51-7.02c-4.55-4.68-6.96-10.66-6.96-17.48
			C326.46,290.48,328.86,284.43,333.41,279.75z M349.92,311.41c6.76,0,12.16-5.92,12.16-14.1c0-8.26-5.4-14.17-12.16-14.17
			s-12.16,5.98-12.16,14.17C337.77,305.43,343.16,311.41,349.92,311.41z"/>
		
			<linearGradient id="SVGID_00000021080876734048018050000008836409155674858136_" gradientUnits="userSpaceOnUse" x1="377.2881" y1="297.4006" x2="431.8252" y2="297.4006">
			<stop  offset="0" style="stop-color:#BE1825"/>
			<stop  offset="1" style="stop-color:#BE1825"/>
		</linearGradient>
		<path style="fill:url(#SVGID_00000021080876734048018050000008836409155674858136_);" d="M386.84,272.8h0.78l17.36,29.97
			l16.38-29.97h0.85l9.62,47.52h-10.47l-3.9-21L405.11,322h-0.71l-13.26-23.01l-4.03,21.32h-9.81L386.84,272.8z"/>
		
			<linearGradient id="SVGID_00000081624628377873406980000006562714767873702834_" gradientUnits="userSpaceOnUse" x1="435.6582" y1="297.303" x2="482.5898" y2="297.303">
			<stop  offset="0" style="stop-color:#BE1825"/>
			<stop  offset="1" style="stop-color:#BE1825"/>
		</linearGradient>
		<path style="fill:url(#SVGID_00000081624628377873406980000006562714767873702834_);" d="M442.61,279.75
			c4.36-4.49,10.27-6.96,16.51-6.96s12.16,2.47,16.64,7.02s6.83,10.66,6.83,17.49c0,5.72-1.62,10.85-4.81,15.08
			c-4.48,5.98-11.38,9.42-18.66,9.42c-6.18,0-12.09-2.47-16.51-7.02c-4.55-4.68-6.96-10.66-6.96-17.48
			C435.66,290.48,438.06,284.43,442.61,279.75z M459.12,311.41c6.76,0,12.16-5.92,12.16-14.1c0-8.26-5.4-14.17-12.16-14.17
			c-6.76,0-12.16,5.98-12.16,14.17C446.97,305.43,452.36,311.41,459.12,311.41z"/>
		
			<linearGradient id="SVGID_00000171708029892773503410000007322907259580252589_" gradientUnits="userSpaceOnUse" x1="487.3975" y1="297.2705" x2="525.6836" y2="297.2705">
			<stop  offset="0" style="stop-color:#BE1825"/>
			<stop  offset="1" style="stop-color:#BE1825"/>
		</linearGradient>
		<path style="fill:url(#SVGID_00000171708029892773503410000007322907259580252589_);" d="M511.77,282.81
			c-7.74,0-13.26,5.92-13.26,14.37s5.4,14.17,13.26,14.17c4.68,0,9.29-1.95,13.91-5.85l-0.71,12.22c-3.9,2.67-8.71,4.09-13.72,4.09
			c-5.46,0-10.53-1.75-14.69-5c-5.85-4.62-9.17-11.51-9.17-19.5c0-6.83,2.41-12.94,6.83-17.49c4.49-4.55,10.53-7.08,17.1-7.08
			c5.13,0,9.82,1.43,14.11,4.35l-1.17,11.77C520.35,284.82,516.32,282.81,511.77,282.81z"/>
		
			<linearGradient id="SVGID_00000173869469283609898030000016448068935798721940_" gradientUnits="userSpaceOnUse" x1="527.6328" y1="298.0503" x2="550.5137" y2="298.0503">
			<stop  offset="0" style="stop-color:#BE1825"/>
			<stop  offset="1" style="stop-color:#BE1825"/>
		</linearGradient>
		<path style="fill:url(#SVGID_00000173869469283609898030000016448068935798721940_);" d="M533.42,312.25
			c4.62,0,6.04-2.99,6.04-9.43v-28.54h11.05v31.14c0,10.73-5.72,16.38-15.93,16.38c-2.02,0-3.9-0.26-5.92-0.78l-1.04-10.33
			C529.97,311.73,531.92,312.25,533.42,312.25z"/>
		
			<linearGradient id="SVGID_00000041295042045775819310000009966262056676603808_" gradientUnits="userSpaceOnUse" x1="552.9814" y1="296.5879" x2="600.1084" y2="296.5879">
			<stop  offset="0" style="stop-color:#BE1825"/>
			<stop  offset="1" style="stop-color:#BE1825"/>
		</linearGradient>
		<path style="fill:url(#SVGID_00000041295042045775819310000009966262056676603808_);" d="M576.45,272.86h0.71l22.95,47.45H588.6
			l-2.92-6.7h-18.66l-2.99,6.7h-11.05L576.45,272.86z M582.3,305.69l-5.98-14.43l-6.11,14.43H582.3z"/>
	</g>
	<g>
		<path class="st10" d="M306.55,186.19L318.41,203c2.57-0.11,20.89-2.99,21.51-1.24c-1.92,2.5-3.91,5-5.93,7.42
			c-1.01,1.21-1.62-0.46-2.47,0.99c-0.3,0.51,0.84,1.04,0.49,1.48c-0.77,0.97-4.82,4.46-4.94,4.94c-0.99,3.69,7.77,16.12,8.41,20.77
			l-1.24,0.74c-3.84-1.03-16.06-8-19.28-7.42c-1.98,0.36-15.24,14.49-16.32,14.34c-1.17-1.16-0.83-3.69-0.74-5.19
			c0.07-1.24,1.47-4.22,1.48-4.45c0.07-1.21,0.17-11.3,0-11.87c-0.74-2.56-18.03-10.33-17.31-12.36c3.12-2.28,17.4-2.98,19.28-4.94
			C302.84,204.66,305.04,186.78,306.55,186.19z"/>
		<g>
			<path class="st10" d="M290.72,210.91c1,0.33,1.28,4.27-0.99,3.46C287.77,213.68,290.52,210.85,290.72,210.91z"/>
			<path class="st10" d="M329.29,229.7c1.55-0.07,0.94,0.37,1.73,1.24C326.85,234.05,326.97,229.82,329.29,229.7z"/>
			<path class="st10" d="M325.83,212.4c2.16-0.57,2.49,1.86,1.48,2.47c-0.56,0.34-0.2-2.39-2.23-1.73
				C325.35,212.97,325.63,212.45,325.83,212.4z"/>
			<path class="st10" d="M295.67,210.42c0.11-0.05,2.4,0.07,2.23,0.74C297.87,212.21,293.29,211.6,295.67,210.42z"/>
			<polygon class="st10" points="302.1,224.76 302.59,227.73 301.35,225.5 			"/>
			<path class="st10" d="M302.1,218.83c1.94-0.39,0.62,1.97-0.49,1.48C300.92,220.01,301.75,218.9,302.1,218.83z"/>
			<path class="st10" d="M299.62,240.09c0.67-0.29,1.76,1.14,0.99,1.48C299.95,241.87,298.85,240.42,299.62,240.09z"/>
			<path class="st10" d="M313.47,207.45c1.68,0.13,0.05,2.11-0.49,0.99C312.71,207.9,313.4,207.45,313.47,207.45z"/>
			<path class="st10" d="M316.43,221.3c0.11-0.05,1.49,0.79,2.23,0.74C318.62,222.84,314.73,222.03,316.43,221.3z"/>
			<path class="st10" d="M298.63,215.86c1.12-0.33,0.44,1.48-0.49,1.48C297.5,216.9,298.27,215.97,298.63,215.86z"/>
			<path class="st10" d="M322.86,211.41c0.19-0.09,1.24,1.33,0.49,1.48C322.36,213.09,322.38,211.64,322.86,211.41z"/>
			<path class="st10" d="M312.48,217.34c1.06-0.76,0.6,1.75,0,1.48C312.1,218.66,312.06,217.64,312.48,217.34z"/>
			<path class="st10" d="M320.88,226.24c0.51,0.16,0.42,1.84-0.49,1.48C319.64,227.43,320.71,226.19,320.88,226.24z"/>
			<path class="st10" d="M309.51,194.6c0.51,0.16,0.42,1.84-0.49,1.48C308.27,195.79,309.34,194.54,309.51,194.6z"/>
			<path class="st10" d="M328.8,210.42c1.17,0.14,0.31,2.22-0.49,0.99C327.98,210.91,328.74,210.41,328.8,210.42z"/>
			<path class="st10" d="M307.53,202.01c0.61,0.91,0.19,2.04-0.49,0.99C306.69,202.47,307.23,202.41,307.53,202.01z"/>
			<path class="st10" d="M311,197.07c0.61-0.42,0.65,1.89,0,1.48C310.62,198.32,310.57,197.36,311,197.07z"/>
			<path class="st10" d="M303.08,234.15c0.61,0.91,0.19,2.04-0.49,0.99C302.24,234.61,302.78,234.55,303.08,234.15z"/>
			<path class="st10" d="M323.36,230.2c0.13,0.41,0.82,1.14,0.49,1.48C322.94,231.86,322.84,230.86,323.36,230.2z"/>
			<path class="st10" d="M308.52,229.21c0.61,0.91,0.19,2.04-0.49,0.99C307.68,229.66,308.22,229.6,308.52,229.21z"/>
			<path class="st10" d="M326.82,222.78c0.38,0,0.38,1.98,0,1.98C326.44,224.76,326.44,222.78,326.82,222.78z"/>
			<path class="st10" d="M325.33,219.32c0.61,0.91,0.19,2.04-0.49,0.99C324.49,219.77,325.03,219.71,325.33,219.32z"/>
			<path class="st10" d="M316.43,217.84c0.38,0,0.38,1.98,0,1.98C316.05,219.81,316.06,217.83,316.43,217.84z"/>
			<path class="st10" d="M311,211.41c0.75-0.27,1.09,0.73,0.49,0.99C310.77,212.72,310.4,211.62,311,211.41z"/>
			<path class="st10" d="M309.51,200.53c0.24-0.01,0.33,0.43,0.25,0.74C309.48,203.11,308.88,200.57,309.51,200.53z"/>
			<polygon class="st10" points="326.82,228.71 327.07,229.46 326.32,229.7 326.08,229.46 			"/>
			<polygon class="st10" points="316.93,226.74 317.67,226.98 316.93,227.73 316.68,227.48 			"/>
			<polygon class="st10" points="296.16,215.36 296.9,215.61 296.66,216.35 296.41,216.11 			"/>
			<polygon class="st10" points="329.29,207.45 330.03,207.7 329.78,208.44 329.54,208.2 			"/>
			<polygon class="st10" points="314.46,202.01 314.95,202.51 314.95,203 314.46,203 			"/>
		</g>
	</g>
	<g>
		<path class="st10" d="M539.92,186.69l-11.87,16.81c-2.57-0.11-20.89-2.99-21.51-1.24c1.92,2.5,3.91,5,5.93,7.42
			c1.01,1.21,1.62-0.46,2.47,0.99c0.3,0.51-0.84,1.04-0.49,1.48c0.77,0.97,4.82,4.46,4.94,4.94c0.99,3.69-7.77,16.12-8.41,20.77
			l1.24,0.74c3.84-1.03,16.06-8,19.28-7.42c1.98,0.36,15.24,14.49,16.32,14.34c1.17-1.16,0.83-3.69,0.74-5.19
			c-0.07-1.24-1.47-4.22-1.48-4.45c-0.07-1.21-0.17-11.3,0-11.87c0.74-2.56,18.03-10.33,17.31-12.36
			c-3.12-2.28-17.4-2.98-19.28-4.94C543.62,205.16,541.42,187.28,539.92,186.69z"/>
		<g>
			<path class="st10" d="M555.74,211.41c-1,0.33-1.28,4.27,0.99,3.46C558.69,214.17,555.94,211.34,555.74,211.41z"/>
			<path class="st10" d="M517.17,230.2c-1.55-0.07-0.94,0.37-1.73,1.24C519.61,234.54,519.5,230.31,517.17,230.2z"/>
			<path class="st10" d="M520.63,212.89c-2.16-0.57-2.49,1.86-1.48,2.47c0.56,0.34,0.2-2.39,2.22-1.73
				C521.11,213.47,520.83,212.94,520.63,212.89z"/>
			<path class="st10" d="M550.79,210.91c-0.1-0.05-2.4,0.07-2.22,0.74C548.6,212.71,553.17,212.1,550.79,210.91z"/>
			<polygon class="st10" points="544.37,225.25 543.87,228.22 545.11,226 			"/>
			<path class="st10" d="M544.37,219.32c-1.94-0.39-0.62,1.97,0.49,1.48C545.54,220.5,544.71,219.39,544.37,219.32z"/>
			<path class="st10" d="M546.84,240.58c-0.67-0.29-1.76,1.14-0.99,1.48C546.51,242.36,547.61,240.92,546.84,240.58z"/>
			<path class="st10" d="M532.99,207.95c-1.68,0.13-0.05,2.11,0.49,0.99C533.75,208.39,533.06,207.94,532.99,207.95z"/>
			<path class="st10" d="M530.03,221.79c-0.11-0.05-1.49,0.79-2.23,0.74C527.84,223.33,531.74,222.53,530.03,221.79z"/>
			<path class="st10" d="M547.83,216.35c-1.12-0.33-0.44,1.48,0.49,1.48C548.96,217.4,548.19,216.46,547.83,216.35z"/>
			<path class="st10" d="M523.6,211.9c-0.19-0.09-1.24,1.33-0.49,1.48C524.1,213.59,524.08,212.13,523.6,211.9z"/>
			<path class="st10" d="M533.98,217.84c-1.06-0.76-0.6,1.75,0,1.48C534.36,219.15,534.4,218.14,533.98,217.84z"/>
			<path class="st10" d="M525.58,226.74c-0.51,0.16-0.42,1.84,0.49,1.48C526.82,227.93,525.75,226.68,525.58,226.74z"/>
			<path class="st10" d="M536.95,195.09c-0.51,0.16-0.42,1.84,0.49,1.48C538.19,196.28,537.12,195.04,536.95,195.09z"/>
			<path class="st10" d="M517.67,210.91c-1.17,0.14-0.31,2.22,0.49,0.99C518.49,211.41,517.72,210.91,517.67,210.91z"/>
			<path class="st10" d="M538.93,202.51c-0.61,0.91-0.19,2.04,0.49,0.99C539.77,202.96,539.23,202.9,538.93,202.51z"/>
			<path class="st10" d="M535.47,197.56c-0.61-0.42-0.65,1.89,0,1.48C535.84,198.81,535.89,197.86,535.47,197.56z"/>
			<path class="st10" d="M543.38,234.65c-0.61,0.91-0.19,2.04,0.49,0.99C544.22,235.1,543.68,235.04,543.38,234.65z"/>
			<path class="st10" d="M523.1,230.69c-0.13,0.41-0.82,1.14-0.49,1.48C523.52,232.36,523.62,231.36,523.1,230.69z"/>
			<path class="st10" d="M537.94,229.7c-0.61,0.91-0.19,2.04,0.49,0.99C538.78,230.16,538.24,230.1,537.94,229.7z"/>
			<path class="st10" d="M519.64,223.28c-0.38,0-0.38,1.98,0,1.98C520.03,225.25,520.02,223.27,519.64,223.28z"/>
			<path class="st10" d="M521.13,219.81c-0.61,0.91-0.19,2.04,0.49,0.99C521.97,220.27,521.43,220.21,521.13,219.81z"/>
			<path class="st10" d="M530.03,218.33c-0.38,0-0.38,1.98,0,1.98C530.41,220.31,530.41,218.33,530.03,218.33z"/>
			<path class="st10" d="M535.47,211.9c-0.75-0.27-1.09,0.73-0.49,0.99C535.7,213.21,536.06,212.12,535.47,211.9z"/>
			<path class="st10" d="M536.95,201.03c-0.24-0.01-0.33,0.43-0.25,0.74C536.98,203.61,537.58,201.06,536.95,201.03z"/>
			<polygon class="st10" points="519.64,229.21 519.4,229.95 520.14,230.2 520.39,229.95 			"/>
			<polygon class="st10" points="529.53,227.23 528.79,227.48 529.53,228.22 529.78,227.97 			"/>
			<polygon class="st10" points="550.3,215.86 549.56,216.11 549.8,216.85 550.05,216.6 			"/>
			<polygon class="st10" points="517.17,207.95 516.43,208.2 516.68,208.94 516.92,208.69 			"/>
			<polygon class="st10" points="532,202.51 531.51,203 531.51,203.5 532,203.5 			"/>
		</g>
	</g>
	<g>
		<path class="st10" d="M421.09,131.72l13.71,32.57c4.35,0.76,36.13,2.69,36.53,5.85c-4.14,3.49-8.41,6.94-12.68,10.25
			c-2.14,1.66-2.55-1.36-4.51,0.75c-0.69,0.74,1.03,2.06,0.28,2.67c-1.65,1.34-9.72,5.71-10.12,6.47
			c-3.02,5.82,7.09,29.9,6.45,37.93l-2.35,0.79c-6.06-3.14-23.98-19.33-29.61-19.55c-3.45-0.13-30.9,18.69-32.65,18.04
			c-1.54-2.37-0.03-6.49,0.67-8.98c0.58-2.05,4.02-6.53,4.13-6.92c0.55-2,4.44-18.89,4.37-19.9c-0.3-4.56-26.43-23.96-24.47-27.11
			c6.08-2.67,30.28,1.42,34.17-1.19C408.07,161.34,418.35,132.16,421.09,131.72z"/>
		<g>
			<path class="st10" d="M385.44,167.36c1.55,0.92,0.57,7.63-2.93,5.44C379.47,170.9,385.12,167.17,385.44,167.36z"/>
			<path class="st10" d="M443.2,213.09c2.63,0.45,1.44,0.97,2.45,2.71C437.51,219.47,439.26,212.42,443.2,213.09z"/>
			<path class="st10" d="M443.78,182.78c3.82-0.16,3.49,4.03,1.58,4.69c-1.06,0.36,0.54-4.09-3.09-3.72
				C442.77,183.57,443.42,182.8,443.78,182.78z"/>
			<path class="st10" d="M393.92,168.35c0.2-0.05,4,1,3.46,2.06C396.94,172.17,389.49,169.46,393.92,168.35z"/>
			<polygon class="st10" points="399.41,194.77 399.15,199.93 397.9,195.74 			"/>
			<path class="st10" d="M401.6,184.82c3.4,0.05,0.31,3.54-1.38,2.31C399.19,186.37,401,184.81,401.6,184.82z"/>
			<path class="st10" d="M389.62,219.57c1.22-0.24,2.53,2.55,1.11,2.85C389.51,222.68,388.2,219.85,389.62,219.57z"/>
			<path class="st10" d="M424.86,169.94c2.77,0.84-0.69,3.56-1.19,1.48C423.43,170.4,424.75,169.9,424.86,169.94z"/>
			<path class="st10" d="M424.74,194.25c0.2-0.04,2.21,1.88,3.46,2.06C427.84,197.64,421.6,194.86,424.74,194.25z"/>
			<path class="st10" d="M396.89,178.57c2-0.15,0.2,2.64-1.38,2.31C394.6,179.9,396.24,178.62,396.89,178.57z"/>
			<path class="st10" d="M439.16,180.03c0.36-0.08,1.6,2.7,0.28,2.67C437.7,182.67,438.27,180.24,439.16,180.03z"/>
			<path class="st10" d="M419.56,186.16c2.06-0.89,0.37,3.15-0.55,2.49C418.44,188.23,418.75,186.51,419.56,186.16z"/>
			<path class="st10" d="M430.38,204.18c0.79,0.45,0.03,3.24-1.38,2.31C427.85,205.72,430.11,204.03,430.38,204.18z"/>
			<path class="st10" d="M422.97,146.92c0.79,0.45,0.03,3.24-1.38,2.31C420.44,148.45,422.7,146.76,422.97,146.92z"/>
			<path class="st10" d="M449.48,180.56c1.91,0.67-0.3,3.83-1.19,1.48C447.92,181.08,449.39,180.53,449.48,180.56z"/>
			<path class="st10" d="M416.92,158.63c0.69,1.75-0.43,3.5-1.19,1.48C415.33,159.07,416.26,159.17,416.92,158.63z"/>
			<path class="st10" d="M424.54,151.61c1.18-0.48,0.39,3.42-0.55,2.49C423.45,153.56,423.72,151.94,424.54,151.61z"/>
			<path class="st10" d="M397.61,210.89c0.69,1.75-0.43,3.5-1.19,1.48C396.03,211.34,396.96,211.44,397.61,210.89z"/>
			<path class="st10" d="M433.07,211.73c0.07,0.73,0.96,2.21,0.28,2.67C431.76,214.37,431.96,212.65,433.07,211.73z"/>
			<path class="st10" d="M408.55,204.6c0.69,1.75-0.43,3.5-1.19,1.48C406.97,205.05,407.9,205.15,408.55,204.6z"/>
			<path class="st10" d="M441.61,200.56c0.64,0.15-0.1,3.46-0.73,3.32C440.24,203.74,440.97,200.42,441.61,200.56z"/>
			<path class="st10" d="M440.4,194.21c0.69,1.75-0.43,3.5-1.19,1.48C438.81,194.66,439.74,194.76,440.4,194.21z"/>
			<path class="st10" d="M426.01,188.44c0.64,0.15-0.1,3.46-0.73,3.32C424.65,191.62,425.38,188.3,426.01,188.44z"/>
			<path class="st10" d="M419.26,175.66c1.36-0.18,1.56,1.62,0.46,1.84C418.39,177.77,418.18,175.8,419.26,175.66z"/>
			<path class="st10" d="M420.78,156.87c0.41,0.07,0.4,0.85,0.14,1.34C419.77,161.18,419.71,156.69,420.78,156.87z"/>
			<polygon class="st10" points="439.42,210.52 439.56,211.85 438.23,211.99 437.9,211.49 			"/>
			<polygon class="st10" points="423.56,203.55 424.72,204.24 423.2,205.21 422.88,204.71 			"/>
			<polygon class="st10" points="392.92,176.83 394.08,177.52 393.39,178.67 393.06,178.16 			"/>
			<polygon class="st10" points="451.4,175.77 452.56,176.45 451.87,177.61 451.54,177.1 			"/>
			<polygon class="st10" points="428.53,161.18 429.17,162.19 428.99,163.02 428.16,162.84 			"/>
		</g>
	</g>
	<g>
		<path class="st10" d="M306.55,408.54l11.87-16.81c2.57,0.11,20.89,2.99,21.51,1.24c-1.92-2.5-3.91-5-5.93-7.42
			c-1.01-1.21-1.62,0.46-2.47-0.99c-0.3-0.51,0.84-1.04,0.49-1.48c-0.77-0.97-4.82-4.46-4.94-4.94c-0.99-3.69,7.77-16.12,8.41-20.77
			l-1.24-0.74c-3.84,1.03-16.06,8-19.28,7.42c-1.98-0.36-15.24-14.49-16.32-14.34c-1.17,1.16-0.83,3.69-0.74,5.19
			c0.07,1.24,1.47,4.22,1.48,4.45c0.07,1.21,0.17,11.3,0,11.87c-0.74,2.56-18.03,10.33-17.31,12.36c3.12,2.28,17.4,2.98,19.28,4.94
			C302.84,390.07,305.04,407.95,306.55,408.54z"/>
		<g>
			<path class="st10" d="M290.72,383.82c1-0.33,1.28-4.27-0.99-3.46C287.77,381.06,290.52,383.89,290.72,383.82z"/>
			<path class="st10" d="M329.29,365.03c1.55,0.07,0.94-0.37,1.73-1.24C326.85,360.69,326.97,364.92,329.29,365.03z"/>
			<path class="st10" d="M325.83,382.34c2.16,0.57,2.49-1.86,1.48-2.47c-0.56-0.34-0.2,2.39-2.23,1.73
				C325.35,381.77,325.63,382.29,325.83,382.34z"/>
			<path class="st10" d="M295.67,384.32c0.11,0.05,2.4-0.07,2.23-0.74C297.87,382.52,293.29,383.13,295.67,384.32z"/>
			<polygon class="st10" points="302.1,369.98 302.59,367.01 301.35,369.24 			"/>
			<path class="st10" d="M302.1,375.91c1.94,0.39,0.62-1.97-0.49-1.48C300.92,374.73,301.75,375.84,302.1,375.91z"/>
			<path class="st10" d="M299.62,354.65c0.67,0.29,1.76-1.14,0.99-1.48C299.95,352.87,298.85,354.31,299.62,354.65z"/>
			<path class="st10" d="M313.47,387.28c1.68-0.13,0.05-2.11-0.49-0.99C312.71,386.84,313.4,387.29,313.47,387.28z"/>
			<path class="st10" d="M316.43,373.44c0.11,0.05,1.49-0.79,2.23-0.74C318.62,371.9,314.73,372.7,316.43,373.44z"/>
			<path class="st10" d="M298.63,378.88c1.12,0.33,0.44-1.48-0.49-1.48C297.5,377.83,298.27,378.77,298.63,378.88z"/>
			<path class="st10" d="M322.86,383.33c0.19,0.09,1.24-1.33,0.49-1.48C322.36,381.64,322.38,383.1,322.86,383.33z"/>
			<path class="st10" d="M312.48,377.39c1.06,0.76,0.6-1.75,0-1.48C312.1,376.08,312.06,377.09,312.48,377.39z"/>
			<path class="st10" d="M320.88,368.49c0.51-0.16,0.42-1.84-0.49-1.48C319.64,367.3,320.71,368.55,320.88,368.49z"/>
			<path class="st10" d="M309.51,400.14c0.51-0.16,0.42-1.84-0.49-1.48C308.27,398.95,309.34,400.19,309.51,400.14z"/>
			<path class="st10" d="M328.8,384.32c1.17-0.14,0.31-2.22-0.49-0.99C327.98,383.82,328.74,384.32,328.8,384.32z"/>
			<path class="st10" d="M307.53,392.72c0.61-0.91,0.19-2.04-0.49-0.99C306.69,392.27,307.23,392.33,307.53,392.72z"/>
			<path class="st10" d="M311,397.67c0.61,0.42,0.65-1.89,0-1.48C310.62,396.42,310.57,397.37,311,397.67z"/>
			<path class="st10" d="M303.08,360.58c0.61-0.91,0.19-2.04-0.49-0.99C302.24,360.13,302.78,360.19,303.08,360.58z"/>
			<path class="st10" d="M323.36,364.54c0.13-0.41,0.82-1.14,0.49-1.48C322.94,362.87,322.84,363.88,323.36,364.54z"/>
			<path class="st10" d="M308.52,365.53c0.61-0.91,0.19-2.04-0.49-0.99C307.68,365.07,308.22,365.14,308.52,365.53z"/>
			<path class="st10" d="M326.82,371.95c0.38,0,0.38-1.98,0-1.98C326.44,369.98,326.44,371.96,326.82,371.95z"/>
			<path class="st10" d="M325.33,375.42c0.61-0.91,0.19-2.04-0.49-0.99C324.49,374.96,325.03,375.02,325.33,375.42z"/>
			<path class="st10" d="M316.43,376.9c0.38,0,0.38-1.98,0-1.98C316.05,374.92,316.06,376.9,316.43,376.9z"/>
			<path class="st10" d="M311,383.33c0.75,0.27,1.09-0.73,0.49-0.99C310.77,382.02,310.4,383.11,311,383.33z"/>
			<path class="st10" d="M309.51,394.2c0.24,0.01,0.33-0.43,0.25-0.74C309.48,391.62,308.88,394.17,309.51,394.2z"/>
			<polygon class="st10" points="326.82,366.02 327.07,365.28 326.32,365.03 326.08,365.28 			"/>
			<polygon class="st10" points="316.93,368 317.67,367.75 316.93,367.01 316.68,367.26 			"/>
			<polygon class="st10" points="296.16,379.37 296.9,379.12 296.66,378.38 296.41,378.63 			"/>
			<polygon class="st10" points="329.29,387.28 330.03,387.04 329.78,386.29 329.54,386.54 			"/>
			<polygon class="st10" points="314.46,392.72 314.95,392.23 314.95,391.73 314.46,391.73 			"/>
		</g>
	</g>
	<g>
		<path class="st10" d="M539.92,408.05l-11.87-16.81c-2.57,0.11-20.89,2.99-21.51,1.24c1.92-2.5,3.91-5,5.93-7.42
			c1.01-1.21,1.62,0.46,2.47-0.99c0.3-0.51-0.84-1.04-0.49-1.48c0.77-0.97,4.82-4.46,4.94-4.94c0.99-3.69-7.77-16.12-8.41-20.77
			l1.24-0.74c3.84,1.03,16.06,8,19.28,7.42c1.98-0.36,15.24-14.49,16.32-14.34c1.17,1.16,0.83,3.69,0.74,5.19
			c-0.07,1.24-1.47,4.22-1.48,4.45c-0.07,1.21-0.17,11.3,0,11.87c0.74,2.56,18.03,10.33,17.31,12.36
			c-3.12,2.28-17.4,2.98-19.28,4.94C543.62,389.58,541.42,407.46,539.92,408.05z"/>
		<g>
			<path class="st10" d="M555.74,383.33c-1-0.33-1.28-4.27,0.99-3.46C558.69,380.57,555.94,383.39,555.74,383.33z"/>
			<path class="st10" d="M517.17,364.54c-1.55,0.07-0.94-0.37-1.73-1.24C519.61,360.2,519.5,364.43,517.17,364.54z"/>
			<path class="st10" d="M520.63,381.84c-2.16,0.57-2.49-1.86-1.48-2.47c0.56-0.34,0.2,2.39,2.22,1.73
				C521.11,381.27,520.83,381.79,520.63,381.84z"/>
			<path class="st10" d="M550.79,383.82c-0.1,0.05-2.4-0.07-2.22-0.74C548.6,382.03,553.17,382.64,550.79,383.82z"/>
			<polygon class="st10" points="544.37,369.48 543.87,366.52 545.11,368.74 			"/>
			<path class="st10" d="M544.37,375.42c-1.94,0.39-0.62-1.97,0.49-1.48C545.54,374.23,544.71,375.35,544.37,375.42z"/>
			<path class="st10" d="M546.84,354.15c-0.67,0.29-1.76-1.14-0.99-1.48C546.51,352.37,547.61,353.82,546.84,354.15z"/>
			<path class="st10" d="M532.99,386.79c-1.68-0.13-0.05-2.11,0.49-0.99C533.75,386.34,533.06,386.79,532.99,386.79z"/>
			<path class="st10" d="M530.03,372.94c-0.11,0.05-1.49-0.79-2.23-0.74C527.84,371.4,531.74,372.21,530.03,372.94z"/>
			<path class="st10" d="M547.83,378.38c-1.12,0.33-0.44-1.48,0.49-1.48C548.96,377.34,548.19,378.27,547.83,378.38z"/>
			<path class="st10" d="M523.6,382.83c-0.19,0.09-1.24-1.33-0.49-1.48C524.1,381.15,524.08,382.6,523.6,382.83z"/>
			<path class="st10" d="M533.98,376.9c-1.06,0.76-0.6-1.75,0-1.48C534.36,375.58,534.4,376.6,533.98,376.9z"/>
			<path class="st10" d="M525.58,368c-0.51-0.16-0.42-1.84,0.49-1.48C526.82,366.81,525.75,368.05,525.58,368z"/>
			<path class="st10" d="M536.95,399.64c-0.51-0.16-0.42-1.84,0.49-1.48C538.19,398.45,537.12,399.7,536.95,399.64z"/>
			<path class="st10" d="M517.67,383.82c-1.17-0.14-0.31-2.22,0.49-0.99C518.49,383.33,517.72,383.83,517.67,383.82z"/>
			<path class="st10" d="M538.93,392.23c-0.61-0.91-0.19-2.04,0.49-0.99C539.77,391.78,539.23,391.84,538.93,392.23z"/>
			<path class="st10" d="M535.47,397.17c-0.61,0.42-0.65-1.89,0-1.48C535.84,395.93,535.89,396.88,535.47,397.17z"/>
			<path class="st10" d="M543.38,360.09c-0.61-0.91-0.19-2.04,0.49-0.99C544.22,359.64,543.68,359.7,543.38,360.09z"/>
			<path class="st10" d="M523.1,364.04c-0.13-0.41-0.82-1.14-0.49-1.48C523.52,362.38,523.62,363.38,523.1,364.04z"/>
			<path class="st10" d="M537.94,365.03c-0.61-0.91-0.19-2.04,0.49-0.99C538.78,364.58,538.24,364.64,537.94,365.03z"/>
			<path class="st10" d="M519.64,371.46c-0.38,0-0.38-1.98,0-1.98C520.03,369.49,520.02,371.46,519.64,371.46z"/>
			<path class="st10" d="M521.13,374.92c-0.61-0.91-0.19-2.04,0.49-0.99C521.97,374.47,521.43,374.53,521.13,374.92z"/>
			<path class="st10" d="M530.03,376.4c-0.38,0-0.38-1.98,0-1.98C530.41,374.43,530.41,376.41,530.03,376.4z"/>
			<path class="st10" d="M535.47,382.83c-0.75,0.27-1.09-0.73-0.49-0.99C535.7,381.53,536.06,382.62,535.47,382.83z"/>
			<path class="st10" d="M536.95,393.71c-0.24,0.01-0.33-0.43-0.25-0.74C536.98,391.13,537.58,393.68,536.95,393.71z"/>
			<polygon class="st10" points="519.64,365.53 519.4,364.79 520.14,364.54 520.39,364.79 			"/>
			<polygon class="st10" points="529.53,367.5 528.79,367.26 529.53,366.52 529.78,366.76 			"/>
			<polygon class="st10" points="550.3,378.88 549.56,378.63 549.8,377.89 550.05,378.14 			"/>
			<polygon class="st10" points="517.17,386.79 516.43,386.54 516.68,385.8 516.92,386.05 			"/>
			<polygon class="st10" points="532,392.23 531.51,391.73 531.51,391.24 532,391.24 			"/>
		</g>
	</g>
	<g>
		<path class="st10" d="M421.09,463.01l13.71-32.57c4.35-0.76,36.13-2.69,36.53-5.85c-4.14-3.49-8.41-6.94-12.68-10.25
			c-2.14-1.66-2.55,1.36-4.51-0.75c-0.69-0.74,1.03-2.06,0.28-2.67c-1.65-1.34-9.72-5.71-10.12-6.47
			c-3.02-5.82,7.09-29.9,6.45-37.93l-2.35-0.79c-6.06,3.14-23.98,19.33-29.61,19.55c-3.45,0.13-30.9-18.69-32.65-18.04
			c-1.54,2.37-0.03,6.49,0.67,8.98c0.58,2.05,4.02,6.53,4.13,6.92c0.55,2,4.44,18.89,4.37,19.9c-0.3,4.56-26.43,23.96-24.47,27.11
			c6.08,2.67,30.28-1.42,34.17,1.19C408.07,433.4,418.35,462.58,421.09,463.01z"/>
		<g>
			<path class="st10" d="M385.44,427.38c1.55-0.92,0.57-7.63-2.93-5.44C379.47,423.83,385.12,427.57,385.44,427.38z"/>
			<path class="st10" d="M443.2,381.65c2.63-0.45,1.44-0.97,2.45-2.71C437.51,375.27,439.26,382.32,443.2,381.65z"/>
			<path class="st10" d="M443.78,411.95c3.82,0.16,3.49-4.03,1.58-4.69c-1.06-0.36,0.54,4.09-3.09,3.72
				C442.77,411.17,443.42,411.94,443.78,411.95z"/>
			<path class="st10" d="M393.92,426.38c0.2,0.05,4-1,3.46-2.06C396.94,422.57,389.49,425.27,393.92,426.38z"/>
			<polygon class="st10" points="399.41,399.97 399.15,394.81 397.9,398.99 			"/>
			<path class="st10" d="M401.6,409.92c3.4-0.05,0.31-3.54-1.38-2.31C399.19,408.37,401,409.93,401.6,409.92z"/>
			<path class="st10" d="M389.62,375.17c1.22,0.24,2.53-2.55,1.11-2.85C389.51,372.06,388.2,374.89,389.62,375.17z"/>
			<path class="st10" d="M424.86,424.8c2.77-0.84-0.69-3.56-1.19-1.48C423.43,424.33,424.75,424.84,424.86,424.8z"/>
			<path class="st10" d="M424.74,400.49c0.2,0.04,2.21-1.88,3.46-2.06C427.84,397.1,421.6,399.88,424.74,400.49z"/>
			<path class="st10" d="M396.89,416.17c2,0.15,0.2-2.64-1.38-2.31C394.6,414.83,396.24,416.12,396.89,416.17z"/>
			<path class="st10" d="M439.16,414.7c0.36,0.08,1.6-2.7,0.28-2.67C437.7,412.07,438.27,414.5,439.16,414.7z"/>
			<path class="st10" d="M419.56,408.58c2.06,0.89,0.37-3.15-0.55-2.49C418.44,406.51,418.75,408.23,419.56,408.58z"/>
			<path class="st10" d="M430.38,390.55c0.79-0.45,0.03-3.24-1.38-2.31C427.85,389.01,430.11,390.71,430.38,390.55z"/>
			<path class="st10" d="M422.97,447.82c0.79-0.45,0.03-3.24-1.38-2.31C420.44,446.28,422.7,447.97,422.97,447.82z"/>
			<path class="st10" d="M449.48,414.18c1.91-0.67-0.3-3.83-1.19-1.48C447.92,413.65,449.39,414.21,449.48,414.18z"/>
			<path class="st10" d="M416.92,436.11c0.69-1.75-0.43-3.5-1.19-1.48C415.33,435.66,416.26,435.56,416.92,436.11z"/>
			<path class="st10" d="M424.54,443.13c1.18,0.48,0.39-3.42-0.55-2.49C423.45,441.18,423.72,442.79,424.54,443.13z"/>
			<path class="st10" d="M397.61,383.84c0.69-1.75-0.43-3.5-1.19-1.48C396.03,383.4,396.96,383.3,397.61,383.84z"/>
			<path class="st10" d="M433.07,383.01c0.07-0.73,0.96-2.21,0.28-2.67C431.76,380.37,431.96,382.09,433.07,383.01z"/>
			<path class="st10" d="M408.55,390.13c0.69-1.75-0.43-3.5-1.19-1.48C406.97,389.69,407.9,389.59,408.55,390.13z"/>
			<path class="st10" d="M441.61,394.17c0.64-0.15-0.1-3.46-0.73-3.32C440.24,391,440.97,394.32,441.61,394.17z"/>
			<path class="st10" d="M440.4,400.52c0.69-1.75-0.43-3.5-1.19-1.48C438.81,400.08,439.74,399.98,440.4,400.52z"/>
			<path class="st10" d="M426.01,406.29c0.64-0.15-0.1-3.46-0.73-3.32C424.65,403.12,425.38,406.44,426.01,406.29z"/>
			<path class="st10" d="M419.26,419.08c1.36,0.18,1.56-1.62,0.46-1.84C418.39,416.97,418.18,418.93,419.26,419.08z"/>
			<path class="st10" d="M420.78,437.87c0.41-0.07,0.4-0.85,0.14-1.34C419.77,433.55,419.71,438.04,420.78,437.87z"/>
			<polygon class="st10" points="439.42,384.22 439.56,382.89 438.23,382.74 437.9,383.25 			"/>
			<polygon class="st10" points="423.56,391.18 424.72,390.49 423.2,389.52 422.88,390.03 			"/>
			<polygon class="st10" points="392.92,417.91 394.08,417.22 393.39,416.07 393.06,416.57 			"/>
			<polygon class="st10" points="451.4,418.97 452.56,418.28 451.87,417.13 451.54,417.64 			"/>
			<polygon class="st10" points="428.53,433.56 429.17,432.55 428.99,431.72 428.16,431.9 			"/>
		</g>
	</g>
</g>
</svg>
