<?xml version="1.0" encoding="utf-8"?>
<!-- Generator: Adobe Illustrator 27.0.0, SVG Export Plug-In . SVG Version: 6.00 Build 0)  -->
<svg version="1.1" id="Warstwa_3" xmlns="http://www.w3.org/2000/svg" xmlns:xlink="http://www.w3.org/1999/xlink" x="0px" y="0px"
	 viewBox="0 0 841.89 595.28" style="enable-background:new 0 0 841.89 595.28;" xml:space="preserve">
<style type="text/css">
	.st0{fill:#BE1823;}
	.st1{fill:#B53218;}
	.st2{fill:none;}
	.st3{fill:url(#SVGID_1_);}
	.st4{fill:url(#SVGID_00000040560976806546901450000013420578647765726854_);}
	.st5{fill:url(#SVGID_00000037666791252543700550000014943939799683081661_);}
	.st6{fill:url(#SVGID_00000018212661779571419400000014824980500982392211_);}
	.st7{fill:url(#SVGID_00000151512071199823667910000013986285135649535167_);}
	.st8{fill:url(#SVGID_00000142890215843026252130000017282258667621254286_);}
	.st9{fill:url(#SVGID_00000161592842086205608110000015836839430281597352_);}
	.st10{fill:url(#SVGID_00000023267609716049379110000001243913107142651836_);}
</style>
<g id="Obiekt_generatywny_00000116225418516340835810000010363835390130486928_">
	<path class="st0" d="M537.43,343.57c-0.32,0.06-0.97,0.28-1.58,0.4c-1.39-0.14,0.35-4.81,0.59-4.75
		C537.13,341.19,538.29,341.25,537.43,343.57z"/>
	<g>
		<path class="st0" d="M499.03,216.89c-0.48,0.76,1.31,1.79,1.58,2.57c0.09,0.25-1.7,2.95,1.98,3.17c-1.79-0.49-2.35,2.12-2.57,2.18
			c-0.73,0.19-0.48-1.24-1.58-0.79c-0.75,0.31-0.04,7.03-2.77,3.56c-1.9,6.5,7.14,1.37,10.49,2.38
			c-52.07,9.64-103.59,19.32-155.58,28.5c-1.48-1.89,1.19-5.05,1.19-5.34c0-1.03-2.23-0.46-2.77-1.58c-0.64-1.33-0.06-3.69-0.4-5.15
			c3.54,0.94-1.44,3.03,3.76,4.55l0.4,1.98c1.29-2.13-0.21-3.45-1.39-4.55l4.35-1.58c-3.17-2.03-3.57,2.8-7.13-2.18
			c3.55-0.62,27.26-6.09,28.5-5.34c0.35,0.21,1.74,3.64,2.18,4.16l-0.2-4.55C418.91,231.18,459.14,224.3,499.03,216.89z"/>
		<g>
			<path class="st0" d="M459.04,230.74c0.87-0.84,5.01-5.35,5.34-5.54c0.14-0.08,1.72,0.28,2.18,0.2
				C464.19,227.43,461.67,229.06,459.04,230.74z"/>
			<path class="st0" d="M434.7,230.35c0.92,0.5-2.2,2.71-2.38,2.77c-0.22,0.08-3.5-0.32-4.55,0.59L434.7,230.35z"/>
			<path class="st0" d="M378.88,246.58c4.33,1.59,0.97,2.83-1.58,3.56l2.57-1.78L378.88,246.58z"/>
			<path class="st1" d="M370.17,246.58c3.21,2.16,2.73,2.07-0.2,2.97L370.17,246.58z"/>
			<path class="st0" d="M429.16,234.7c1.19-0.73,2.05,3.4,0.79,3.96C429.62,238.66,428.98,234.81,429.16,234.7z"/>
			<path class="st0" d="M456.07,233.12c0.19,1.53-2.98,2.77-4.16,3.36L456.07,233.12z"/>
			<polygon class="st0" points="354.73,248.95 355.13,252.51 353.74,249.55 			"/>
			<path class="st0" d="M392.73,241.03c0.19,1.43-2.55,3.29-3.56,3.96C389.91,243.37,391.63,242.37,392.73,241.03z"/>
			<path class="st0" d="M488.14,225.99c2.56,1.7-1.55,1.03-2.97,1.78L488.14,225.99z"/>
			<path class="st1" d="M367.4,241.43c1.52,0.3,1.7,1.89,1.19,3.17L367.4,241.43z"/>
			<path class="st0" d="M374.52,240.24c0.42-0.1,1.46,3.01,0.79,3.56C374.5,243.81,374.35,240.29,374.52,240.24z"/>
			<path class="st1" d="M355.92,252.91c0.07-0.02,1.48,0.1,1.39,0.59l-1.78,0.99C354.5,254,355.55,253.04,355.92,252.91z"/>
			<path class="st0" d="M366.21,246.58c0.63-0.29,1.98,1.79,1.58,1.98C367.31,248.72,365.46,246.92,366.21,246.58z"/>
			<path class="st0" d="M353.15,254.1c1.07-0.06,0.4,2.09,0,2.38C352.82,255.85,352.82,254.73,353.15,254.1z"/>
			<path class="st0" d="M459.04,230.74c-0.64,0.62-0.81,2.21-1.98,1.39C457.51,231.23,458.51,231.09,459.04,230.74z"/>
			<path class="st0" d="M478.24,227.97c0.6,0.9-0.11,1.76-1.19,1.58L478.24,227.97z"/>
			<path class="st0" d="M403.03,246.58c1.11-0.14-0.25,1.91-0.79,1.58C401.61,247.7,402.92,246.59,403.03,246.58z"/>
			<path class="st0" d="M475.47,225.99c0.89,0.27,0.26,1.92-0.79,1.98L475.47,225.99z"/>
			<path class="st0" d="M405.8,239.45c0.68-0.15,0.44,1.9-0.4,1.58C404.92,240.85,405.72,239.47,405.8,239.45z"/>
			<path class="st0" d="M410.15,237.47c0.27-0.05,0.9-0.08,0.99,0.2l-1.78,0.99C408.68,238.16,410,237.5,410.15,237.47z"/>
			<path class="st1" d="M416.09,232.72c1.22-0.16,0.27,1.48-0.4,1.19C415.15,233.67,415.83,232.75,416.09,232.72z"/>
			<path class="st1" d="M372.15,245.39c0.85-0.37,1.15,1.25,0.4,1.19C372.3,246.56,371.6,245.63,372.15,245.39z"/>
			<path class="st0" d="M370.96,241.43c0.6-0.22,0.87,0.58,0.4,0.79C370.78,242.48,370.48,241.6,370.96,241.43z"/>
			<path class="st1" d="M367,250.93c0.49,0.73,0.15,1.64-0.4,0.79C366.33,251.29,366.76,251.25,367,250.93z"/>
			<polygon class="st1" points="357.11,255.29 357.7,255.48 357.5,256.08 357.3,255.88 			"/>
			<polygon class="st0" points="449.34,233.91 449.54,234.5 448.95,234.7 448.75,234.5 			"/>
			<path class="st0" d="M424.01,236.68c0.19-0.01,0.27,0.35,0.2,0.59C423.98,238.75,423.5,236.71,424.01,236.68z"/>
			<polygon class="st1" points="366.61,253.31 367.2,253.5 367,254.1 366.8,253.9 			"/>
			<polygon class="st0" points="483.79,226.78 483.98,227.38 483.39,227.57 483.19,227.38 			"/>
			<polygon class="st0" points="391.15,247.37 391.74,247.57 391.15,248.16 390.95,247.96 			"/>
		</g>
	</g>
	<g>
		<path class="st0" d="M339.09,376.82c-0.11,0.46-0.75,0.71-0.2,1.19c0.99,0.39,0.93,0.72,2.18,0.79c1.03,0.06,1.1-1.03,2.18-0.79
			l-0.2,1.98c-6.18,1.14-12.43,2.03-18.61,3.17c0.28-1.26,2.35-3.19,0.59-4.35c0.48,1.88-1.13,2.82-1.78,4.35
			c-35.84,6.58-76.49,17.43-112.23,21.38c-2.8,0.31-5.7,0.6-8.51,0.4c0.03-2.3-0.39-4.59,0-6.93c0.06-0.35,1.47-5.65,1.58-5.94
			c0.66-1.61,2.42,0.3,1.58-1.78c0.67,0.13,1.29,0.28,1.78,0.79c26.11-5.02,52.23-10.22,78.38-15.04c1.14-0.21,1.29,0.92,1.98,0.79
			c0.17-0.03,0.33-1.1,0.79-1.19c15.52-2.86,31.01-5.83,46.52-8.71c2.21,1.49-0.23,6.79-1.19,8.51c1.09,1.45,1.31-0.22,1.39-0.2
			c1.18,0.3,0.46,2.51,1.19,2.38C337.08,377.51,336.93,375.65,339.09,376.82z"/>
		<g>
			<path class="st0" d="M324.45,383.15c-1.01,0.18-1.01-0.03-1.19,0c0.65-1.54,2.26-2.48,1.78-4.35
				C326.8,379.96,324.72,381.9,324.45,383.15z"/>
			<path class="st0" d="M228.45,391.47c0.6-0.07,9.93,3.5,11.28,4.16c-2.04,0.45-4.36-1.49-5.74-1.78c-0.49-0.1-1.67,1.2-1.98,1.19
				c-0.28-0.01-3.01-3.03-3.96-2.77C227.65,392.06,228.38,391.48,228.45,391.47z"/>
			<path class="st0" d="M239.53,387.9l1.98,4.35c-1.77-2.09-1.31-0.19-2.97-0.2L239.53,387.9z"/>
			<path class="st0" d="M216.17,393.84c0.73,1.53,2.4,3.59,0.79,4.75L216.17,393.84z"/>
			<path class="st0" d="M247.25,391.07c0.01,0.04,0.73-0.14,0.79,0.2c0.04,0.23-0.7,3.76-0.59,4.55L247.25,391.07z"/>
			<path class="st0" d="M251.41,393.05l1.98,2.77C252.42,395.25,251.03,394.4,251.41,393.05z"/>
			<path class="st0" d="M272.39,389.49c0.32-0.1,1.37,2.29,1.19,2.77C272.98,392.5,271.74,389.69,272.39,389.49z"/>
			<path class="st0" d="M247.25,391.07c-0.5,0.33-1.93-1.85-0.99-2.38C246.73,389.45,246.99,390.22,247.25,391.07z"/>
			<path class="st0" d="M206.28,398.2c0.92-0.04,0.46,2.06-0.4,1.58C205.32,399.47,205.9,398.22,206.28,398.2z"/>
			<path class="st0" d="M239.53,396.22c1.15-0.04,0.06,1.42,0,1.98C238.69,397.72,239.3,397.03,239.53,396.22z"/>
			<path class="st0" d="M250.22,393.05c0.15,0.29,0.92,1.48,0.4,1.58C249.8,394.79,249.85,393.66,250.22,393.05z"/>
			<path class="st0" d="M321.48,375.63c1.77,0.18-1.29,1.85-0.99,0.59C320.5,376.17,321.42,375.63,321.48,375.63z"/>
			<path class="st0" d="M315.14,381.97c0.31,0,0.31,1.98,0,1.98C314.8,383.62,314.87,381.97,315.14,381.97z"/>
			<path class="st0" d="M214.99,390.28c0.81-0.01,1.38,0.95,0.4,0.79C215.31,391.06,214.59,390.48,214.99,390.28z"/>
			<path class="st1" d="M261.7,393.45c0.81-0.01,1.38,0.95,0.4,0.79C262.02,394.23,261.3,393.65,261.7,393.45z"/>
			<path class="st0" d="M232.4,398.2c0.49,0.73,0.15,1.64-0.4,0.79C231.73,398.56,232.16,398.51,232.4,398.2z"/>
			<path class="st0" d="M208.26,399.78c0.49-0.34,0.52,1.52,0,1.19C207.95,400.78,207.92,400.02,208.26,399.78z"/>
			<polygon class="st0" points="329,373.26 329.39,373.65 329.39,374.05 329,374.05 			"/>
			<polygon class="st0" points="268.43,383.55 268.83,383.95 268.83,384.34 268.43,384.34 			"/>
			<polygon class="st0" points="327.81,375.63 328.4,375.83 328.21,376.42 328.01,376.23 			"/>
			<polygon class="st0" points="212.61,393.05 213.2,393.25 212.61,393.84 212.41,393.64 			"/>
			<polygon class="st0" points="213.4,395.03 213.8,395.43 213.8,395.82 213.4,395.82 			"/>
		</g>
	</g>
	<g>
		<path class="st0" d="M170.05,287.35c-1.88,2.56-0.19,5.47,1.19,7.92c0.24,3.89-1.31,0.36-1.58,0.99c-0.55,1.26,1.4,1.75,0.2,2.57
			c-0.84,0.4-1.63-3.5-2.38-3.17c-0.58,0.26,1.02,2.24-1.78,1.78c3.15,1.49-1.31,4.73,2.77,4.55c0.01,0.35,0.66,4.18,0.79,4.35
			c0.25,0.35,0.38,0.37,0.4,0.4c0,1.72,2.98,5.11,3.17,6.14c0.3,1.72-1.65,3.99,0.79,5.15c-0.49-8.27,3.13-1.34,4.35,1.58
			c0.06-0.68-0.28-1.11-0.4-1.78h1.98c0.02,1.87-0.29,3.88,1.58,4.95c-0.47-1.84-0.61-4.43-1.19-6.14l2.38-0.2v-2.97
			c4.15,24.05,9.26,48.93,15.44,72.25c2,2.46,4.78,3.94,7.92,4.55c0.84,2.08-0.93,0.17-1.58,1.78c-0.12,0.28-1.52,5.58-1.58,5.94
			c-0.39,2.34,0.03,4.63,0,6.93c-9.41-0.69-17.36-7.1-20.19-16.03c-2.71-28.51-15.3-61.16-17.42-89.07
			c-0.5-6.52,0.32-10.68,3.96-16.03c-0.6,1.74,0.55,1.68,0.79,2.18C169.7,286.05,169.51,286.15,170.05,287.35z"/>
		<g>
			<path class="st0" d="M177.58,317.83c0.11,0.68,0.45,1.1,0.4,1.78c-1.23-2.92-4.85-9.85-4.35-1.58c-2.44-1.15-0.49-3.43-0.79-5.15
				c-0.18-1.03-3.17-4.42-3.17-6.14c0.07,0.1,1.32-0.11,1.39,0c0.71,1.16,0.53,2.67,1.78,4.16
				C175.46,314.03,176.53,311.64,177.58,317.83z"/>
			<path class="st0" d="M182.52,331.69c3.3,1.52,2.55,3.65,2.38,6.73C182.98,337.02,183.45,333.97,182.52,331.69z"/>
			<path class="st0" d="M186.68,370.09c2.98,1.81,3.23,2.25,3.76,5.94C189.73,376.35,187.08,370.68,186.68,370.09z"/>
			<path class="st0" d="M179.95,316.65c0.58,1.7,0.71,4.3,1.19,6.14c-1.87-1.07-1.56-3.08-1.58-4.95c0-0.35-0.75-1.39-0.4-2.18
				C179.95,315.33,179.85,316.34,179.95,316.65z"/>
			<path class="st0" d="M186.68,370.09c-1.62-0.98-3.78-1.1-5.15-2.57C185.24,366.39,185.15,367.82,186.68,370.09z"/>
			<path class="st0" d="M185.69,353.07c0.1,1.6,1.75,3.87,0.4,5.15L185.69,353.07z"/>
			<path class="st0" d="M191.23,377.22c1.32,1.79,0.11,2.81-0.79,4.35L191.23,377.22z"/>
			<path class="st0" d="M186.09,341.59c0.64-0.17,1.41,4.74,0.79,4.75L186.09,341.59z"/>
			<path class="st0" d="M190.05,393.05l2.18,0.99C191.68,395.11,188.53,394.06,190.05,393.05z"/>
			<path class="st0" d="M188.07,367.71c2.05,0.26-0.56,2.57-0.99,0.99C187.06,368.64,188,367.71,188.07,367.71z"/>
			<path class="st0" d="M182.13,340c0.59,0.24,0.91,1.66,0.4,1.98C181.79,342.44,181.7,340.24,182.13,340z"/>
			<path class="st0" d="M182.92,343.17l0.4,2.38C182.96,344.57,181.91,343.77,182.92,343.17z"/>
			<path class="st0" d="M178.96,366.13l1.78,0.59C180.7,367.4,178.33,367.23,178.96,366.13z"/>
			<path class="st1" d="M180.94,357.82c0.35,0.38,0.28,2.38,0,2.38C180.81,359.46,180.12,358.32,180.94,357.82z"/>
			<path class="st0" d="M175.79,326.54c0.31,0,0.3,1.59,0,1.58C175.49,328.13,175.49,326.54,175.79,326.54z"/>
			<polygon class="st0" points="183.71,346.34 184.11,346.73 184.11,347.13 183.71,347.13 			"/>
			<polygon class="st0" points="178.96,326.54 179.56,326.74 179.36,327.34 179.16,327.14 			"/>
			<polygon class="st1" points="173.02,320.61 173.62,320.8 173.42,321.4 173.22,321.2 			"/>
			<polygon class="st0" points="199.15,402.16 199.35,402.75 198.76,402.95 198.56,402.75 			"/>
		</g>
	</g>
	<g>
		<path class="st0" d="M235.37,267.16c0.36,2.55,1.63,5.32,0.79,7.72c1.25,0.66,0.69-1.23,0.79-1.78c0.83,0.38,2.02,0.53,2.77,0.79
			l-2.57,3.96c2.2-2.42,2.92-1.08,5.54-1.19c0.41-0.85-0.35-0.34-0.99-1.19c1.2,0.22,0.97-0.82,1.19-1.19
			c1.6,0.63,0.39,2.31,0.4,3.56c-15.41,2.91-40.61,5.66-54.43,10.29c-4.26,1.43-8.32,4.76-8.91,9.5l-3.56,1.78l3.56-0.99
			c-0.15,3.95,1.65,10.83,2.38,15.04v2.97l-2.38,0.2c-0.11-0.31,0-1.31-0.79-0.99c-0.35,0.78,0.39,1.83,0.4,2.18h-1.98
			c-1.04-6.19-2.11-3.81-4.75-6.93c-1.25-1.48-1.07-3-1.78-4.16c-0.06-0.11-1.31,0.1-1.39,0c-0.02-0.02-0.14-0.05-0.4-0.4l0.4-5.74
			c-0.96-1.44-1.2,0.87-1.19,1.39c-4.08,0.18,0.38-3.06-2.77-4.55c2.8,0.46,1.2-1.52,1.78-1.78c0.74-0.33,1.54,3.57,2.38,3.17
			c1.2-0.83-0.75-1.31-0.2-2.57c0.28-0.63,1.82,2.9,1.58-0.99c-0.15-2.55-0.97-2.88-1.19-4.16c-0.16-0.92,1.47-0.47,0-3.76
			c-0.54-1.2-0.36-1.3-0.4-1.39c-0.24-0.5-1.39-0.44-0.79-2.18c1.28-1.88,2.21-2.92,3.96-4.35c0.27,3.69,3.23,3.71,5.15,6.53
			l-3.17,2.38c1.15,2.53,4.39-1.78,3.96-3.17c-0.08-0.27-3.84-2.94-3.96-3.17c-0.68-1.23,0.23-2.59-0.4-3.76
			c8.97-5.94,47.97-11.03,60.97-13.46C234.97,265.76,235.25,266.29,235.37,267.16z"/>
		<g>
			<path class="st0" d="M172.83,279.43c0.63-0.52,0.87-0.72,1.58-1.19c0.62,1.17-0.28,2.53,0.4,3.76c0.12,0.22,3.87,2.9,3.96,3.17
				c0.43,1.39-2.81,5.69-3.96,3.17l3.17-2.38C176.05,283.14,173.09,283.13,172.83,279.43z"/>
			<path class="st0" d="M171.24,295.27c-1.38-2.45-3.07-5.36-1.19-7.92c1.47,3.29-0.16,2.84,0,3.76
				C170.28,292.39,171.09,292.72,171.24,295.27z"/>
			<path class="st0" d="M169.26,306.35c-0.13-0.18-0.78-4.01-0.79-4.35c-0.01-0.52,0.23-2.82,1.19-1.39L169.26,306.35z"/>
			<path class="st0" d="M211.03,273.1c1.73,2.72,0.1,3.51,3.76,2.97c-2.71,0.98-3.98,5.25,0,4.35c-1.96,7.69-3.88-5.62-4.75-1.19
				c-0.44,2.21,3.59,4.83-2.77,3.96c3.46-0.46,1.98-6.27-1.19-3.96l0.99,2.97c-0.76,0.44-2.01-3.79-3.76-1.78l1.39,2.97
				c-2.17-3.47-6.59,0.27-5.15-4.35c0.63,0.48,0.95,2.04,1.98,1.98c0.31-0.02,4.11-3.06,4.35-3.17
				C208.56,276.74,212.76,279.57,211.03,273.1z"/>
			<path class="st0" d="M172.23,298.04c3.44,1.39,3.04,2.98,4.95,5.34c0.34,0.42,4.71,1.55,2.57,4.55c-1.8-0.43,0.32-1.84-1.19-3.17
				c-1.79-1.57-1.04,1.91-1.19,1.98c-3.27-1.23-0.62-1.72-0.99-2.97L172.23,298.04z"/>
			<path class="st0" d="M179.75,279.43c0.13,1.98,2.4,1.73,2.57,2.57c0.57,2.75-2.25,3.49-3.56,1.19
				C178.14,281.66,179.74,281.33,179.75,279.43z"/>
			<path class="st0" d="M173.02,305.56c1.57-0.06,0.32,3.01,1.98,3.56l0.2-2.18c1.76,0.01,0.41,4.01-0.59,4.16
				C172.97,311.16,171.82,305.61,173.02,305.56z"/>
			<path class="st0" d="M231.22,274.68c3.23,0.36-8.75,3.07-5.54,5.15l-2.18-1.78C223.51,277.57,230.79,274.64,231.22,274.68z"/>
			<path class="st0" d="M172.63,288.14c1.61,1.48,1.37,5.68,1.98,7.92C173.33,296.8,172.04,289,172.63,288.14z"/>
			<path class="st0" d="M241.71,275.48c0.64,0.85,1.4,0.34,0.99,1.19c-2.62,0.11-3.34-1.23-5.54,1.19l2.57-3.96
				c0.28,0.1,0.54-0.42,0.59-0.4C240.7,273.68,241.34,274.99,241.71,275.48z"/>
			<path class="st0" d="M196.78,281.81c0.49,0,2.02,2.57,1.19,3.17C195.76,286.57,195.04,281.79,196.78,281.81z"/>
			<path class="st0" d="M233.99,271.91c2.33-0.47,1.34,3.47-0.79,2.77C231.96,274.28,233.4,272.03,233.99,271.91z"/>
			<path class="st0" d="M189.25,279.04l2.57,2.18c-3.45,4.38-1.53-0.15-1.58-0.4C190.19,280.59,188.25,280.84,189.25,279.04z"/>
			<path class="st0" d="M176.98,291.31c0.06,1.61,1.96,3.26,0.4,4.75C176.44,294.61,175.9,292.9,176.98,291.31z"/>
			<path class="st0" d="M171.84,285.37c1.2,0.12,2.75-0.1,2.97,1.39C174.74,287.59,170.87,286.8,171.84,285.37z"/>
			<path class="st0" d="M183.71,284.18l2.57,1.78C185.43,287.43,182.64,284.8,183.71,284.18z"/>
			<path class="st0" d="M173.02,303.19c1.12-0.88,2.57,2.2,1.98,2.38C174.5,304.8,171.41,304.45,173.02,303.19z"/>
			<path class="st0" d="M179.95,297.64c-0.03,0.25,0.01,0.53,0,0.79l-3.56,0.99L179.95,297.64z"/>
			<path class="st0" d="M220.92,272.7c1.56,0.59-1.98,2.13-1.98,2.38C217.97,274.7,220.62,272.77,220.92,272.7z"/>
			<path class="st0" d="M182.52,277.46c0.51,0.01,1.51,1.86,0.79,2.38C183.09,279.99,181.25,277.43,182.52,277.46z"/>
			<path class="st0" d="M178.57,288.14c0.98,0.25,0.02,2.1-0.79,1.58L178.57,288.14z"/>
			<polygon class="st0" points="194.4,284.18 194.99,284.38 193.61,285.77 			"/>
			<path class="st0" d="M233.99,275.48c0.4,0.13,0.34,1.47-0.4,1.19C232.99,276.43,233.85,275.43,233.99,275.48z"/>
			<path class="st0" d="M222.51,267.95c1.49-0.21-0.13,1.64-0.59,0.59C221.9,268.51,222.47,267.96,222.51,267.95z"/>
			<path class="st0" d="M227.65,278.25c0.33-0.2,1.01,0.54,0.99,0.59C228.34,279.5,226.77,278.78,227.65,278.25z"/>
			<polygon class="st0" points="180.54,315.46 181.14,315.66 180.94,316.25 180.74,316.05 			"/>
		</g>
	</g>
	<g>
		<path class="st0" d="M610.27,196.7c-2,0.31-1.59,3.42-2.38,4.95c0.46,0.46,0.74-0.61,0.79-0.59c0.73,0.18,0.95,1.02,2.38,0.59
			c-1.99,2.14,0.91,2.01-2.38,3.17c0.48,1.02,1.16-0.04,1.39,0.2c0.27,0.29,0.33,0.86,0.59,1.19c-0.92,0.32,0.21,2.85,1.19,2.77
			c-0.85,1.29-0.65,0.54-2.38,0.99l0.79,0.59c-4.57,0.82-9.1,1.93-13.66,2.77c-0.7,0.13-0.89-0.92-1.58-0.79
			c-0.17,0.03-0.33,1.1-0.79,1.19c-18.29,3.38-36.55,6.9-54.83,10.29c-0.42-3.88-0.1-3.31,3.17-5.34c-1.76,1.19-4.06-0.57-4.35-0.59
			c-0.33-0.46-0.29-0.73-0.4-1.19c-0.27-1.22,0.04-2.98,0-3.17c1.18-1.43,3.07-2.62,2.77-4.75c23.02-4.25,46.68-9,69.28-13.06
			C609.87,196.25,610.19,196.3,610.27,196.7z"/>
		<g>
			<path class="st0" d="M610.27,196.7c0.12,0.62-1.29,3.5-1.58,4.35c-0.05-0.01-0.33,1.05-0.79,0.59
				C608.68,200.12,608.27,197,610.27,196.7z"/>
			<path class="st0" d="M611.85,208.97c-0.98,0.08-2.11-2.45-1.19-2.77C611.54,207.29,612.96,207.29,611.85,208.97z"/>
			<path class="st0" d="M568.9,205.01c1.6,2.41,2.55-0.09,2.77,0c0.13,0.05,0.69,2.24,1.58,2.38c1.2,0.18,5.3-4.18,4.35,0
				c-3.38-0.57-4.54,1.14-7.13,2.77l-0.4-0.79c6.04-1.88-0.72-2.99-1.39-2.18c-0.3,0.37,0.83,1.13,0.79,1.19
				c-0.23,0.39-2.78,1.37-2.38,2.77c0.15,1.43,5.35,3.02,4.55,5.34l-5.94-5.15l-0.4,1.19c-1.44-2.83-6.8-1.07-4.75-5.15
				c-0.01,1.11,3.48,3.08,3.96,2.77c0.84-1.8-1.91-1.71-2.57-2.97c1.71-1.24,3.47,2.43,4.95,1.78c2.3-1-2.61-1.83,1.19-3.17v1.19
				L568.9,205.01z"/>
			<path class="st0" d="M538.22,218.07c0.29,0.02,2.59,1.79,4.35,0.59c-3.26,2.03-3.58,1.47-3.17,5.34c-0.13,0.02-0.27-0.02-0.4,0
				c0.19-1.84-1.2-3.31-2.38-4.55C536.97,218.3,536.98,217.98,538.22,218.07z"/>
			<path class="st0" d="M577.61,208.97c0.27-0.13,3.6,3.94,1.19,4.35l-6.93-2.97c2.96-0.9,3.8,1.57,6.53,2.18L577.61,208.97z"/>
			<path class="st0" d="M607.3,198.68c0.91,3.49-1.73,2.37-2.38,2.77c-0.89,0.55-1.33,2.45-2.57,1.78L607.3,198.68z"/>
			<path class="st0" d="M591.86,205.41c2.99-0.02,8.83,0.21,6.73,3.96c-0.36-0.65-1.45-2.98-1.98-3.17
				C595.63,205.86,592.09,207.07,591.86,205.41z"/>
			<path class="st0" d="M606.51,202.24c0.85,0.45-1.55,4.6-2.38,3.96C602.8,205.16,605.49,202.36,606.51,202.24z"/>
			<path class="st0" d="M549.5,215.7c0.76,0,0.47,1.92,0.4,1.98c-0.33,0.26-3.43,0.73-4.16,1.39
				C545.62,218.79,549.25,215.7,549.5,215.7z"/>
			<path class="st0" d="M582.76,204.22l-1.58,2.77l-2.97-1.39C579.89,203.25,580.21,208.99,582.76,204.22z"/>
			<path class="st0" d="M558.41,209.36c0.7,1.28,0.91,2.87-0.2,3.96C556.53,212.4,558.58,209.51,558.41,209.36z"/>
			<path class="st0" d="M559,216.09c0.11-0.01,2.02,0.5,1.98,0.79l-4.55,0.59C556.35,217.18,558.86,216.1,559,216.09z"/>
			<path class="st0" d="M558.41,209.36c-0.12-0.1-3.39,0.19-2.38-1.39C556.68,206.98,558.07,208.75,558.41,209.36z"/>
			<path class="st0" d="M562.17,211.74c1.65,0.16-1.27,1.41-1.19,2.77C559.76,213.35,561.09,211.63,562.17,211.74z"/>
			<path class="st0" d="M548.31,212.93c0.57-0.53,3.45,0.77,1.19,1.98C549.13,214.65,547.94,213.27,548.31,212.93z"/>
			<path class="st0" d="M545.94,213.32l0.79,1.98C546.06,215.61,544.89,213.58,545.94,213.32z"/>
			<path class="st0" d="M540.79,216.09c0.71,0.26-0.7,1.82-1.19,1.58C538.72,217.25,540.69,216.06,540.79,216.09z"/>
			<path class="st0" d="M541.98,212.53c1.35-0.71,1.77,0.96,0.4,0.79C542.29,213.31,541.59,212.74,541.98,212.53z"/>
			<path class="st0" d="M572.46,213.72c0.8-0.16,0.78,1,0.4,1.19C572.7,214.98,571.86,213.84,572.46,213.72z"/>
			<path class="st0" d="M562.57,215.7c0.33-0.2,1.01,0.54,0.99,0.59C563.26,216.95,561.68,216.24,562.57,215.7z"/>
			<path class="st0" d="M574.05,208.97c0.99-0.14,0.43,0.78-0.4,0.79C573.25,209.56,573.98,208.98,574.05,208.97z"/>
			<polygon class="st0" points="594.24,207.38 594.63,207.78 594.63,208.18 594.24,208.18 			"/>
			<polygon class="st0" points="600.97,205.01 601.56,205.21 601.36,205.8 601.16,205.6 			"/>
		</g>
	</g>
	<g>
		<path class="st0" d="M314.15,250.54c-0.5,1.93,0.99,1.44,1.58,2.38c0.87,1.37-0.48,1.01,2.38,2.97c0.09,0.06-0.08,0.95,0,0.99
			c-2.06,2.69-2.23,0.84-2.38,0.99c-0.52,0.51-0.16,4.59-0.59,5.74c3.22-1.12,0.05-2.4,0.59-3.76c0.15-0.39,2.69-1.22,2.38-2.97
			c1.13,0.59,3.14-0.1,3.36,0c0.3,0.13,1.46,4.41,2.77,4.75c1.24-0.79,0.18-1.51,0.2-1.58c0.1-0.52,0.24-1.09,0.4-1.58
			c0.54,0.63,1.13,1.28,1.58,1.98c0.83,1.28,1.24,0.64,0.79,2.38c-7.99,1.4-16,2.76-23.95,4.35l-2.77-5.94l2.18,5.34
			c0.12,0.54-0.95,0.83-1.39,0.99c-12.22,4.52-42.62,7.55-57.2,10.29c0.01-0.26-0.02-0.53,0-0.79c0.98-0.03,7.08-0.91,7.32-1.19
			c0.11-0.13,0.98-3,0.99-3.17c3.71-0.81,5.38-2.18,7.72,1.58c0.24-0.08-1.16-4.27,1.58-3.96c1.72,0.2-0.17,3.01,1.19,3.17
			c2.01,0.23,0.23-3.67,0.2-4.75c-0.11-3.61,0.11-5.87,4.35-6.14l-1.58-3.36c4.87-0.88,9.78-1.54,14.65-2.38l1.98,4.55
			c2.6,0.08,6.23,7.38,7.32,7.32c0.06,0,0.99-0.54,0.99-0.59c0.01-0.38-5.63-5.14-1.39-5.74c0.91,1.67-0.48,3.18,1.58,4.35
			c1.41-0.97-0.55-1.73-0.59-2.97c-0.01-0.17,0.8-2.21,0.79-2.38c-0.01-0.19-2.82-2.84-0.2-2.97c2.28-0.11,0.62,3.33,1.58,4.35
			c1.03-4.74,0.18-4.09-3.56-5.94c-1.74,0.12,2.17,3.5,0,4.35c-1.76,0.69-1.42-3.18-3.76-0.99c1.89,0.4,2.8,1.63,0.99,2.97
			c-3.24-2.04-1.8-3.79-2.97-6.73c3.56-0.6,10.77-3.15,14.05-2.77c0.35,0.04-0.2,1.61,1.19,1.19c0.59-0.18,0.3-2.32,4.75-2.38
			c0.44-0.01,0.4,1.21,1.19,1.19c0.2,0,2.02-2.06,3.17-2.38C308.91,250.98,312.37,250.88,314.15,250.54z"/>
		<g>
			<path class="st0" d="M283.27,256.47c1.17,2.94-0.27,4.69,2.97,6.73c1.81-1.34,0.9-2.57-0.99-2.97c2.34-2.19,2,1.68,3.76,0.99
				c2.17-0.85-1.74-4.24,0-4.35c3.74,1.84,4.6,1.19,3.56,5.94c-0.97-1.02,0.7-4.47-1.58-4.35c-2.63,0.13,0.19,2.78,0.2,2.97
				c0.01,0.17-0.8,2.21-0.79,2.38c0.05,1.24,2,2,0.59,2.97c-2.07-1.17-0.68-2.68-1.58-4.35c-4.24,0.6,1.4,5.36,1.39,5.74
				c0,0.06-0.93,0.59-0.99,0.59c-1.09,0.05-4.72-7.25-7.32-7.32l-1.98-4.55C281.43,256.71,282.37,256.63,283.27,256.47z"/>
			<path class="st0" d="M275.95,260.43c2.26-0.31,2.94,4.17,3.17,4.35c0.2,0.16,3.16-2.17,4.75-1.19c1.08,0.76,0.71,3.27,0.59,4.95
				c-1.35-5.24-4.4-5.15-2.57,0.59c-1.64-1.68-0.62-4.25-3.96-3.56c-0.3,4-0.84,1.92-0.99-0.59c0.27-1.24,1.81,1.15,1.58-0.4
				C278.49,264.35,276,261.15,275.95,260.43z"/>
			<path class="st0" d="M318.11,256.87c0.31,1.75-2.22,2.58-2.38,2.97c-0.54,1.36,2.63,2.64-0.59,3.76
				c0.43-1.15,0.07-5.23,0.59-5.74C315.89,257.71,316.05,259.56,318.11,256.87z"/>
			<path class="st0" d="M311.18,257.66c0.26,0.64,2.11,2.8,2.18,2.97c0.28,0.69-0.52,1.14-0.4,1.58c0.06,0.21,3.39,2.23-0.79,1.98
				C314.86,263,310.51,259.7,311.18,257.66z"/>
			<path class="st0" d="M320.69,258.85c0.49-0.36,3.02,3.43,1.58,3.56C321.12,262.77,320.1,259.27,320.69,258.85z"/>
			<path class="st0" d="M273.97,263.6c-0.14,2.44,3.27,5.09,1.58,7.13C275.71,268.08,272.88,266.37,273.97,263.6z"/>
			<path class="st1" d="M317.52,260.43c0.47,0.17,2.33,0.73,2.18,1.39C319.44,262.93,316.1,261.83,317.52,260.43z"/>
			<path class="st0" d="M252.59,273.5c1.67-0.55,1.76,1.51,1.19,1.98C252.95,276.16,251.4,273.89,252.59,273.5z"/>
			<path class="st0" d="M313.56,255.68c0.96,0.36,0.63,3.96,0.4,3.96C313.68,258.35,313.68,256.99,313.56,255.68z"/>
			<path class="st0" d="M256.55,272.7c0.44,0.87,0.99,1.3,0,1.98C256.25,274.36,256.22,272.87,256.55,272.7z"/>
			<path class="st0" d="M277.53,257.66c0.6,0.38,0.19,1.56-0.79,1.19C276.04,258.37,277.47,257.62,277.53,257.66z"/>
			<path class="st0" d="M292.18,256.08c1.38-0.17,0.95,1.5-0.4,0.79C291.39,256.66,292.1,256.09,292.18,256.08z"/>
			<path class="st0" d="M285.06,257.27c1-0.38,1.38,0.85,0.79,1.19C285.79,258.49,284.73,257.55,285.06,257.27z"/>
			<path class="st1" d="M309.2,260.83c0.07-0.02,1.14,0.92,0.79,1.19C309.41,262.25,308.6,260.99,309.2,260.83z"/>
			<path class="st1" d="M294.56,256.47c0.94,0.11,0.25,1.77-0.4,0.79C293.9,256.87,294.51,256.47,294.56,256.47z"/>
			<path class="st1" d="M278.33,269.14c0.94,0.11,0.25,1.77-0.4,0.79C277.67,269.54,278.28,269.14,278.33,269.14z"/>
			<polygon class="st0" points="265.26,265.97 265.66,266.37 265.66,266.77 265.26,266.77 			"/>
			<polygon class="st1" points="273.18,260.43 273.77,260.63 273.58,261.22 273.38,261.03 			"/>
		</g>
	</g>
	<g>
		<path class="st0" d="M540.59,208.97c0.3,2.13-1.59,3.32-2.77,4.75c-0.08-0.4-1.41-1.72-0.79-2.97c-1.44,0.17-0.48,5.54,0.79,6.14
			c0.1,0.46,0.07,0.73,0.4,1.19c-1.24-0.09-1.25,0.22-1.58,1.39c1.17,1.24,2.56,2.71,2.38,4.55c-10.94,2.03-21.92,3.91-32.86,5.94
			c-3.35-1-12.39,4.12-10.49-2.38c2.73,3.47,2.02-3.26,2.77-3.56c1.11-0.45,0.85,0.99,1.58,0.79c0.22-0.06,0.79-2.66,2.57-2.18
			c-3.68-0.21-1.89-2.92-1.98-3.17c-0.28-0.78-2.06-1.81-1.58-2.57C512.88,214.31,526.75,211.52,540.59,208.97z"/>
		<g>
			<path class="st0" d="M537.82,213.72c0.04,0.19-0.27,1.94,0,3.17c-1.27-0.6-2.23-5.97-0.79-6.14
				C536.41,212,537.75,213.32,537.82,213.72z"/>
			<path class="st0" d="M512.69,217.68c0.54-0.09,1.1-0.12,0.99,0.59c-1.27,3.45-4.86-0.64-2.38,3.96
				c-2.11,2.66-0.91-1.36-1.58-3.17C510.67,219.41,512.52,217.7,512.69,217.68z"/>
			<path class="st0" d="M507.93,222.43c1.18,0.15,0.45,0.53,0.2,0.99c-1.12,2.05-5.29,5.2-7.92,4.75
				C502.57,226.09,506.09,226.53,507.93,222.43z"/>
			<path class="st0" d="M515.06,225.6c1.09-0.4,0.98,1.45,0,1.98C514.11,227.22,514.77,225.7,515.06,225.6z"/>
			<path class="st0" d="M533.67,212.14c0.17-0.08,1.06,2.26,0.4,2.77C533.3,214.65,533.26,212.33,533.67,212.14z"/>
			<path class="st0" d="M503.58,217.28c0.4,0.13,0.34,1.47-0.4,1.19C502.58,218.24,503.44,217.24,503.58,217.28z"/>
			<path class="st0" d="M527.33,216.49c0.67-0.04,1.04-0.15,0.99,0.59C528.31,217.34,526.92,216.85,527.33,216.49z"/>
			<path class="st0" d="M535.65,216.49c0.49-0.34,0.52,1.52,0,1.19C535.34,217.49,535.31,216.73,535.65,216.49z"/>
			<path class="st0" d="M507.14,227.57c0.55,0.07-0.14,1.22-0.4,1.19C506.19,228.69,506.89,227.54,507.14,227.57z"/>
		</g>
	</g>
	<g>
		<path class="st0" d="M349.78,258.85c-7.52,1.33-15.06,2.64-22.56,3.96c0.45-1.73,0.04-1.09-0.79-2.38
			c1.86-0.76-0.91-2.47-0.79-3.36c0.08-0.6,2.06-1.36,1.98-1.98c-0.36-2.86-2.65,2.98-2.77,3.36c-0.16,0.49-0.3,1.07-0.4,1.58
			c-1.9-1.16-1.03-3.77-0.4-5.34c-1.63-1.48-1.12,4.44-3.17,0c1.46-0.51,2.71-1.12,4.16-0.59c-0.77-2.63-2.55,0.07-4.35-0.79
			c-1.48-0.7,1.44-1.36,0-2.38l-4.95,1.98c-0.59-0.94-2.09-0.44-1.58-2.38c10.66-2.05,21.38-4.05,32.07-5.94
			c-3.68,2.52-3.24,3.07-0.59,6.33c1.18-0.49-4.81-6.35,2.57-4.95c-3.54,0.46,1.41,4.9-0.59,7.72c-5.35,0.72-2.66-0.91-3.36-2.57
			c-0.12-0.29-4.58-2.02-4.55-4.16c-0.34,3.49-2.48,7.43-1.58,0.79c-2.41,2.85-0.82,3.83,1.58,5.54c0.29-1.32-1.57-2.32,0.79-2.38
			c1.76,6.26-4.99,2.3-6.93,6.14c2.42,0.43,5.2-2.16,6.73,0.4l0.2,1.78c0.9-0.32,0.32-1.62,0.79-1.98c0.19-0.14,0.78,1.95,1.78,0.99
			c-3.56-2.99-1.47-5.07,0.99-0.99c0.31-1.49-0.03-2.08,1.58-2.77c0.74,4.16,1.25-0.19,3.56-0.4L349.78,258.85z"/>
		<g>
			<path class="st0" d="M326.43,260.43c-0.45-0.7-1.04-1.35-1.58-1.98c0.12-0.38,2.42-6.22,2.77-3.36c0.08,0.62-1.9,1.38-1.98,1.98
				C325.51,257.97,328.29,259.68,326.43,260.43z"/>
			<path class="st0" d="M332.17,252.91c4.07,5.83-2.54,3.67-2.97,4.95c0.31,0.63,2.14,2.45,0.99,2.97c-4.48-7,0.93-2.84,2.38-4.35
				L332.17,252.91z"/>
			<path class="st0" d="M332.96,250.93c0.1-0.01,1.44,1.22,1.19,1.58C332.48,253.11,331.87,251.04,332.96,250.93z"/>
			<path class="st0" d="M335.33,258.06c0.08,0.02,0.86,1.35,0.4,1.58C334.55,260.22,334,257.69,335.33,258.06z"/>
			<path class="st1" d="M321.48,250.14c0.8-0.16,0.78,1,0.4,1.19C321.72,251.4,320.88,250.26,321.48,250.14z"/>
			<path class="st1" d="M336.92,252.91c0.49,0.73,0.15,1.64-0.4,0.79C336.24,253.27,336.67,253.22,336.92,252.91z"/>
			<path class="st1" d="M346.02,252.12c0.6-0.22,0.87,0.58,0.4,0.79C345.84,253.17,345.54,252.29,346.02,252.12z"/>
		</g>
	</g>
	<g>
		<path class="st0" d="M265.86,259.24l1.58,3.36c-4.25,0.27-4.46,2.53-4.35,6.14c-1.33,1.63-2.61,0.07-3.76,0.4
			c-0.57,0.16-1.09,1.56-1.19,1.58c-4.67,1.36-4.97,1.49-6.73-3.17c-0.61,1.44,1.06,3.9,0.99,5.15c-0.01,0.17-0.88,3.04-0.99,3.17
			c-0.24,0.28-6.34,1.16-7.32,1.19c0.12-1.36,1.23-1.26,1.19-1.39c-0.12-0.39-1.16-0.02-1.19-0.4c-0.19-2.37,4.81-1.88,6.33-2.77
			c-1.14-1.9-2.56-0.85-4.35-0.79c-0.99-2.19,1.36-0.53,1.58-1.19c-3.07-1.34-3.09-4.62-2.38-7.32
			C252.13,261.96,258.98,260.48,265.86,259.24z"/>
		<g>
			<path class="st0" d="M245.27,263.2c-0.72,2.7-0.69,5.98,2.38,7.32c-0.23,0.66-2.58-1.01-1.58,1.19c1.79-0.05,3.21-1.11,4.35,0.79
				c-1.52,0.89-6.53,0.4-6.33,2.77c0.03,0.38,1.07,0.01,1.19,0.4c0.04,0.13-1.06,0.03-1.19,1.39c-0.02,0.26,0.01,0.53,0,0.79
				c-0.25,0.05-0.55-0.05-0.79,0c-0.01-1.25,1.2-2.93-0.4-3.56c0.17-0.28-0.63-0.46-0.2-0.79c0.12-0.1,2.76-0.15,2.97-0.99
				c0.08-0.31-1.47-6.06-1.78-6.14l-2.18,2.97c0.03-4.28,1.58-3.83,2.77-6.14C244.73,263.16,245.02,263.25,245.27,263.2z"/>
			<path class="st0" d="M263.08,268.75c0.03,1.08,1.81,4.98-0.2,4.75c-1.36-0.16,0.54-2.97-1.19-3.17
				c-2.74-0.31-1.35,3.88-1.58,3.96c-2.34-3.76-4.01-2.39-7.72-1.58c0.07-1.24-1.6-3.7-0.99-5.15c1.76,4.66,2.06,4.53,6.73,3.17
				c0.1-0.03,0.62-1.42,1.19-1.58C260.48,268.81,261.75,270.38,263.08,268.75z"/>
			<path class="st0" d="M249.43,274.29c0.94-0.8,0.93,1.19,0.79,1.19C249.21,275.46,248.72,274.89,249.43,274.29z"/>
			<polygon class="st0" points="254.18,267.56 254.77,267.76 254.57,268.35 254.38,268.15 			"/>
			<polygon class="st0" points="260.91,261.62 261.11,262.21 260.51,262.41 260.31,262.21 			"/>
		</g>
	</g>
	<g>
		<path class="st0" d="M348.59,244.6c3.56,4.97,3.95,0.15,7.13,2.18l-4.35,1.58c1.17,1.1,2.68,2.42,1.39,4.55l-0.4-1.98
			c-5.2-1.53-0.22-3.61-3.76-4.55c0.34,1.45-0.24,3.82,0.4,5.15c0.54,1.12,2.77,0.56,2.77,1.58c0,0.29-2.67,3.45-1.19,5.34
			c-0.37,0.07-0.42,0.33-0.79,0.4l-0.59-4.75c-2.31,0.21-2.82,4.56-3.56,0.4c-1.62,0.69-1.28,1.28-1.58,2.77
			c-2.46-4.08-4.55-2-0.99,0.99c-1,0.96-1.59-1.13-1.78-0.99c-0.47,0.36,0.11,1.66-0.79,1.98l-0.2-1.78
			c-1.53-2.55-4.31,0.03-6.73-0.4c1.94-3.83,8.69,0.13,6.93-6.14c-2.36,0.06-0.5,1.06-0.79,2.38c-2.4-1.71-3.99-2.69-1.58-5.54
			c-0.89,6.64,1.24,2.7,1.58-0.79c-0.03,2.13,4.43,3.86,4.55,4.16c0.7,1.67-1.99,3.29,3.36,2.57c2.01-2.82-2.95-7.26,0.59-7.72
			c-7.38-1.4-1.39,4.45-2.57,4.95c-2.64-3.26-3.08-3.82,0.59-6.33C346.8,244.5,348.45,244.62,348.59,244.6z"/>
		<path class="st0" d="M341.67,251.72c2.75-1.05,0.63,2.7-0.4,1.98C340.79,253.37,341.04,251.96,341.67,251.72z"/>
	</g>
	<g>
		<path class="st0" d="M244.48,263.2c-1.19,2.31-2.74,1.85-2.77,6.14l2.18-2.97c0.31,0.08,1.86,5.83,1.78,6.14
			c-0.21,0.84-2.85,0.89-2.97,0.99c-0.43,0.33,0.37,0.51,0.2,0.79c-0.22,0.37,0.01,1.41-1.19,1.19c-0.37-0.49-1.01-1.79-1.39-1.98
			c-0.05-0.03-0.31,0.49-0.59,0.4c-0.75-0.26-1.94-0.42-2.77-0.79c0.29-1.54,0.24-2.31,1.19-3.76l-1.39,0.99l-1.39-3.17
			c-0.12-0.87-0.41-1.41,0-2.38C238.39,264.22,241.46,263.75,244.48,263.2z"/>
		<path class="st0" d="M236.96,273.1c-0.1,0.55,0.46,2.44-0.79,1.78c0.84-2.39-0.43-5.17-0.79-7.72l1.39,3.17l1.39-0.99
			C237.2,270.79,237.25,271.56,236.96,273.1z"/>
		<path class="st0" d="M238.54,267.56l1.58-0.99c-1.82,2.01,0.89,3.34-0.59,5.34c0.47-1.26-1.34-3.19-1.39-3.36
			C238,268.01,238.62,267.89,238.54,267.56z"/>
		<path class="st0" d="M238.54,267.56l-0.59-1.98C238.49,266.15,238.39,266.9,238.54,267.56z"/>
	</g>
	<g>
		<path class="st0" d="M656.59,321.4c-0.04,0.01,0.05,0.2-0.79,0.4l-0.4-8.12c-4.08-2.22-0.55-3.05,1.58-4.35l-2.97-0.2
			c0.46-2.78,4.99-0.19,5.34,2.18c0.53,3.54-2.54,4.1-2.77,4.75C656.21,317.11,656.86,320.07,656.59,321.4z"/>
		<path class="st0" d="M655.2,311.1c0.11-0.07,2.69-0.33,2.57,0.59C656.62,313.93,653.95,311.83,655.2,311.1z"/>
	</g>
	<g>
		<path class="st0" d="M656.59,321.4c0.27-1.33-0.37-4.29,0-5.34c0.23-0.65,3.3-1.21,2.77-4.75c-0.36-2.37-4.89-4.96-5.34-2.18
			l2.97,0.2c-2.13,1.31-5.66,2.13-1.58,4.35l0.4,8.12c-11.01,2.62-22.45,3.6-33.45,6.33l-0.4-5.15c-0.08,1.44-0.18,4.84-1.58,5.54
			c-15.53,2.48-30.88,5.78-46.32,8.71c-1.48,0.28-3.66-0.88-3.96-0.79c-0.38,0.11-0.86,1.77-1.98,1.98
			c-9.93,1.88-19.96,3.3-29.89,5.15c0.18-2.61,0.45-3.92-1.39-5.94l-0.79,1.19l-0.79-1.58c-1.02,2.94-0.66,4.73-1.39,7.52
			c-10.09,1.88-20.21,3.66-30.28,5.54c-1.77,0.33-4.14-0.84-4.35-0.79c-0.32,0.08-0.77,1.68-2.38,1.98
			c-28.68,5.35-57.41,10.51-86.1,15.84l-2.57-1.58l1.78,1.98c-12.6,2.34-25.2,4.79-37.81,7.13c-1.15,0.21-1.23-1-2.38-0.79
			c-1.02,0.19-2.23,1.56-2.38,1.58c-8.11,1.5-16.24,2.86-24.35,4.35l0.2-1.98c-1.08-0.24-1.15,0.85-2.18,0.79
			c-3.42-3.53,1.79-3.31,4.35-4.16c-5.14,0.59-3.03-3.56-0.99-6.14c-1-0.92-5.22,7.8-5.34,8.31c-2.17-1.17-2.01,0.69-2.57,0.79
			c-0.73,0.13-0.01-2.07-1.19-2.38c-0.08-0.02-0.3,1.65-1.39,0.2c0.96-1.72,3.4-7.02,1.19-8.51c13.14-2.44,26.26-5.08,39.39-7.52
			c0.7-0.13,0.89,0.92,1.58,0.79c72.96-13.56,147.06-28.25,220.5-41.96c1.71-0.32,3.37,0.43,3.56,0.4c0.17-0.03,0.32-1.1,0.79-1.19
			c16.64-3.11,33.38-5.7,49.88-9.5c3.87,2.57,2.01,0.01,2.18-0.2c0.86-1.08,4.17-2.02,5.94-4.35c0.95-1.24,1.64-3,1.98-4.55
			c1.16-0.13,1.4,1.92,1.19,2.57h-1.19c0.9,0.67,2.74,5.14,2.77,5.94c0.08,1.86-2.97,5.05,0.4,7.13c-2.24-3.85,0.4-4.06,0.79-5.94
			c0.29-1.38-2.5-9.16-3.56-10.89c0.08-0.99,0.08-2.37,0-3.36c-1.23-15.57-8.78-42-12.27-58.39c0.65-0.41,4.65-2.47,4.75-0.99
			c-2.65,0.32-2.02,12.08-1.39,12.07l0.2-7.32l1.78,3.76c-1.61-10.67,1.6-1.48,1.58,2.77c0.37-1.61,0.18-3.31,0.2-4.95
			c0-0.29,0.8-0.1,0.79-0.4c-0.06-1.48-2.48-3.75-2.38-3.96c0.27-0.52,2.06,0.49,1.58-1.58c-2.37,1.35-1.59-1.38-2.57-2.97
			l-4.55,2.77c-0.58-2.72-0.69-5.87-1.19-8.12c-1.87-8.49-2.4-18.6-12.67-20.39c0.22-3.74-0.44-7.63-1.78-11.08l0.99,11.08
			c-6.07-0.64-17.5,2.77-24.15,3.96l-0.79-0.59c1.72-0.45,1.52,0.3,2.38-0.99c1.11-1.68-0.31-1.68-1.19-2.77
			c-0.26-0.32-0.32-0.89-0.59-1.19c-0.22-0.24-0.9,0.82-1.39-0.2c3.29-1.16,0.38-1.03,2.38-3.17c-1.43,0.42-1.65-0.41-2.38-0.59
			c0.29-0.86,1.71-3.73,1.58-4.35c-0.08-0.39-0.4-0.45-0.4-0.79c16.98-3.05,38.17-12.16,47.51,8.12
			c5.82,33.48,14.86,66.6,19.4,100.16C673.53,316.33,667.6,318.7,656.59,321.4z"/>
		<g>
			<path class="st0" d="M538.22,343.57c-0.65,0.12-0.61-0.03-0.79,0c0.86-2.32-0.3-2.38-0.99-4.35c-0.24-0.06-1.99,4.62-0.59,4.75
				c-0.25,0.05-1.23,0.65-1.98,0.79c0.72-2.79,0.37-4.59,1.39-7.52l0.79,1.58l0.79-1.19C538.67,339.65,538.4,340.96,538.22,343.57z"
				/>
			<path class="st0" d="M410.75,367.32c-0.37,0.07-0.42,0.33-0.79,0.4l-1.78-1.98L410.75,367.32z"/>
			<path class="st0" d="M649.06,235.89c-0.05-0.24,0.05-0.55,0-0.79l4.55-2.77c0.99,1.59,0.21,4.32,2.57,2.97
				c0.48,2.08-1.31,1.07-1.58,1.58c-0.11,0.2,2.31,2.48,2.38,3.96c0.01,0.29-0.79,0.1-0.79,0.4c-0.02,1.64,0.17,3.34-0.2,4.95
				c0.02-4.25-3.19-13.44-1.58-2.77l-1.78-3.76l-0.2,7.32c-0.64,0-1.27-11.76,1.39-12.07C653.71,233.42,649.71,235.48,649.06,235.89
				z"/>
			<path class="st0" d="M671.63,300.42c0.82,2.3,1.36,4.76,1.98,7.13c-0.12,0.55,0.53,2.81-0.79,2.18l-3.76-14.45
				c-0.56,2.61-3.18,1.15-3.36,1.39c-0.55,0.7,0.66,5.64-0.2,6.53c-0.59-1.41-3.03-12.04-0.4-10.69c-0.93,3.49,1.61,4.89,3.17,1.58
				C669.46,293.76,671.23,299.3,671.63,300.42z"/>
			<path class="st0" d="M673.61,307.54c-0.61-2.36-1.16-4.83-1.98-7.13c0.44-0.17,0.65-0.8,0.79-1.19c0.5-1.32,0.04-1.02,0-1.98
				l2.18-0.79c0.11,0.47,0.15,3.2,0.2,3.36c0.09,0.31,1.31,0.02,1.58,0.79c0.19,0.53-1,4.87-0.79,5.94l-1.39-3.36
				C674.39,304.79,673.95,306.02,673.61,307.54z"/>
			<path class="st0" d="M666.29,304.37c1.96,3.1,1.37,6.48,3.56,9.11c3.46-2.26-1.8-5.13-0.2-8.51c1.58,0.08,0.01,1.58,0.4,2.38
				c0.41,0.83,2.66,1.89,2.77,3.17c0.15,1.77-2.33,3.29-3.36,4.55c-0.94-1.43-2.06-2.66-1.78-4.55c-3.18,0.25-0.09,4.68-0.99,6.93
				c-0.35,0.08-1.58-6.59-1.39-6.93c0.12-0.2,2.24-0.49,2.38-1.19C667.73,309.04,664.5,306.24,666.29,304.37z"/>
			<path class="st0" d="M663.12,267.95c0.75,3.01,1.27,4.36,4.16,2.18c2.04,7.21-14.72,4.65-8.91-1.78
				c-1.42,5.43,1.67,2.59,3.17,3.17c0.49,0.19,1.52,3.89,4.55,1.39C663.31,272.66,662.13,270.7,663.12,267.95z"/>
			<path class="st0" d="M660.94,298.83c0.09-0.41,0.34-0.47,0.4-1.19c1.06,1.72,3.85,9.51,3.56,10.89
				c-0.39,1.87-3.03,2.09-0.79,5.94c-3.36-2.08-0.32-5.26-0.4-7.13c-0.03-0.8-1.87-5.26-2.77-5.94h1.19
				C662.34,300.75,662.1,298.7,660.94,298.83z"/>
			<path class="st0" d="M526.94,335.65c0.64,0.6,3.03-0.09,3.17,0c0.32,0.21,4.11,7.61,1.58,6.73c-0.8-0.28-0.85-8.29-4.16-5.34
				c1.94,1.81,1.98,5.25,1.78,7.72c-1.19-2.45,0.11-5.91-3.36-6.53l1.58-0.4L526.94,335.65z"/>
			<path class="st0" d="M667.67,285.77c0.49,0.42,1.64,0.99,1.58,1.78c-0.34,1.67-2.91,1.2-3.17,1.58
				c-0.09,0.14,1.21,3.43-0.99,2.57c-0.3-0.12,0.86-1.13,0.59-2.18c-0.26-1.04-1.73-1.49-1.98-2.38c-0.12-0.41-0.19-7.56,1.19-3.56
				c0.27,0.79-0.97,6.18,2.77,3.56V285.77z"/>
			<path class="st0" d="M668.07,275.08c-0.37,0.62,0.86,3.89,1.78,3.17C670.64,277.63,669.16,274.92,668.07,275.08
				c0.2-0.35-0.47-1.68,0.59-1.58c1.53,1.57,2.52,3.09,2.18,5.34c-0.03,0.16-1.11,0.34-1.19,0.79c-0.24,1.45,1.24,2.06,0.2,3.36
				c-0.52,0.03-2.65-7.32-2.57-7.72C667.34,274.94,668.04,275.13,668.07,275.08z"/>
			<path class="st0" d="M341.07,378.8c-1.24-0.07-1.19-0.4-2.18-0.79c-0.55-0.48,0.08-0.73,0.2-1.19c0.13-0.51,4.35-9.24,5.34-8.31
				c-2.04,2.57-4.15,6.72,0.99,6.14C342.86,375.49,337.65,375.27,341.07,378.8z"/>
			<path class="st0" d="M644.12,192.74c2.23,2.42,4.08,5.49,2.77,8.71c-1.23,0.06-1.11-3.29-1.39-3.76
				c-0.57-0.97-1.73-0.36-1.98-0.79c-0.44-0.75,1.13-0.49,1.19-0.79C644.84,195.45,643.48,192.91,644.12,192.74z"/>
			<path class="st0" d="M661.53,275.87c1.75,1.73,2.68,0.51,4.55,1.39c-5.18,0.25,0.33,6.28-4.35,3.17L661.53,275.87z"/>
			<path class="st0" d="M628.68,194.32c3.82,2.5,1.19,3.2,1.39,3.76c0.06,0.16,1.82-0.17,1.98,1.98
				C632.5,206.34,627.8,196.47,628.68,194.32z"/>
			<path class="st0" d="M635.21,206.59c-0.25-0.04-0.54,0.03-0.79,0l-0.99-11.08C634.77,198.96,635.43,202.86,635.21,206.59z"/>
			<path class="st0" d="M667.87,298.04c3.29-0.02,1.84,11.55-0.99,0.99C666.68,298.63,667.8,298.04,667.87,298.04z"/>
			<path class="st0" d="M496.85,343.17c0.13,0,0.72,0.81,0.99,0.99c-2.17,3.33,0.82,3.54-0.59,6.53
				C496.8,350.79,494.46,343.14,496.85,343.17z"/>
			<path class="st0" d="M489.33,341.98c1.97,1.92,3.72,4.27,0.79,5.94L489.33,341.98z"/>
			<path class="st0" d="M537.23,331.29c3.36-0.85-2.17,2.7-2.18,2.97c-0.01,0.73,3.55,1.06,2.97,2.57l-4.55-2.57
				C533.99,333.81,537,331.35,537.23,331.29z"/>
			<path class="st0" d="M672.42,297.25c0.04,0.96,0.5,0.66,0,1.98c-0.74-3.28-1.53-5.44-4.75-6.93c0.96-0.72,5.03,2.38,5.15,2.77
				C672.98,295.61,672.38,296.34,672.42,297.25z"/>
			<path class="st0" d="M640.55,191.95l3.56,8.31C641.81,198.12,640.27,195.18,640.55,191.95z"/>
			<path class="st0" d="M619.18,200.65c3.62,2.69,0.83,3.21,0.79,7.13L619.18,200.65z"/>
			<path class="st0" d="M439.05,360.19c-0.94,1.59-6.31,2.35-8.51,2.18C432.34,360.5,436.65,361.47,439.05,360.19z"/>
			<path class="st0" d="M657.97,274.68c2.25,2.66,2.42,2.87,2.38,5.94C658.95,281.39,657.95,275.43,657.97,274.68z"/>
			<path class="st0" d="M645.7,209.36l2.38,2.38l1.19-1.58c2.18,4.41-0.43,2.81-2.77,1.19C646.24,211.17,644.88,212.71,645.7,209.36
				z"/>
			<path class="st0" d="M481.81,350.3c2.19-0.54,0.91,1.6-0.4,1.98c-1.71,0.49-2.99-1.22-3.76,0.99l-0.4-1.58
				c1.08-1.56,1.16,0.09,3.36-0.2C481.29,351.4,481.73,350.32,481.81,350.3z"/>
			<path class="st0" d="M659.56,307.94c2.01,2.17,2.84,5.06,2.38,7.92L659.56,307.94z"/>
			<path class="st0" d="M400.26,366.92c0.96-0.18,5.4,0.58,6.93,0.2c0.09,0.48-6.94,1.91-7.52,0.4
				C399.87,367.38,400.11,366.95,400.26,366.92z"/>
			<path class="st0" d="M665.49,260.43c2.1-0.43,1.9,4.01,1.19,3.96C665.44,264.3,665.02,261.43,665.49,260.43z"/>
			<path class="st0" d="M365.42,372.47c1.66-0.07,4.29,0.67,6.14,0.59l-10.49,0.59C361.63,372.8,364.55,372.5,365.42,372.47z"/>
			<path class="st0" d="M646.49,212.53c1.74,1.48,2.83,2.41,2.38,4.75C648.24,217.54,645.76,212.9,646.49,212.53z"/>
			<path class="st0" d="M660.35,266.77c3.11,1.38,0.14,5.19-0.59,2.57C659.6,268.8,659.65,266.96,660.35,266.77z"/>
			<path class="st0" d="M657.58,259.24l1.58,5.94C658.44,265.54,656.47,259.84,657.58,259.24z"/>
			<path class="st0" d="M359.09,373.26c-0.78,2.12-5.47,2-7.32,1.78L359.09,373.26z"/>
			<path class="st0" d="M639.76,195.9l0.79,6.73C640.4,200.48,638.12,197.86,639.76,195.9z"/>
			<polygon class="st0" points="652.83,248.56 654.41,252.91 653.02,251.92 			"/>
			<path class="st0" d="M621.55,194.32c-0.41,1.51,3.26,6-0.59,2.97L621.55,194.32z"/>
			<path class="st0" d="M395.9,362.17c1.16,1.23,2.21,3.17,0.79,4.75L395.9,362.17z"/>
			<path class="st0" d="M661.53,257.66c1.39-0.02,0.96,3.25-0.4,2.77C659.87,259.99,660.87,257.67,661.53,257.66z"/>
			<path class="st0" d="M516.25,341.98l1.98,3.17C516.58,345.02,515.69,343.68,516.25,341.98z"/>
			<path class="st0" d="M542.38,337.63c1.48,0.69,3.83,3.36,1.98,4.35L542.38,337.63z"/>
			<path class="st0" d="M655.2,218.07c0.46-0.05,2.27-0.31,1.58,0.79l-4.16,0.59C653.05,218.99,654.74,218.13,655.2,218.07z"/>
			<path class="st0" d="M429.16,354.65c0.39,1.43-0.87,3.47-1.98,4.35L429.16,354.65z"/>
			<path class="st0" d="M410.15,357.42l3.17,3.56C411.84,360.93,410.12,358.78,410.15,357.42z"/>
			<path class="st0" d="M616.8,322.98c0.75,1.28-2.01,3.24-2.38,4.35C613.36,326.96,616.59,323.38,616.8,322.98z"/>
			<path class="st0" d="M467.95,349.11c0.59,1.71,2.67,3.12,1.58,4.75L467.95,349.11z"/>
			<path class="st0" d="M473.89,344.75c1.51-0.2,0.36,2.68-1.19,2.77C472.02,347.13,473.74,344.77,473.89,344.75z"/>
			<path class="st0" d="M632.24,320.61c1.05-0.41,2.22,2.42,0.4,3.17C632.55,323.37,632.09,320.66,632.24,320.61z"/>
			<path class="st0" d="M511.1,340c0.49,0.05,1.31,1.92,1.98,1.98l-0.4,0.79C511.48,342.82,509.92,339.89,511.1,340z"/>
			<path class="st0" d="M465.18,344.75c0.39,1.68-0.27,3.39-1.58,4.35L465.18,344.75z"/>
			<path class="st0" d="M658.37,224.01c0.04-0.06,1.36,0.13,1.39,0.2C660.92,226.8,656.39,226.56,658.37,224.01z"/>
			<path class="st0" d="M493.68,346.34c0.52,0.97,1.27,3.4,0.4,4.35C493.51,349.33,493.19,347.8,493.68,346.34z"/>
			<path class="st0" d="M477.06,345.94c0.41,1.2,1.83,2.3,0.79,3.56C476.96,349.28,476.52,346.2,477.06,345.94z"/>
			<path class="st0" d="M547.92,336.04c1.38,1.13-1.39,3.51-2.57,2.18C546.79,337.45,547.29,338.19,547.92,336.04z"/>
			<path class="st0" d="M655.99,248.56c0.65,0.74,1.4,3.22,0.4,3.96C656.13,251.23,655.41,249.88,655.99,248.56z"/>
			<path class="st0" d="M652.03,226.39l1.58,3.17C652.58,229.28,651.38,227.38,652.03,226.39z"/>
			<path class="st0" d="M635.01,320.61c0.66-0.38,2.11,2.57,1.58,2.77C636.09,323.28,634.17,321.1,635.01,320.61z"/>
			<path class="st0" d="M612.84,204.22c1.13-0.35,1.74,1.63,1.19,1.98C612.86,206.93,612.45,204.34,612.84,204.22z"/>
			<path class="st0" d="M657.58,236.68c0.61,0.88,1.89,1.94,1.19,3.17C658.3,240.13,657,236.88,657.58,236.68z"/>
			<path class="st0" d="M561.77,332.88l0.4,3.17C561.35,335.24,560.57,333.8,561.77,332.88z"/>
			<path class="st0" d="M499.23,340.8c0.26,0.03,1.41,1.51,0.4,1.98C496.86,342.41,498.72,340.75,499.23,340.8z"/>
			<path class="st0" d="M622.74,199.47l-0.4,2.77C621.18,201.44,622.01,200.21,622.74,199.47z"/>
			<polygon class="st0" points="615.61,199.07 616.6,200.06 616.01,201.45 			"/>
			<path class="st0" d="M557.42,336.44c0.2,0.01,0.99,1.97,0.4,2.38C557.08,339.32,556.37,336.41,557.42,336.44z"/>
			<path class="st0" d="M650.05,197.88c0.93,0.86,0.01,2.84,0,3.96C649.77,201.84,649.72,198.4,650.05,197.88z"/>
			<polygon class="st0" points="513.87,344.75 514.66,347.13 513.28,345.35 			"/>
			<path class="st0" d="M671.83,284.58l0.4,2.38C671.58,287.27,670.67,285.03,671.83,284.58z"/>
			<path class="st0" d="M519.81,341.59c0.7-0.2,1.28,2.36,0.79,2.77C520.05,344.16,519.52,341.67,519.81,341.59z"/>
			<path class="st0" d="M627.49,203.43c0.83-0.07,1.93,1.56,1.19,1.98L627.49,203.43z"/>
			<path class="st0" d="M544.75,333.67c0.56,0.19,1.08,2.72,0.79,2.77C544.86,335.78,544.18,334.64,544.75,333.67z"/>
			<path class="st0" d="M655.6,224.8c1.08,0.8,0.55,1.85,0,2.77C655.27,226.81,655.27,225.58,655.6,224.8z"/>
			<path class="st0" d="M637.78,191.55c0.19,0.01,1.02,2.01,0.4,2.38C637.39,193.55,636.89,191.48,637.78,191.55z"/>
			<path class="st0" d="M423.61,356.63c1.14-0.12,1.12,1.71,0,1.58C422.91,358.13,422.92,356.71,423.61,356.63z"/>
			<path class="st0" d="M497.25,338.82c0.4-0.16,1.15-0.07,0.99,0.59l-1.39,0.99C496.37,340.26,497.13,338.86,497.25,338.82z"/>
			<path class="st0" d="M652.43,209.76c0.38,0.02,0.95,1.27,0.4,1.58C651.97,211.82,651.51,209.72,652.43,209.76z"/>
			<path class="st0" d="M581.96,331.29l1.78,0.99C583.03,333.46,580.85,331.86,581.96,331.29z"/>
			<path class="st0" d="M616.4,203.43l1.78,0.59C617.85,204.96,615.88,204.5,616.4,203.43z"/>
			<path class="st0" d="M446.18,351.48c1.03,0.35,0.26,2.22-0.4,1.98L446.18,351.48z"/>
			<path class="st0" d="M541.98,333.67c0.44,0.07,0.86,1.51,0.79,1.98C541.87,335.55,541.11,333.53,541.98,333.67z"/>
			<path class="st0" d="M487.35,342.38c0.17,0.51,1.02,2.47,0.4,2.77C487.26,344.74,486.82,342.47,487.35,342.38z"/>
			<path class="st0" d="M539.6,336.04c1.18-0.25,1.25,0.64,0.79,1.58L539.6,336.04z"/>
			<path class="st0" d="M596.61,329.71l1.78,0.59C598.35,330.98,595.98,330.81,596.61,329.71z"/>
			<path class="st0" d="M346.81,371.67c1.17-0.25,0.16,1.86-0.4,1.58C345.9,372.83,346.38,371.77,346.81,371.67z"/>
			<path class="st0" d="M437.47,354.65c0.29,0,0.81,2.1,0,2.38C437.09,356.15,436.82,355.43,437.47,354.65z"/>
			<path class="st0" d="M657.18,220.84c0.47,0.19,1.44,2.26,0.79,2.38C657.86,222.89,656.58,220.94,657.18,220.84z"/>
			<path class="st0" d="M481.02,347.13l0.79,1.58C480.94,348.71,480.48,347.8,481.02,347.13z"/>
			<path class="st0" d="M392.34,361.78c1.64-0.14,1,0.75,0,1.19C391.61,362.66,391.85,361.82,392.34,361.78z"/>
			<path class="st1" d="M606.11,320.21c1.31-0.34,1.63,1.14,0.79,1.19C606.83,321.4,605.77,320.5,606.11,320.21z"/>
			<path class="st0" d="M405.4,361.78c1.96,0.13-1.27,1.84-0.99,0.59C404.43,362.31,405.35,361.77,405.4,361.78z"/>
			<path class="st0" d="M643.72,313.48c1.22-0.16,0.27,1.48-0.4,1.19C642.78,314.43,643.46,313.51,643.72,313.48z"/>
			<path class="st0" d="M479.43,344.36c1.09-0.42-0.17,1.66-0.4,1.58C478.55,345.77,478.87,344.58,479.43,344.36z"/>
			<path class="st0" d="M397.49,358.21c0.26-0.05,1.01,1.22,0.4,1.58C397.63,359.95,396.86,358.34,397.49,358.21z"/>
			<path class="st1" d="M560.59,330.11c0.21-0.12,1.08,1.12,0,1.58C560.28,331.4,560.25,330.3,560.59,330.11z"/>
			<path class="st0" d="M376.11,368.51c0.31,0.29,0.34,1.39,0,1.58C375.9,370.21,375.03,368.97,376.11,368.51z"/>
			<path class="st0" d="M662.33,289.33c0.59,0.33,0.21,1.57-0.79,1.19C661.21,290.24,662.26,289.3,662.33,289.33z"/>
			<path class="st0" d="M415.7,362.57c1.03,0.35-1.31,2.07-0.99,0.59C414.76,362.9,415.51,363.02,415.7,362.57z"/>
			<path class="st0" d="M521.79,335.65c1.38-0.17,0.96,1.5-0.4,0.79C521,336.24,521.7,335.66,521.79,335.65z"/>
			<path class="st0" d="M651.24,216.09c0.63,0.23-0.15,1.69-0.4,1.58C650.22,217.4,650.99,216,651.24,216.09z"/>
			<path class="st0" d="M579.19,328.52c0.28,0,0.35,1.99,0,2.38C578.89,330.9,578.88,328.52,579.19,328.52z"/>
			<path class="st0" d="M505.96,347.53c0.68-0.3,0.84,0.99,0.4,1.19C505.67,349.02,505.51,347.72,505.96,347.53z"/>
			<path class="st0" d="M650.85,221.24c0.63,0.23-0.15,1.69-0.4,1.58C649.82,222.54,650.6,221.15,650.85,221.24z"/>
			<path class="st0" d="M666.29,282.21c1.07-0.23,1.54,0.69,0.4,0.79C666.64,283,665.88,282.41,666.29,282.21z"/>
			<path class="st0" d="M616.4,206.59c0.33-0.2,1.01,0.54,0.99,0.59C617.1,207.84,615.52,207.13,616.4,206.59z"/>
			<path class="st1" d="M597.4,322.98c0.14-0.09,0.87-0.06,0.99,0.2C598.69,323.84,596.13,323.84,597.4,322.98z"/>
			<path class="st1" d="M524.56,337.63c0.85-0.61,0.48,1.4,0,1.19C524.26,338.68,524.23,337.87,524.56,337.63z"/>
			<path class="st0" d="M621.16,319.42c1.49-0.21-0.13,1.64-0.59,0.59C620.54,319.97,621.11,319.42,621.16,319.42z"/>
			<path class="st0" d="M647.28,194.32c0.8-0.16,0.78,1,0.4,1.19C647.52,195.58,646.68,194.44,647.28,194.32z"/>
			<path class="st0" d="M454.1,349.11c0.53-0.44,0.42,1.78,0,1.58C453.78,350.54,453.77,349.38,454.1,349.11z"/>
			<path class="st0" d="M490.52,349.11c0.8-0.16,0.78,1,0.4,1.19C490.76,350.37,489.92,349.23,490.52,349.11z"/>
			<path class="st1" d="M475.87,353.07c0.14-0.09,0.87-0.06,0.99,0.2C477.16,353.92,474.6,353.93,475.87,353.07z"/>
			<path class="st1" d="M471.91,353.86c0.14-0.09,0.87-0.06,0.99,0.2C473.2,354.71,470.64,354.72,471.91,353.86z"/>
			<path class="st0" d="M431.53,356.63c1.01-0.3,0.21,0.78-0.4,1.19C430.62,357.47,431.24,356.72,431.53,356.63z"/>
			<path class="st0" d="M420.84,357.42c0.8-0.16,0.78,1,0.4,1.19C421.08,358.68,420.24,357.54,420.84,357.42z"/>
			<path class="st0" d="M398.67,359.8c0.14-0.09,0.87-0.06,0.99,0.2C399.96,360.65,397.4,360.66,398.67,359.8z"/>
			<path class="st0" d="M667.67,285.77c-1.03,0.8-1-0.26-0.59-1.19C667.32,284.83,667.44,285.57,667.67,285.77z"/>
			<path class="st0" d="M402.24,360.59c0.06,0.01,0.66,1.07,0.4,1.19C401.77,362.18,401.51,360.48,402.24,360.59z"/>
			<path class="st0" d="M405.01,364.55c0.38,0.06,1.2-0.18,1.39,0.2C406.44,364.85,404.64,365.77,405.01,364.55z"/>
			<path class="st0" d="M550.29,331.29c0.36,0.75,0.83,1.04,0,1.58C549.97,332.51,549.97,331.68,550.29,331.29z"/>
			<path class="st0" d="M640.55,313.48c0.14-0.09,0.87-0.06,0.99,0.2C641.84,314.33,639.28,314.34,640.55,313.48z"/>
			<path class="st0" d="M593.05,326.15c0.94,0.11,0.25,1.77-0.4,0.79C592.39,326.54,593,326.14,593.05,326.15z"/>
			<path class="st0" d="M651.64,313.48c0.26-0.03,0.95,1.12,0.4,1.19C651.78,314.7,651.09,313.55,651.64,313.48z"/>
			<path class="st0" d="M654.8,209.76c0.11,0.33,0.66,0.91,0.4,1.19C654.47,211.09,654.39,210.29,654.8,209.76z"/>
			<path class="st1" d="M528.92,332.09c0.6-0.22,0.87,0.58,0.4,0.79C528.73,333.13,528.44,332.26,528.92,332.09z"/>
			<path class="st0" d="M459.24,348.71c0.49-0.34,0.52,1.52,0,1.19C458.94,349.71,458.9,348.95,459.24,348.71z"/>
			<path class="st0" d="M653.22,318.23c0.37,0.48,0.44,1.21-0.4,1.19C652.48,319.41,653.11,318.49,653.22,318.23z"/>
			<path class="st0" d="M658.76,316.65c0.49,0.73,0.15,1.64-0.4,0.79C658.09,317.01,658.52,316.96,658.76,316.65z"/>
			<path class="st0" d="M576.42,328.92c0.49,0.73,0.15,1.64-0.4,0.79C575.75,329.28,576.18,329.23,576.42,328.92z"/>
			<path class="st0" d="M399.07,361.78c0.6-0.22,0.87,0.58,0.4,0.79C398.88,362.82,398.59,361.95,399.07,361.78z"/>
			<path class="st0" d="M519.02,339.61c0.81-0.01,1.38,0.95,0.4,0.79C519.34,340.39,518.62,339.81,519.02,339.61z"/>
			<path class="st0" d="M495.27,339.61c0.49-0.34,0.52,1.52,0,1.19C494.97,340.61,494.93,339.84,495.27,339.61z"/>
			<path class="st0" d="M562.57,328.92c0.49-0.34,0.52,1.52,0,1.19C562.26,329.92,562.22,329.15,562.57,328.92z"/>
			<path class="st0" d="M476.66,343.17c0.49,0.73,0.15,1.64-0.4,0.79C475.98,343.53,476.42,343.48,476.66,343.17z"/>
			<path class="st0" d="M609.28,322.58c0.49-0.34,0.52,1.52,0,1.19C608.98,323.58,608.94,322.82,609.28,322.58z"/>
			<path class="st0" d="M658.76,306.35c0.73-0.15,0.81,0.66,0.4,1.19C659.05,307.22,658.5,306.63,658.76,306.35z"/>
			<path class="st0" d="M631.05,316.65c0.55,0.07-0.14,1.22-0.4,1.19C630.1,317.76,630.8,316.61,631.05,316.65z"/>
			<path class="st0" d="M649.26,315.46c0.49,0.73,0.15,1.64-0.4,0.79C648.59,315.82,649.02,315.77,649.26,315.46z"/>
			<path class="st0" d="M462.41,353.07c0.49,0.73,0.15,1.64-0.4,0.79C461.73,353.43,462.17,353.38,462.41,353.07z"/>
			<path class="st0" d="M587.9,326.94c0.26-0.03,0.95,1.12,0.4,1.19C588.04,328.16,587.35,327.01,587.9,326.94z"/>
			<polygon class="st0" points="433.91,359.01 434.5,359.2 433.91,359.8 433.71,359.6 			"/>
			<polygon class="st0" points="546.73,340 546.93,340.6 546.33,340.8 546.14,340.6 			"/>
			<polygon class="st0" points="479.43,349.11 479.83,349.5 479.83,349.9 479.43,349.9 			"/>
			<polygon class="st1" points="442.22,359.8 442.62,360.19 442.62,360.59 442.22,360.59 			"/>
			<polygon class="st0" points="420.84,360.59 421.04,361.18 420.45,361.38 420.25,361.18 			"/>
			<polygon class="st0" points="428.36,360.59 428.96,360.79 428.76,361.38 428.56,361.18 			"/>
			<polygon class="st0" points="624.32,205.01 624.92,205.21 624.72,205.8 624.52,205.6 			"/>
			<path class="st0" d="M382.44,364.94h0.4c0.78-0.06,0.78,0.46,0,0.4L382.44,364.94z"/>
			<polygon class="st0" points="412.92,365.34 413.52,365.54 412.92,366.13 412.73,365.93 			"/>
			<path class="st0" d="M526.15,332.09c0.19-0.01,0.27,0.35,0.2,0.59C526.12,334.15,525.64,332.11,526.15,332.09z"/>
			<polygon class="st1" points="520.21,333.27 520.4,333.87 519.81,334.07 519.61,333.87 			"/>
			<path class="st0" d="M564.15,333.67c0.19-0.01,0.27,0.35,0.2,0.59C564.12,335.74,563.64,333.7,564.15,333.67z"/>
			<polygon class="st0" points="572.07,333.67 572.46,334.07 572.46,334.46 572.07,334.46 			"/>
			<path class="st0" d="M623.53,319.42c0.19-0.01,0.27,0.35,0.2,0.59C623.5,321.48,623.03,319.45,623.53,319.42z"/>
			<polygon class="st0" points="436.28,353.07 436.87,353.27 436.28,353.86 436.08,353.66 			"/>
			<polygon class="st0" points="641.74,319.81 642.33,320.01 641.74,320.61 641.54,320.41 			"/>
			<path class="st0" d="M668.07,275.08c1.1-0.16,2.57,2.55,1.78,3.17C668.92,278.97,667.7,275.7,668.07,275.08z"/>
		</g>
	</g>
	<g>
		<path class="st0" d="M324.45,260.04c-0.01,0.08,1.05,0.8-0.2,1.58c-1.31-0.34-2.47-4.62-2.77-4.75c-0.23-0.1-2.24,0.59-3.36,0
			c-0.08-0.04,0.09-0.92,0-0.99c-2.85-1.96-1.51-1.59-2.38-2.97l4.95-1.98c1.44,1.01-1.48,1.67,0,2.38c1.8,0.86,3.59-1.83,4.35,0.79
			c-1.45-0.53-2.7,0.08-4.16,0.59c2.04,4.44,1.54-1.48,3.17,0C323.41,256.27,322.55,258.88,324.45,260.04z"/>
		<path class="st0" d="M318.71,253.31c2.63,0,3.27,6.13-1.78,0.99C316.94,254.05,318.6,253.31,318.71,253.31z"/>
	</g>
	<g>
		<path class="st2" d="M634.42,206.59c0.26,0.03,0.54-0.04,0.79,0c10.27,1.78,10.8,11.9,12.67,20.39c0.49,2.24,0.61,5.39,1.19,8.12
			c0.05,0.24-0.05,0.55,0,0.79c3.49,16.39,11.05,42.82,12.27,58.39c0.08,1,0.08,2.37,0,3.36c-0.06,0.72-0.31,0.78-0.4,1.19
			c-0.34,1.55-1.03,3.31-1.98,4.55c-1.77,2.33-5.07,3.27-5.94,4.35c-0.17,0.21,1.69,2.77-2.18,0.2c-16.5,3.8-33.24,6.39-49.88,9.5
			c-0.47,0.09-0.62,1.16-0.79,1.19c-0.19,0.04-1.85-0.72-3.56-0.4c-73.44,13.71-147.54,28.4-220.5,41.96
			c-0.7,0.13-0.89-0.92-1.58-0.79c-13.13,2.44-26.25,5.08-39.39,7.52c-15.5,2.88-31,5.85-46.52,8.71c-0.46,0.09-0.62,1.16-0.79,1.19
			c-0.69,0.13-0.84-1-1.98-0.79c-26.15,4.83-52.27,10.03-78.38,15.04c-0.49-0.51-1.11-0.66-1.78-0.79
			c-3.14-0.61-5.91-2.09-7.92-4.55c-6.18-23.32-11.29-48.2-15.44-72.25c-0.73-4.22-2.52-11.09-2.38-15.04
			c0.01-0.26-0.03-0.54,0-0.79c0.59-4.74,4.64-8.07,8.91-9.5c13.82-4.64,39.02-7.38,54.43-10.29c0.25-0.05,0.55,0.05,0.79,0
			c14.58-2.74,44.99-5.77,57.2-10.29c0.44-0.16,1.51-0.45,1.39-0.99l-2.18-5.34l2.77,5.94c7.95-1.6,15.96-2.95,23.95-4.35
			c7.5-1.32,15.04-2.63,22.56-3.96c0.37-0.07,0.42-0.33,0.79-0.4c51.99-9.18,103.51-18.86,155.58-28.5
			c10.94-2.03,21.92-3.91,32.86-5.94c0.13-0.02,0.27,0.02,0.4,0c18.28-3.4,36.54-6.91,54.83-10.29c0.46-0.09,0.62-1.16,0.79-1.19
			c0.7-0.13,0.89,0.92,1.58,0.79c4.55-0.84,9.09-1.95,13.66-2.77C616.91,209.37,628.35,205.96,634.42,206.59z"/>
		<path class="st0" d="M339.49,261.22l1.39,1.98c1.05-2.68,0.9-2.11,2.18-0.79c0.19,0.2-0.04,0.78,0.79,0.4
			c0.11,0.61-0.07,1.35,0,1.98c-22.01,4.06-44.1,7.79-66.11,11.88l4.75-5.15C301.55,268.01,320.63,264.68,339.49,261.22z"/>
		<path class="st0" d="M642.73,212.14c2.05,3.27,2.63,9.8,3.56,13.86c-1.57,1.22-1.89-1.29-4.35,0c-0.77-3.31-0.81-8.39-2.77-11.08
			C642.26,215.21,639.52,212.08,642.73,212.14z"/>
		<path class="st2" d="M639.17,214.91c1.97,2.7,2.01,7.77,2.77,11.08c4.12,17.84,12.64,49.62,13.86,66.71
			c0.29,4.07-0.07,6.69-3.36,9.3c-146.78,29.07-294.45,56.28-441.8,83.13c-5.28,0.49-8.95-1.99-10.49-6.93
			c-7.21-23.15-7.78-53.44-15.04-77.2c0.12-2.66,1.37-4.99,3.17-6.93c1.17-0.45,2.63-1.29,3.76-1.58
			c26.03-6.77,58.65-10.81,85.71-15.84c22.01-4.09,44.1-7.81,66.11-11.88c63.47-11.72,126.92-23.65,190.42-35.23
			c16.62-3.03,33.24-6.16,49.88-9.11c8.31-1.47,46.11-9.77,51.27-8.31C636.4,212.42,638.51,214,639.17,214.91z"/>
		<g>
			<path class="st0" d="M646.29,225.99c5.26,22.76,8.74,45.97,14.25,68.68c0.3,5.86-2.3,9.57-7.32,12.07
				c-148.93,27.75-297.83,56.36-446.94,82.74c-5.64-0.73-8.5-4.09-10.09-9.3c-7.33-23.93-8-54.34-15.44-78.78
				c-0.27-3.78-0.07-4.72,1.98-7.72l1.78,2.77c1.07-2.17,1.72-1.58,3.76-2.38c-1.8,1.94-3.05,4.26-3.17,6.93
				c7.27,23.75,7.83,54.05,15.04,77.2c1.54,4.94,5.21,7.42,10.49,6.93c147.35-26.85,295.02-54.07,441.8-83.13
				c3.3-2.61,3.65-5.24,3.36-9.3c-1.21-17.08-9.73-48.86-13.86-66.71C644.4,224.7,644.72,227.21,646.29,225.99z"/>
			<g>
				<path class="st0" d="M654.8,301.21l2.18,0.59C656.57,302.77,654.83,302.21,654.8,301.21z"/>
				<path class="st1" d="M500.41,332.88c0.37,0.48,0.44,1.21-0.4,1.19C499.68,334.05,500.3,333.14,500.41,332.88z"/>
				<path class="st0" d="M198.36,376.03c0.49,0.73,0.15,1.64-0.4,0.79C197.68,376.39,198.12,376.34,198.36,376.03z"/>
				<path class="st1" d="M418.47,349.5h0.4c0.78-0.06,0.78,0.46,0,0.4L418.47,349.5z"/>
				<path class="st0" d="M649.26,248.56c0.19-0.01,0.27,0.35,0.2,0.59C649.24,250.62,648.76,248.58,649.26,248.56z"/>
				<polygon class="st0" points="622.34,311.1 622.54,311.7 621.95,311.9 621.75,311.7 				"/>
				<polygon class="st0" points="653.62,304.37 653.82,304.97 653.22,305.17 653.02,304.97 				"/>
			</g>
		</g>
		<g>
			<path class="st0" d="M538.62,224.8c2.6,1.48,0.76,1.33-0.4,1.98c-1.73-0.23-2.4,0.23-3.17,1.19c-0.45,0.56-1.08,0.56-0.79,1.58
				c-63.49,11.59-126.95,23.51-190.42,35.23c-0.07-0.63,0.11-1.37,0-1.98c-0.13-0.74-0.29-0.39-0.79-0.4
				c-1.27-1.32-1.13-1.88-2.18,0.79l-1.39-1.98C405.97,249.04,472.06,237.09,538.62,224.8z"/>
			<g>
				<path class="st0" d="M461.62,239.85c0.56-0.36,1.89,0.16,1.39,0.99C462.48,241.71,460.52,240.55,461.62,239.85z"/>
				<path class="st0" d="M359.48,259.64c0.99-0.14,0.43,0.78-0.4,0.79C358.68,260.23,359.41,259.65,359.48,259.64z"/>
				<path class="st0" d="M429.95,246.58c0.55,0.07-0.14,1.22-0.4,1.19C429,247.69,429.69,246.54,429.95,246.58z"/>
				<path class="st0" d="M343.84,262.81c-0.83,0.39-0.6-0.2-0.79-0.4C343.56,262.42,343.71,262.06,343.84,262.81z"/>
				<path class="st0" d="M375.32,256.47c0.2-0.09,0.88-0.06,0.99,0.2C375.49,257.54,374.46,256.85,375.32,256.47z"/>
			</g>
		</g>
		<g>
			<path class="st0" d="M282.48,271.52l-4.75,5.15c-27.05,5.03-59.67,9.06-85.71,15.84c-1.14,0.3-2.59,1.13-3.76,1.58
				c-2.04,0.79-2.69,0.21-3.76,2.38l-1.78-2.77c2.52-3.68,5.56-4.45,9.7-5.54C219.67,280.95,254.14,276.74,282.48,271.52z"/>
			<path class="st0" d="M275.95,273.5c1.24-0.41,2.04,2.52,0.4,2.77c-0.12,0.02-0.6-1.05-1.58-0.79c-4.39,1.17-7.02,3.21-11.68,0.99
				l12.07-1.39C276.74,274.47,275.35,273.69,275.95,273.5z"/>
			<path class="st0" d="M220.13,284.58h0.4c0.78-0.06,0.78,0.46,0,0.4L220.13,284.58z"/>
		</g>
		<g>
			<path class="st0" d="M642.73,212.14c-3.21-0.06-0.47,3.07-3.56,2.77c-0.66-0.91-2.77-2.49-3.76-2.77
				c-5.15-1.46-42.95,6.84-51.27,8.31l-0.4-3.96c9.81-1.8,46.6-10.69,53.64-8.71C639.03,208.24,641.81,210.66,642.73,212.14z"/>
			<path class="st0" d="M637.78,208.57l2.97,2.57C639.41,212.44,636.73,209.02,637.78,208.57z"/>
		</g>
		<g>
			<path class="st0" d="M584.14,220.45c-16.64,2.94-33.26,6.07-49.88,9.11c-0.29-1.02,0.34-1.03,0.79-1.58
				c1.25-0.13,2.09-0.58,3.17-1.19c1.15-0.65,2.99-0.5,0.4-1.98c15.04-2.78,30.11-5.55,45.13-8.31L584.14,220.45z"/>
			<path class="st0" d="M538.22,226.78c-1.07,0.61-1.92,1.06-3.17,1.19C535.82,227.01,536.49,226.56,538.22,226.78z"/>
			<path class="st0" d="M576.42,218.87c0.35-0.17,1.77,0.89,1.19,1.58C576.8,220.93,575.87,219.14,576.42,218.87z"/>
		</g>
	</g>
</g>
<g id="NAPIS_copy">
	<g>
		
			<linearGradient id="SVGID_1_" gradientUnits="userSpaceOnUse" x1="208.7637" y1="296.693" x2="247.8445" y2="296.693" gradientTransform="matrix(0.9837 -0.1799 0.1799 0.9837 -46.5746 81.2931)">
			<stop  offset="0" style="stop-color:#BE1825"/>
			<stop  offset="1" style="stop-color:#BE1825"/>
		</linearGradient>
		<path class="st3" d="M207.05,307.58l14.4-2.63c7.2-1.32,12.77-1.68,18.25,0.99c4.76,2.32,8.01,6.71,8.94,11.77
			c2.03,11.07-5.01,19.96-19.09,22.54c-0.87,0.16-1.74,0.32-2.62,0.4l3.75,20.49l-13.37,2.45L207.05,307.58z M222.3,315.42
			l2.73,14.95l2.45-0.45c6.8-1.24,9.86-4.66,8.97-9.49c-0.97-5.3-4.98-6.69-12.34-5.34L222.3,315.42z"/>
		
			<linearGradient id="SVGID_00000155834057198320289960000008446161743407985297_" gradientUnits="userSpaceOnUse" x1="256.2847" y1="296.693" x2="302.1199" y2="296.693" gradientTransform="matrix(0.9837 -0.1799 0.1799 0.9837 -46.5746 81.2931)">
			<stop  offset="0" style="stop-color:#BE1825"/>
			<stop  offset="1" style="stop-color:#BE1825"/>
		</linearGradient>
		<path style="fill:url(#SVGID_00000155834057198320289960000008446161743407985297_);" d="M253.79,299.03l14.4-2.63
			c7.12-1.3,12.74-1.84,18.2,0.76c4.74,2.24,7.97,6.47,8.85,11.3c1.29,7.04-1.35,13.16-7.61,17.41l21.48,20.92l-15.27,2.79
			l-18.97-19.25l-1.9,0.35l4.02,21.99l-12.97,2.37L253.79,299.03z M268.63,306.86l2.84,15.5l2.85-0.52c6.8-1.24,9.84-4.74,8.92-9.81
			c-1.03-5.62-5.03-6.93-12.38-5.58L268.63,306.86z"/>
		
			<linearGradient id="SVGID_00000072273934788216039080000003531379683916443033_" gradientUnits="userSpaceOnUse" x1="303.9677" y1="296.6933" x2="362.0255" y2="296.6933" gradientTransform="matrix(0.9837 -0.1799 0.1799 0.9837 -46.5746 81.2931)">
			<stop  offset="0" style="stop-color:#BE1825"/>
			<stop  offset="1" style="stop-color:#BE1825"/>
		</linearGradient>
		<path style="fill:url(#SVGID_00000072273934788216039080000003531379683916443033_);" d="M310.38,295.54
			c4.3-6.43,10.95-10.75,18.54-12.14s15.34,0.3,21.81,4.84c6.47,4.54,10.68,11.45,12.2,19.76c1.27,6.96,0.44,13.57-2.5,19.42
			c-4.13,8.27-11.74,14-20.6,15.62c-7.51,1.37-15.26-0.31-21.65-4.87c-6.58-4.68-10.84-11.42-12.36-19.73
			C304.3,310.14,305.88,302.25,310.38,295.54z M337.51,330.39c8.23-1.5,13.47-9.9,11.65-19.87c-1.84-10.05-9.72-16.04-17.95-14.54
			s-13.46,9.98-11.64,19.95C321.39,325.82,329.29,331.89,337.51,330.39z"/>
		
			<linearGradient id="SVGID_00000047036273178997256630000002362595792056453805_" gradientUnits="userSpaceOnUse" x1="366.847" y1="296.8141" x2="434.3134" y2="296.8141" gradientTransform="matrix(0.9837 -0.1799 0.1799 0.9837 -46.5746 81.2931)">
			<stop  offset="0" style="stop-color:#BE1825"/>
			<stop  offset="1" style="stop-color:#BE1825"/>
		</linearGradient>
		<path style="fill:url(#SVGID_00000047036273178997256630000002362595792056453805_);" d="M373.84,275.19l0.95-0.17l27.79,32.6
			l13.26-40.11l1.03-0.19l22.28,55.68l-12.74,2.33L417,300.64L407.02,331l-0.87,0.16l-21.26-25.05l-0.16,26.84l-11.94,2.18
			L373.84,275.19z"/>
		
			<linearGradient id="SVGID_00000023260126522287034690000002176281467448136872_" gradientUnits="userSpaceOnUse" x1="439.0551" y1="296.6933" x2="497.113" y2="296.6933" gradientTransform="matrix(0.9837 -0.1799 0.1799 0.9837 -46.5746 81.2931)">
			<stop  offset="0" style="stop-color:#BE1825"/>
			<stop  offset="1" style="stop-color:#BE1825"/>
		</linearGradient>
		<path style="fill:url(#SVGID_00000023260126522287034690000002176281467448136872_);" d="M443.26,271.23
			c4.3-6.43,10.95-10.75,18.54-12.14s15.34,0.3,21.81,4.84s10.68,11.45,12.2,19.76c1.27,6.96,0.44,13.57-2.5,19.42
			c-4.13,8.27-11.74,14-20.6,15.62c-7.52,1.37-15.26-0.31-21.65-4.87c-6.58-4.68-10.84-11.42-12.36-19.73
			C437.18,285.83,438.76,277.94,443.26,271.23z M470.4,306.08c8.23-1.5,13.47-9.9,11.65-19.87c-1.84-10.05-9.72-16.04-17.95-14.54
			c-8.23,1.5-13.46,9.98-11.64,19.95C454.27,301.51,462.17,307.59,470.4,306.08z"/>
		
			<linearGradient id="SVGID_00000047740651171110467950000005953709558305239187_" gradientUnits="userSpaceOnUse" x1="503.0604" y1="296.6531" x2="550.4232" y2="296.6531" gradientTransform="matrix(0.9837 -0.1799 0.1799 0.9837 -46.5746 81.2931)">
			<stop  offset="0" style="stop-color:#BE1825"/>
			<stop  offset="1" style="stop-color:#BE1825"/>
		</linearGradient>
		<path style="fill:url(#SVGID_00000047740651171110467950000005953709558305239187_);" d="M528.1,259.56
			c-9.41,1.72-14.82,10.15-12.94,20.43c1.88,10.28,9.72,16.04,19.29,14.29c5.69-1.04,10.88-4.44,15.62-10.22l1.85,15.03
			c-4.15,4.11-9.69,6.92-15.78,8.04c-6.64,1.22-13.2,0.21-18.99-2.82c-8.15-4.31-13.71-11.96-15.49-21.69
			c-1.52-8.31,0.05-16.28,4.41-22.8c4.45-6.54,11.24-10.97,19.23-12.43c6.25-1.14,12.26-0.45,18.13,2.16l1.2,14.58
			C538.99,260.1,533.63,258.54,528.1,259.56z"/>
		
			<linearGradient id="SVGID_00000099630335088793783880000002852839703241747098_" gradientUnits="userSpaceOnUse" x1="552.8345" y1="297.6178" x2="581.1398" y2="297.6178" gradientTransform="matrix(0.9837 -0.1799 0.1799 0.9837 -46.5746 81.2931)">
			<stop  offset="0" style="stop-color:#BE1825"/>
			<stop  offset="1" style="stop-color:#BE1825"/>
		</linearGradient>
		<path style="fill:url(#SVGID_00000099630335088793783880000002852839703241747098_);" d="M560.99,290.57
			c5.62-1.03,6.69-4.98,5.26-12.82l-6.35-34.73l13.45-2.46l6.93,37.89c2.39,13.05-3.32,21.21-15.73,23.48
			c-2.45,0.45-4.8,0.55-7.37,0.37l-3.57-12.34C556.68,290.71,559.17,290.91,560.99,290.57z"/>
		
			<linearGradient id="SVGID_00000166648019093955913510000011034536263213018538_" gradientUnits="userSpaceOnUse" x1="584.1927" y1="295.8087" x2="642.4922" y2="295.8087" gradientTransform="matrix(0.9837 -0.1799 0.1799 0.9837 -46.5746 81.2931)">
			<stop  offset="0" style="stop-color:#BE1825"/>
			<stop  offset="1" style="stop-color:#BE1825"/>
		</linearGradient>
		<path style="fill:url(#SVGID_00000166648019093955913510000011034536263213018538_);" d="M604.58,233.06l0.87-0.16l38.49,52.63
			l-14,2.56l-5.05-7.5l-22.7,4.15l-2.15,8.81l-13.45,2.46L604.58,233.06z M619.01,271.7l-10.49-16.23l-4.22,18.92L619.01,271.7z"/>
	</g>
</g>
</svg>
