<?xml version="1.0" encoding="utf-8"?>
<!-- Generator: Adobe Illustrator 27.0.0, SVG Export Plug-In . SVG Version: 6.00 Build 0)  -->
<svg version="1.1" id="Default" xmlns="http://www.w3.org/2000/svg" xmlns:xlink="http://www.w3.org/1999/xlink" x="0px" y="0px"
	 viewBox="0 0 841.89 595.28" style="enable-background:new 0 0 841.89 595.28;" xml:space="preserve">
<style type="text/css">
	.st0{fill:#045596;}
</style>
<path class="st0" d="M745.81,306c-2.16,3.1-4.77,7.43-5.52,9.06c-2,4.38-5.07,3.19-6.12,2.76c-4.33-1.74-11.88-4.3-15.5-7.54
	c-1.72-1.54-2.54-3.25-1.69-5.11c1.58-3.45,4.19-7.82,7.16-11.99c-0.28,1.76,0.76,3.29,2.11,4.52c3.89,3.53,11.23,5.97,16.14,7.97
	C743.71,306.22,744.84,306.31,745.81,306z"/>
<polygon class="st0" points="29.89,257.22 420.94,192.58 420.95,192.58 812,257.22 811.32,271.9 420.94,207.37 30.57,271.9 "/>
<path class="st0" d="M53.71,354.36c6.37,3.9,11.78,6.61,16.24,8.19c4.44,1.56,8.78,2.34,13.02,2.34c4.27,0,7.71-0.95,10.32-2.83
	c2.59-1.88,3.88-4.29,3.88-7.24c0-4.22-4.61-9-13.85-14.27c-1.49-0.85-2.63-1.54-3.44-2c-2.33-1.32-4.67-2.63-7-3.95
	c-6.8-3.85-11.85-8.22-15.12-13.07c-3.29-4.85-4.93-10.37-4.93-16.51c0-8.34,3.15-15.17,9.44-20.51c6.27-5.34,14.39-8,24.34-8
	c3.68,0,7.66,0.44,11.93,1.29c4.29,0.85,9.05,2.19,14.29,4c0,8.09,0,16.18,0,24.27c-5-3.12-9.73-5.54-14.22-7.24
	c-4.49-1.71-8.29-2.56-11.44-2.56c-3.49,0-6.22,0.76-8.22,2.24c-2,1.49-3,3.54-3,6.1c0,1.81,0.59,3.49,1.78,5.05
	c1.19,1.59,2.98,3,5.37,4.29c4.05,2.24,8.1,4.47,12.15,6.71c10.17,5.63,17,10.83,20.51,15.58c3.51,4.78,5.27,10.41,5.27,16.95
	c0,10.1-3.44,18.27-10.32,24.49c-6.9,6.22-16.02,9.32-27.41,9.32c-3.85,0-8.05-0.41-12.58-1.22c-4.51-0.8-9.51-2.07-14.93-3.78
	C55.09,372.78,54.4,363.57,53.71,354.36z"/>
<polygon class="st0" points="160.07,383.62 160.07,301.68 127.14,301.68 127.14,280.02 217.57,280.02 217.57,301.68 184.8,301.68 
	184.8,383.62 "/>
<path class="st0" d="M281.25,339.09c6.24-2.78,11.02-6.61,14.34-11.51c3.32-4.9,4.97-10.61,4.97-17.14c0-4.51-1.05-8.8-3.17-12.88
	c-2.12-4.07-5.12-7.49-8.97-10.24c-3.63-2.63-7.78-4.49-12.49-5.61c-4.71-1.12-11.32-1.68-19.85-1.68c-8.88,0-17.75,0-26.63,0
	c0,34.53,0,69.07,0,103.6c8,0,16,0,24,0c0-13.56,0-27.12,0-40.68c1.17,0,2.34,0,3.51,0c9.22,13.56,18.44,27.12,27.66,40.68
	c9.41,0,18.83,0,28.24,0C302.32,368.78,291.79,353.93,281.25,339.09z M272.96,323.8c-3.29,2.51-8.05,3.78-14.29,3.78
	c-1.74,0-3.48,0-5.22,0c0-9.56,0-19.12,0-28.68c1.36,0,2.71,0,4.07,0c7.19,0,12.39,1.1,15.58,3.32c3.19,2.22,4.78,5.78,4.78,10.73
	C277.89,317.65,276.25,321.28,272.96,323.8z"/>
<polygon class="st0" points="322.69,383.62 322.69,280.02 386.48,280.02 386.48,301.38 346.68,301.38 346.68,320.11 380.78,320.11 
	380.78,341.33 346.68,341.33 346.68,361.82 387.07,361.82 387.07,383.62 "/>
<polygon class="st0" points="405.92,383.62 405.92,280.02 470.31,280.02 470.31,301.09 430.51,301.09 430.51,321.72 466.06,321.72 
	466.06,342.65 430.51,342.65 430.51,383.62 "/>
<path class="st0" d="M522.13,276.8h-1.56l-52.85,106.82h24.9l6.71-15.07h42.05l6.56,15.07h25.88L522.13,276.8z M506.5,350.7
	l13.78-32.44l13.44,32.44H506.5z"/>
<path class="st0" d="M765.19,332.36c6.34-8.07,9.5-14.44,9.5-19.1c0-4.3-1.42-7.81-4.3-10.57c-2.85-2.77-6.58-4.13-11.14-4.13
	c-4.11,0-7.66,1.34-10.66,4.05c-0.52,0.47-1.28,1.43-2.14,2.63c-1,0.47-2.2,0.44-3.64-0.15c-4.86-1.98-12.19-4.41-16.04-7.91
	c-1.48-1.34-2.59-3.04-1.78-5.04c3.43-4.71,7.28-9.06,10.55-11.35c7.21-5.05,15.65-7.55,25.34-7.55c11.66,0,21.4,3.68,29.33,11.03
	c7.89,7.35,11.86,16.5,11.86,27.48c0,6.63-1.74,13.51-5.21,20.61c0.03,0,0.07,0,0.1,0c-0.05,0.1-0.1,0.2-0.15,0.31
	c-3.56,7.21-9.09,14.93-16.56,23.17c-5.29,5.87-10.58,11.74-15.87,17.61c14.48,0,28.96,0,43.43,0c-1.36,8.27-2.72,16.53-4.08,24.8
	c-24.95,0-49.89,0-74.84,0c0,0,0,0,0,0c-9.16,0-18.32,0-27.47,0c-3.42-18.43-6.84-36.86-10.26-55.29
	c-10.83,19.91-21.66,39.83-32.49,59.74c-0.65,0-1.29,0-1.94,0c-11.63-20.19-23.26-40.38-34.89-60.57
	c-3.54,18.71-7.09,37.41-10.63,56.12c-8.6,0-17.2,0-25.79,0c8.38-41.67,16.76-83.34,25.14-125.01c0.69,0,1.39,0,2.08,0
	c15.23,26.28,30.46,52.56,45.69,78.83c14.36-26.28,28.73-52.56,43.09-78.83c0.72,0,1.44,0,2.17,0
	c7.23,35.72,14.46,71.44,21.69,107.15c12.34-14.78,24.67-29.56,37.01-44.34c0.11-0.14,0.23-0.28,0.34-0.43
	c0.94-1.12,1.83-2.21,2.67-3.27C765.26,332.36,765.22,332.36,765.19,332.36z"/>
</svg>
